<svg width="100%" height="300"  viewBox="0 0 300 300"  version="1.1" xmlns="http://www.w3.org/2000/svg" desc="Created with imagetracer.js version 1.2.6" ><path fill="rgb(0,0,0)" stroke="rgb(0,0,0)" stroke-width="1" opacity="0" d="M 0 0 L 300 0 L 300 300 L 0 300 L 0 0 Z M 115 31 L 112 34 L 111 38 L 111 46 L 109 54 L 101 67 Q 102 69 100 68 L 82 91 Q 83 93 81 92 L 59 121 L 52 137 L 47 158 L 47 196 L 52 214 L 54 217 Q 53 219 56 218 L 58 224 L 69 239 L 69 245 L 72 256 L 79 266 Q 78 268 81 267 L 83 274 L 88 278 L 101 278 Q 105 277 104 271 L 100 266 L 92 262 L 87 262 Q 80 256 77 247 L 78 244 L 78 246 L 90 252 L 110 259 L 139 264 L 149 261 Q 148 265 152 266 L 162 265 L 169 262 Q 174 264 176 261 L 177 262 L 176 264 L 175 265 L 167 266 L 162 271 L 162 276 L 168 279 L 174 278 L 181 274 L 181 268 L 184 260 L 212 258 L 215 256 L 226 254 L 243 246 L 252 240 L 253 237 L 258 235 Q 268 226 274 212 Q 273 209 276 210 L 283 190 L 284 168 L 285 167 L 284 166 L 283 144 L 280 136 L 278 125 L 264 99 L 249 85 Q 246 86 247 84 L 227 72 Q 222 73 223 70 L 203 66 L 201 64 L 184 60 L 175 56 L 158 53 L 156 51 L 145 48 Q 139 42 131 40 L 121 31 L 117 32 L 115 31 Z " /><path fill="rgb(0,0,0)" stroke="rgb(0,0,0)" stroke-width="1" opacity="0" d="M 118.5 40 L 138.5 54 L 148.5 58 L 152 58 Q 150.7 61.3 155.5 60 L 172.5 64 L 200.5 74 L 217 77 Q 215.8 80 219.5 79 L 230.5 83 L 257 103.5 L 270 127.5 L 273 141.5 L 275 144.5 L 276 160.5 L 277 161.5 L 277 178.5 L 276 179.5 L 275 190.5 L 269 206.5 L 262 216.5 L 262 219 L 257 222.5 L 253.5 227 L 249 230.5 Q 249.8 232.8 247.5 232 L 239.5 238 L 222.5 246 L 213.5 248 L 192.5 249 L 188.5 251 L 189 249.5 L 190 243.5 L 192 241.5 L 193 227.5 L 194 226.5 L 194 201.5 L 190.5 200 L 188 204.5 L 188 223.5 L 187 224.5 L 186 240.5 L 180.5 252 L 174.5 252 L 161.5 255 L 139.5 255 L 133.5 253 L 116.5 251 L 114.5 249 L 97.5 245 L 85.5 239 L 74 228.5 L 74 211.5 L 73 206 Q 68.3 205 67 208.5 L 66.5 219 L 60 209.5 L 57 197.5 L 55 194.5 Q 56.7 188.3 54 186.5 L 54 161.5 Q 56.7 159.8 55 153.5 L 57 150.5 L 58 142.5 L 61 133.5 L 68 120 Q 70.7 121.1 70 118.5 L 80 105.5 L 81 102 L 84 100.5 L 109 67.5 L 115 55.5 L 118.5 40 Z M 166 127 L 163 130 L 164 134 Q 163 136 166 135 L 166 138 L 174 144 L 193 151 L 195 148 L 194 145 L 188 140 L 175 136 L 168 129 L 166 127 Z M 113 131 L 109 133 L 105 141 L 102 144 L 96 146 L 95 149 Q 94 153 97 154 Q 107 151 113 143 Q 112 140 115 141 L 118 135 Q 120 128 113 131 Z M 135 133 L 134 136 L 136 144 Q 137 146 142 145 Q 143 138 139 136 Q 140 131 135 133 Z M 174 149 L 169 150 L 166 155 L 167 159 Q 166 161 170 160 L 149 207 Q 147 212 151 214 L 156 213 L 157 209 L 158 209 L 157 220 L 154 229 Q 153 236 155 239 L 161 237 L 164 228 Q 163 223 166 224 L 168 229 L 168 234 Q 171 233 170 236 L 173 237 L 176 237 L 179 235 L 180 227 L 181 224 L 181 189 L 180 188 L 180 160 L 182 156 L 181 153 Q 180 148 174 149 Z M 114 151 L 110 153 L 107 155 L 104 159 L 105 164 L 95 184 Q 96 186 93 185 L 89 195 Q 90 198 87 197 L 82 213 L 80 215 L 80 221 L 86 221 L 87 221 L 85 229 Q 84 234 88 236 L 92 235 Q 94 236 93 233 L 96 234 L 99 234 L 102 232 L 103 236 L 109 235 L 110 233 L 110 205 L 111 204 L 111 185 L 112 184 L 111 182 L 112 181 L 112 165 L 117 162 L 121 157 L 121 154 Q 119 150 114 151 Z M 140 164 L 137 165 L 133 170 L 133 173 Q 138 174 140 170 L 149 170 L 156 172 Q 158 171 157 167 L 154 164 L 140 164 Z " /><path fill="rgb(0,0,0)" stroke="rgb(0,0,0)" stroke-width="1" opacity="0" d="M 87 217 L 89 217.5 L 87 218.5 L 87 217 Z " /><path fill="rgb(132,56,26)" stroke="rgb(132,56,26)" stroke-width="1" opacity="0.9529411764705882" d="M 118 32 Q 121.8 30.5 121 33.5 L 125.5 38 L 146.5 50 L 224.5 72 Q 246.5 81.5 262 97.5 Q 272.2 112.3 279 130.5 L 282 145.5 L 282 153.5 L 283 154.5 L 283 181.5 Q 276.8 217.8 253.5 237 L 236.5 248 L 219.5 255 L 210.5 257 L 188.5 258 L 184 259 Q 183.7 264.4 180 267.5 L 180 272.5 L 177.5 275 Q 173.1 278.1 164.5 277 Q 161.8 275.8 163 270.5 L 166.5 267 Q 169.2 264.2 175.5 265 L 178 262.5 Q 179.1 259.2 176.5 260 L 159.5 264 L 151.5 264 L 150 261 L 136.5 263 L 103.5 256 L 98.5 253 L 85.5 249 L 75.5 242 L 75 243.5 L 77 250.5 L 84 262 L 93.5 264 L 102 269 L 103 272.5 L 102 276 L 99.5 277 L 87.5 277 Q 81.5 275.1 83 267 L 80 265.5 L 72 252.5 L 69 242.5 L 69 235.5 Q 56.2 223.3 50 204.5 L 49 193.5 L 48 192.5 L 48 158.5 L 51 142.5 L 57 126.5 L 68 109.5 L 105 62.5 L 111 49.5 L 113 40.5 L 113 33 Q 117.5 31.3 116 36.5 L 117 41.5 L 113 58.5 L 106 70.5 L 69 117.5 L 58 138.5 L 54 157.5 L 54 189.5 L 58 207.5 L 67.5 222 L 68 209.5 L 70.5 206 L 73 208.5 L 74 229.5 L 77 234 L 88.5 242 Q 97.5 243.5 103.5 248 L 144.5 257 L 145.5 256 L 163.5 256 L 183 252 L 186 238.5 L 188 235.5 L 189 206.5 L 190 201 L 193 201.5 L 193 224.5 L 192 225.5 L 191 240.5 L 187 250.5 L 192.5 251 L 193.5 250 L 214.5 249 L 229.5 244 Q 248 236 260 221.5 L 266 213.5 L 274 196.5 L 276 183.5 L 278 179.5 L 278 161.5 L 272 129.5 L 260 106.5 L 251.5 97 L 226.5 80 L 205.5 73 L 194.5 71 L 168.5 62 L 150.5 58 L 127.5 46 L 119 38.5 L 118 32 Z " /><path fill="rgb(132,56,26)" stroke="rgb(132,56,26)" stroke-width="1" opacity="0.9529411764705882" d="M 165.5 129 L 174.5 137 Q 180.5 141 189.5 142 L 193 144.5 Q 195.1 150.3 190.5 149 L 172.5 142 L 165 134.5 L 164 130.5 L 165.5 129 Z " /><path fill="rgb(132,56,26)" stroke="rgb(132,56,26)" stroke-width="1" opacity="0.9529411764705882" d="M 113.5 132 Q 118.3 130.3 117 134.5 Q 113.8 143.3 106.5 148 L 96.5 153 L 95 149.5 L 108 138.5 Q 107.5 134.5 110.5 134 L 113.5 132 Z " /><path fill="rgb(132,56,26)" stroke="rgb(132,56,26)" stroke-width="1" opacity="0.9529411764705882" d="M 137.5 134 Q 140.8 136.8 141 142.5 L 138.5 144 Q 134.2 141.2 135 135 L 137.5 134 Z " /><path fill="rgb(132,56,26)" stroke="rgb(132,56,26)" stroke-width="1" opacity="0.9529411764705882" d="M 173.5 150 Q 179.3 149.3 180 153.5 Q 181 159 177.5 160 L 172.5 159 L 169.5 160 Q 166 159 167 153.5 L 169.5 151 L 173.5 150 Z M 172 154 L 172 155 L 174 155 L 172 154 Z " /><path fill="rgb(132,56,26)" stroke="rgb(132,56,26)" stroke-width="1" opacity="0.9529411764705882" d="M 114.5 152 L 120 153 Q 120.8 158 117.5 160 L 111.5 163 L 106 163 L 105 159.5 L 108.5 154 L 114.5 152 Z M 114 156 L 115 158 Q 116 155 114 156 Z " /><path fill="rgb(132,56,26)" stroke="rgb(132,56,26)" stroke-width="1" opacity="0.9529411764705882" d="M 140.5 165 Q 152.1 162.9 157 167.5 L 154.5 171 L 149.5 169 L 139.5 169 L 134 172 Q 133.3 167.3 137.5 166 L 140.5 165 Z " /><path fill="rgb(116,66,41)" stroke="rgb(116,66,41)" stroke-width="1" opacity="0.3176470588235294" d="M 114.5 31 L 116.5 32 L 120.5 31 L 130 39.5 L 128.5 39 L 121 33.5 Q 121.7 30.5 118 32 Q 117.7 41 124.5 44 L 137.5 52 L 150 57.5 L 148.5 58 L 138.5 54 L 118.5 40 L 116 52.5 L 113.5 57 L 114 55.5 L 117 37.5 L 116 33 L 113 33 L 113 40.5 L 109.5 52 L 109 50.5 L 111 45.5 L 112 33.5 L 114.5 31 Z " /><path fill="rgb(116,66,41)" stroke="rgb(116,66,41)" stroke-width="1" opacity="0.3176470588235294" d="M 133.5 41 L 144 47.5 L 142.5 47 L 134.5 43 L 133.5 41 Z " /><path fill="rgb(116,66,41)" stroke="rgb(116,66,41)" stroke-width="1" opacity="0.3176470588235294" d="M 145.5 48 L 157 52.5 L 155.5 52 L 146.5 50 L 145.5 48 Z " /><path fill="rgb(116,66,41)" stroke="rgb(116,66,41)" stroke-width="1" opacity="0.3176470588235294" d="M 164.5 54 L 180 58.5 L 178.5 59 L 169.5 56 L 165.5 56 L 164.5 54 Z " /><path fill="rgb(116,66,41)" stroke="rgb(116,66,41)" stroke-width="1" opacity="0.3176470588235294" d="M 107.5 56 L 107 57.5 L 103.5 64 L 103 62.5 L 107.5 56 Z " /><path fill="rgb(116,66,41)" stroke="rgb(116,66,41)" stroke-width="1" opacity="0.3176470588235294" d="M 152.5 58 L 172 63.5 L 169.5 64 L 152 60 L 152.5 58 Z " /><path fill="rgb(116,66,41)" stroke="rgb(116,66,41)" stroke-width="1" opacity="0.3176470588235294" d="M 185.5 60 L 197.5 63 L 202 65.5 L 200.5 65 L 187.5 62 L 185.5 60 Z " /><path fill="rgb(116,66,41)" stroke="rgb(116,66,41)" stroke-width="1" opacity="0.3176470588235294" d="M 111.5 61 L 111 62.5 L 106.5 70 L 107 68.5 L 111.5 61 Z " /><path fill="rgb(116,66,41)" stroke="rgb(116,66,41)" stroke-width="1" opacity="0.3176470588235294" d="M 173.5 64 L 191 69.5 L 188.5 70 L 175.5 66 L 173.5 64 Z " /><path fill="rgb(116,66,41)" stroke="rgb(116,66,41)" stroke-width="1" opacity="0.3176470588235294" d="M 102.5 65 L 101.5 67 L 102.5 65 Z " /><path fill="rgb(116,66,41)" stroke="rgb(116,66,41)" stroke-width="1" opacity="0.3176470588235294" d="M 208.5 67 L 223 70 L 222.5 72 L 208.5 68 L 208.5 67 Z " /><path fill="rgb(116,66,41)" stroke="rgb(116,66,41)" stroke-width="1" opacity="0.3176470588235294" d="M 99.5 68 L 101 68.5 L 82.5 91 L 83 89.5 L 99.5 68 Z " /><path fill="rgb(116,66,41)" stroke="rgb(116,66,41)" stroke-width="1" opacity="0.3176470588235294" d="M 105.5 71 L 105 72.5 L 82.5 102 L 82 100.5 L 105.5 71 Z " /><path fill="rgb(116,66,41)" stroke="rgb(116,66,41)" stroke-width="1" opacity="0.3176470588235294" d="M 195.5 71 L 212 75.5 L 208.5 76 L 197.5 73 L 195.5 71 Z " /><path fill="rgb(116,66,41)" stroke="rgb(116,66,41)" stroke-width="1" opacity="0.3176470588235294" d="M 225.5 72 L 235.5 76 L 247 83.5 L 246.5 85 Q 237.9 77.1 225.5 73 L 225.5 72 Z " /><path fill="rgb(116,66,41)" stroke="rgb(116,66,41)" stroke-width="1" opacity="0.3176470588235294" d="M 217.5 77 L 230 82.5 L 228.5 83 Q 224.3 79 217 79 L 217.5 77 Z " /><path fill="rgb(116,66,41)" stroke="rgb(116,66,41)" stroke-width="1" opacity="0.3176470588235294" d="M 231.5 83 Q 246.8 91.2 258 103.5 L 263 112.5 L 261 111.5 L 255.5 102 L 239.5 89 L 233.5 86 L 231.5 83 Z " /><path fill="rgb(116,66,41)" stroke="rgb(116,66,41)" stroke-width="1" opacity="0.3176470588235294" d="M 248.5 85 L 264 98.5 L 266 102.5 L 264 101.5 L 258.5 94 Q 251.4 90.3 248.5 85 Z " /><path fill="rgb(116,66,41)" stroke="rgb(116,66,41)" stroke-width="1" opacity="0.3176470588235294" d="M 80.5 92 L 81 93.5 L 63.5 116 L 64 114.5 L 80.5 92 Z " /><path fill="rgb(116,66,41)" stroke="rgb(116,66,41)" stroke-width="1" opacity="0.3176470588235294" d="M 80.5 103 L 80 104.5 L 71 116.5 L 70 120 L 68 119.5 L 80.5 103 Z " /><path fill="rgb(116,66,41)" stroke="rgb(116,66,41)" stroke-width="1" opacity="0.3176470588235294" d="M 266.5 104 L 273 115.5 L 271 114.5 L 266.5 104 Z " /><path fill="rgb(116,66,41)" stroke="rgb(116,66,41)" stroke-width="1" opacity="0.3176470588235294" d="M 263.5 114 L 272 129.5 L 275 143.5 L 274 143.5 L 270 127.5 L 264 117.5 L 263.5 114 Z " /><path fill="rgb(116,66,41)" stroke="rgb(116,66,41)" stroke-width="1" opacity="0.3176470588235294" d="M 62.5 117 L 62 118.5 L 57.5 126 L 58 124.5 Q 58.5 119 62.5 117 Z " /><path fill="rgb(116,66,41)" stroke="rgb(116,66,41)" stroke-width="1" opacity="0.3176470588235294" d="M 274.5 119 Q 278.4 122.6 279 129.5 L 278 129.5 L 274.5 119 Z " /><path fill="rgb(116,66,41)" stroke="rgb(116,66,41)" stroke-width="1" opacity="0.3176470588235294" d="M 67.5 121 L 67 122.5 L 61.5 133 L 61 131.5 L 67.5 121 Z " /><path fill="rgb(116,66,41)" stroke="rgb(116,66,41)" stroke-width="1" opacity="0.3176470588235294" d="M 165.5 127 L 168 128.5 L 174.5 136 L 187.5 140 L 194 144.5 L 195 147.5 L 192.5 151 L 184 147.5 L 185.5 147 L 193 149 Q 194.3 144.4 191.5 143 L 174.5 137 L 165.5 129 L 164 131.5 L 165 134.5 L 164 134.5 L 163 129.5 L 165.5 127 Z " /><path fill="rgb(116,66,41)" stroke="rgb(116,66,41)" stroke-width="1" opacity="0.3176470588235294" d="M 55.5 129 L 56 130.5 L 51.5 142 L 51 140.5 L 55.5 129 Z " /><path fill="rgb(116,66,41)" stroke="rgb(116,66,41)" stroke-width="1" opacity="0.3176470588235294" d="M 112.5 131 Q 119.8 128.4 118 134.5 L 114.5 141 L 114 139.5 L 117 132 L 113.5 132 L 108.5 136 L 109 134.5 Q 108.3 132.3 110.5 133 L 112.5 131 Z " /><path fill="rgb(116,66,41)" stroke="rgb(116,66,41)" stroke-width="1" opacity="0.3176470588235294" d="M 279.5 131 L 280 133.5 L 279 133.5 L 279.5 131 Z " /><path fill="rgb(116,66,41)" stroke="rgb(116,66,41)" stroke-width="1" opacity="0.3176470588235294" d="M 135 133 L 139 133 L 139 134.5 L 136.5 135 Q 134.3 134.3 135 136.5 L 134 136.5 L 135 133 Z " /><path fill="rgb(116,66,41)" stroke="rgb(116,66,41)" stroke-width="1" opacity="0.3176470588235294" d="M 60.5 134 L 61 135.5 L 55.5 153 L 55 150.5 Q 57.6 147.6 57 141.5 L 60.5 134 Z " /><path fill="rgb(116,66,41)" stroke="rgb(116,66,41)" stroke-width="1" opacity="0.3176470588235294" d="M 139.5 136 Q 143.3 138.5 142 145 Q 137.4 146.3 136 143.5 L 135 139.5 L 136 139.5 L 138.5 144 L 141 142.5 L 139.5 136 Z " /><path fill="rgb(116,66,41)" stroke="rgb(116,66,41)" stroke-width="1" opacity="0.3176470588235294" d="M 166.5 136 Q 172.1 144 183 146.5 L 180.5 147 Q 171.3 144.2 166 137.5 L 166.5 136 Z " /><path fill="rgb(116,66,41)" stroke="rgb(116,66,41)" stroke-width="1" opacity="0.3176470588235294" d="M 280.5 136 L 283 143.5 L 284 165.5 L 285 166.5 L 284 167.5 L 284 183.5 L 280.5 196 L 280 193.5 L 283 181.5 L 283 154.5 L 282 153.5 L 282 145.5 L 280.5 136 Z " /><path fill="rgb(116,66,41)" stroke="rgb(116,66,41)" stroke-width="1" opacity="0.3176470588235294" d="M 107.5 137 L 108 138.5 L 95.5 149 L 96 147.5 Q 95.3 145.3 97.5 146 L 105 140.5 L 107.5 137 Z " /><path fill="rgb(116,66,41)" stroke="rgb(116,66,41)" stroke-width="1" opacity="0.3176470588235294" d="M 112.5 142 L 105.5 150 L 99.5 153 L 100.5 151 Q 108.3 148.3 112.5 142 Z " /><path fill="rgb(116,66,41)" stroke="rgb(116,66,41)" stroke-width="1" opacity="0.3176470588235294" d="M 275.5 147 L 276 149.5 L 275 149.5 L 275.5 147 Z " /><path fill="rgb(116,66,41)" stroke="rgb(116,66,41)" stroke-width="1" opacity="0.3176470588235294" d="M 49.5 149 L 50 150.5 L 48 158.5 L 48 192.5 L 50 202.5 L 49 202.5 L 47 195.5 L 47 157.5 Q 49.5 156 48 150.5 L 49.5 149 Z " /><path fill="rgb(116,66,41)" stroke="rgb(116,66,41)" stroke-width="1" opacity="0.3176470588235294" d="M 173.5 149 Q 179.7 148.3 181 152.5 L 182 155.5 L 179.5 160 L 178 159.5 Q 181 158.5 180 153.5 Q 179.3 149.3 173.5 150 L 167.5 153 L 167 151.5 L 173.5 149 Z " /><path fill="rgb(116,66,41)" stroke="rgb(116,66,41)" stroke-width="1" opacity="0.3176470588235294" d="M 113.5 151 Q 119.3 150.2 121 153.5 Q 121.8 157.3 119.5 158 L 120 156.5 Q 121.7 151.7 117.5 153 L 114.5 152 L 108.5 154 L 108.5 153 L 113.5 151 Z " /><path fill="rgb(116,66,41)" stroke="rgb(116,66,41)" stroke-width="1" opacity="0.3176470588235294" d="M 95.5 152 L 96.5 154 L 95.5 152 Z " /><path fill="rgb(116,66,41)" stroke="rgb(116,66,41)" stroke-width="1" opacity="0.3176470588235294" d="M 166.5 154 Q 166.3 158.3 169 159.5 L 167 160 L 166.5 154 Z " /><path fill="rgb(116,66,41)" stroke="rgb(116,66,41)" stroke-width="1" opacity="0.3176470588235294" d="M 106.5 155 L 106 156.5 L 105 160.5 L 106 163.5 L 104 162.5 Q 103.2 156.7 106.5 155 Z " /><path fill="rgb(116,66,41)" stroke="rgb(116,66,41)" stroke-width="1" opacity="0.3176470588235294" d="M 276.5 155 L 278 161.5 L 278 179.5 L 276.5 183 L 276 179.5 L 277 178.5 L 277 161.5 Q 274.4 159.9 276.5 155 Z " /><path fill="rgb(116,66,41)" stroke="rgb(116,66,41)" stroke-width="1" opacity="0.3176470588235294" d="M 113.5 156 Q 115.8 155.3 115 157.5 L 113.5 156 Z " /><path fill="rgb(116,66,41)" stroke="rgb(116,66,41)" stroke-width="1" opacity="0.3176470588235294" d="M 54.5 157 L 55 160.5 L 54 160.5 L 54.5 157 Z " /><path fill="rgb(116,66,41)" stroke="rgb(116,66,41)" stroke-width="1" opacity="0.3176470588235294" d="M 118.5 159 L 116.5 162 L 112.5 164 L 112 162 L 118.5 159 Z " /><path fill="rgb(116,66,41)" stroke="rgb(116,66,41)" stroke-width="1" opacity="0.3176470588235294" d="M 139.5 164 L 153.5 164 L 157 166.5 L 155.5 166 Q 150 163.5 140.5 165 L 134 169.5 Q 132.9 172.8 135.5 172 Q 138.9 166.9 149.5 169 L 154.5 171 L 157 169.5 L 155.5 172 L 148.5 170 L 139.5 170 Q 137.6 173.6 133 173 L 133 169.5 L 136.5 165 L 139.5 164 Z " /><path fill="rgb(116,66,41)" stroke="rgb(116,66,41)" stroke-width="1" opacity="0.3176470588235294" d="M 54.5 187 L 55 189.5 L 54 189.5 L 54.5 187 Z " /><path fill="rgb(116,66,41)" stroke="rgb(116,66,41)" stroke-width="1" opacity="0.3176470588235294" d="M 274.5 191 L 275 192.5 L 269.5 205 L 270 203.5 L 274.5 191 Z " /><path fill="rgb(116,66,41)" stroke="rgb(116,66,41)" stroke-width="1" opacity="0.3176470588235294" d="M 55.5 195 L 61 210.5 L 59 209.5 Q 55.3 203.1 55.5 195 Z " /><path fill="rgb(116,66,41)" stroke="rgb(116,66,41)" stroke-width="1" opacity="0.3176470588235294" d="M 190.5 200 L 194 201.5 L 194 226.5 L 193 227.5 L 192 241.5 L 190.5 243 L 190 241.5 L 193 224.5 L 193 201 Q 188.1 199.2 190 205.5 L 189 206.5 L 189 226.5 L 188 227.5 L 188 235.5 L 186.5 238 L 186 235.5 L 187 234.5 L 187 224.5 L 188 223.5 L 188 204.5 L 190.5 200 Z " /><path fill="rgb(116,66,41)" stroke="rgb(116,66,41)" stroke-width="1" opacity="0.3176470588235294" d="M 278.5 200 L 279 201.5 L 276 210 L 274 209.5 L 278.5 200 Z " /><path fill="rgb(116,66,41)" stroke="rgb(116,66,41)" stroke-width="1" opacity="0.3176470588235294" d="M 69.5 206 L 69 207.5 L 68 209.5 L 67.5 222 L 61 212.5 L 64 214.5 L 66.5 219 L 67 208.5 L 69.5 206 Z " /><path fill="rgb(116,66,41)" stroke="rgb(116,66,41)" stroke-width="1" opacity="0.3176470588235294" d="M 71.5 206 Q 73.8 205.3 73 207.5 L 71.5 206 Z " /><path fill="rgb(116,66,41)" stroke="rgb(116,66,41)" stroke-width="1" opacity="0.3176470588235294" d="M 268.5 207 L 268 208.5 L 262.5 218 L 262 216.5 L 268.5 207 Z " /><path fill="rgb(116,66,41)" stroke="rgb(116,66,41)" stroke-width="1" opacity="0.3176470588235294" d="M 51.5 208 L 56 217.5 L 54 218 L 51.5 208 Z " /><path fill="rgb(116,66,41)" stroke="rgb(116,66,41)" stroke-width="1" opacity="0.3176470588235294" d="M 73.5 211 L 74 219.5 L 73 219.5 L 73.5 211 Z " /><path fill="rgb(116,66,41)" stroke="rgb(116,66,41)" stroke-width="1" opacity="0.3176470588235294" d="M 272.5 213 L 273 214.5 L 257.5 235 L 254.5 237 L 262 228.5 L 272.5 213 Z " /><path fill="rgb(116,66,41)" stroke="rgb(116,66,41)" stroke-width="1" opacity="0.3176470588235294" d="M 56.5 219 L 68 233.5 L 69 237.5 L 68 237.5 Q 64.6 228.9 58 223.5 L 56.5 219 Z " /><path fill="rgb(116,66,41)" stroke="rgb(116,66,41)" stroke-width="1" opacity="0.3176470588235294" d="M 260.5 219 L 260 220.5 L 250.5 231 L 249 230.5 L 257 223.5 L 260.5 219 Z " /><path fill="rgb(116,66,41)" stroke="rgb(116,66,41)" stroke-width="1" opacity="0.3176470588235294" d="M 74.5 229 Q 82.8 239.7 97 244.5 L 95.5 244 L 88.5 242 L 77 234 L 74.5 229 Z " /><path fill="rgb(116,66,41)" stroke="rgb(116,66,41)" stroke-width="1" opacity="0.3176470588235294" d="M 247.5 232 L 245.5 235 L 240.5 238 L 242.5 235 L 247.5 232 Z " /><path fill="rgb(116,66,41)" stroke="rgb(116,66,41)" stroke-width="1" opacity="0.3176470588235294" d="M 252.5 237 L 253 238.5 L 242.5 246 L 235.5 249 L 235.5 248 Q 245.5 244 252.5 237 Z " /><path fill="rgb(116,66,41)" stroke="rgb(116,66,41)" stroke-width="1" opacity="0.3176470588235294" d="M 236.5 239 L 235.5 241 L 225.5 245 L 225.5 244 L 236.5 239 Z " /><path fill="rgb(116,66,41)" stroke="rgb(116,66,41)" stroke-width="1" opacity="0.3176470588235294" d="M 75.5 242 L 87 249.5 L 85.5 250 L 78 246 L 77.5 244 L 77 246.5 Q 79.9 256.1 86.5 262 Q 91.8 260.8 93 263.5 L 91.5 264 L 84 262 L 77 250.5 L 75.5 242 Z " /><path fill="rgb(116,66,41)" stroke="rgb(116,66,41)" stroke-width="1" opacity="0.3176470588235294" d="M 184.5 244 L 185 245.5 L 183 252 L 181 251.5 L 184.5 244 Z " /><path fill="rgb(116,66,41)" stroke="rgb(116,66,41)" stroke-width="1" opacity="0.3176470588235294" d="M 101.5 246 L 114.5 249 L 116 250.5 L 114.5 251 L 103.5 248 L 101.5 246 Z " /><path fill="rgb(116,66,41)" stroke="rgb(116,66,41)" stroke-width="1" opacity="0.3176470588235294" d="M 219.5 246 L 221 246.5 L 214.5 249 L 189.5 251 L 187 250.5 L 188.5 248 L 189 250 L 192.5 249 L 213.5 248 L 219.5 246 Z " /><path fill="rgb(116,66,41)" stroke="rgb(116,66,41)" stroke-width="1" opacity="0.3176470588235294" d="M 70.5 247 Q 73.6 259.4 81.5 267 Q 84.5 266.1 83 270.5 L 82 270.5 L 80.5 267 Q 78.3 267.8 79 265.5 L 72 255.5 L 70.5 247 Z " /><path fill="rgb(116,66,41)" stroke="rgb(116,66,41)" stroke-width="1" opacity="0.3176470588235294" d="M 88.5 250 L 103 255.5 L 101.5 256 L 89.5 252 L 88.5 250 Z " /><path fill="rgb(116,66,41)" stroke="rgb(116,66,41)" stroke-width="1" opacity="0.3176470588235294" d="M 230.5 250 L 232 250.5 L 220.5 255 L 220.5 254 L 230.5 250 Z " /><path fill="rgb(116,66,41)" stroke="rgb(116,66,41)" stroke-width="1" opacity="0.3176470588235294" d="M 125.5 252 L 139.5 255 L 161.5 255 L 177.5 252 L 177.5 253 L 163.5 256 L 145.5 256 L 144.5 257 Q 138 254 128.5 254 L 125.5 253 L 125.5 252 Z " /><path fill="rgb(116,66,41)" stroke="rgb(116,66,41)" stroke-width="1" opacity="0.3176470588235294" d="M 104.5 256 L 130 261.5 L 126.5 262 L 109.5 259 L 104.5 257 L 104.5 256 Z " /><path fill="rgb(116,66,41)" stroke="rgb(116,66,41)" stroke-width="1" opacity="0.3176470588235294" d="M 211.5 256 L 214 256.5 L 211.5 258 L 184.5 260 L 184.5 259 L 199.5 258 L 200.5 257 L 210.5 257 L 211.5 256 Z " /><path fill="rgb(116,66,41)" stroke="rgb(116,66,41)" stroke-width="1" opacity="0.3176470588235294" d="M 176.5 260 Q 179.1 259.2 178 262.5 L 175 264.5 L 177 261.5 L 176.5 260 Z " /><path fill="rgb(116,66,41)" stroke="rgb(116,66,41)" stroke-width="1" opacity="0.3176470588235294" d="M 149.5 261 L 151.5 264 L 164.5 263 L 164.5 264 L 151.5 266 Q 147.8 264.8 149.5 261 Z " /><path fill="rgb(116,66,41)" stroke="rgb(116,66,41)" stroke-width="1" opacity="0.3176470588235294" d="M 171.5 261 L 175 261.5 L 171.5 262 L 171.5 261 Z " /><path fill="rgb(116,66,41)" stroke="rgb(116,66,41)" stroke-width="1" opacity="0.3176470588235294" d="M 132.5 262 L 136 262.5 L 132.5 263 L 132.5 262 Z " /><path fill="rgb(116,66,41)" stroke="rgb(116,66,41)" stroke-width="1" opacity="0.3176470588235294" d="M 94.5 264 Q 101 265.5 104 270.5 Q 104.7 276.7 100.5 278 L 87.5 278 L 83 273.5 L 87.5 277 L 99.5 277 L 102 276 L 103 271.5 L 102 269 L 94.5 265 L 94.5 264 Z " /><path fill="rgb(116,66,41)" stroke="rgb(116,66,41)" stroke-width="1" opacity="0.3176470588235294" d="M 182.5 264 L 182 265.5 L 181 274 L 178.5 275 L 180 272.5 Q 179 266 182.5 264 Z " /><path fill="rgb(116,66,41)" stroke="rgb(116,66,41)" stroke-width="1" opacity="0.3176470588235294" d="M 168.5 265 L 170 265.5 L 163 270.5 Q 161.8 275.8 164.5 277 Q 172.8 278.3 176.5 275 L 175.5 277 L 167.5 279 L 162 275.5 L 162 270.5 L 166.5 266 L 168.5 265 Z " /><path fill="rgb(0,194,231)" stroke="rgb(0,194,231)" stroke-width="1" opacity="0.9490196078431372" d="M 172.5 159 L 180 160 L 181 223.5 L 180 226.5 L 179 235 L 175.5 237 L 172.5 237 L 170 236 Q 170.8 232.9 168 233.5 L 168 228.5 L 166 224 Q 162.7 222.7 164 227.5 L 160.5 237 L 155 239 Q 153 236 154 228.5 L 157 219.5 L 157 211.5 L 156 211.5 Q 156.8 213.8 154.5 213 L 150.5 214 Q 147.5 212.5 149 206.5 L 170 160 L 172.5 159 Z M 158 208 L 157 211 L 158 211 L 158 208 Z " /><path fill="rgb(0,194,231)" stroke="rgb(0,194,231)" stroke-width="1" opacity="0.9490196078431372" d="M 106.5 163 Q 111.9 162.4 112 163.5 L 112 180.5 L 112 182.5 L 111 184.5 L 111 203.5 L 110 204.5 L 110 232.5 L 109 235 L 103 236 L 102 232 L 98.5 234 L 95.5 234 L 93 233 Q 94.1 235.7 91.5 235 L 87.5 236 Q 84.5 234 85 228.5 L 87 220.5 L 85.5 221 L 80 221 L 80 214.5 L 82 212.5 L 87 197 Q 90 198.3 89 194.5 L 93 185 Q 95.7 186.1 95 183.5 L 104 164 L 106.5 163 Z M 87 217 L 87 219 L 89 218 L 87 217 Z " /></svg>