<svg width="100%" height="300" viewBox="0 0 300 300" version="1.1" xmlns="http://www.w3.org/2000/svg" desc="Created with imagetracer.js version 1.2.6" ><path fill="rgb(0,0,0)" stroke="rgb(0,0,0)" stroke-width="1" opacity="0" d="M 0 0 L 300 0 L 300 300 L 0 300 L 0 0 Z M 129 24 Q 124 26 127 28 L 126 30 L 127 33 L 125 38 L 126 40 L 125 43 L 125 45 L 123 48 Q 124 50 121 49 Q 122 52 119 54 Q 120 56 117 55 L 117 57 L 113 60 Q 110 59 111 62 L 105 67 Q 102 66 103 69 L 83 85 L 78 87 L 76 90 L 67 98 Q 64 97 65 100 L 63 100 L 61 104 Q 62 106 60 105 L 54 113 L 51 112 L 51 111 L 51 109 L 47 110 Q 49 103 45 101 Q 41 101 40 104 L 40 110 L 38 110 L 38 112 L 34 114 L 33 121 L 40 124 L 39 128 L 40 132 L 44 133 Q 41 137 41 145 L 41 147 L 39 155 L 39 157 L 38 162 L 41 179 L 41 181 L 45 188 L 41 200 L 40 203 L 40 211 L 44 219 L 51 224 Q 53 223 52 226 Q 54 224 56 227 Q 58 226 57 229 L 67 230 L 68 235 L 73 238 L 79 238 L 81 232 L 88 234 L 96 240 L 103 242 L 105 242 L 108 244 L 117 245 L 119 248 L 117 255 L 117 257 L 109 274 L 101 278 L 96 285 L 98 290 Q 99 292 103 291 L 105 291 L 111 294 Q 120 292 127 288 L 129 283 L 127 280 Q 124 274 116 274 L 119 268 L 119 266 L 123 257 Q 122 253 125 254 L 125 250 L 137 250 L 140 251 L 142 250 L 149 251 L 151 250 L 176 249 L 177 249 Q 176 252 179 251 L 182 261 L 187 268 Q 188 274 185 277 L 186 280 L 191 284 L 201 285 L 203 285 L 211 282 L 215 276 L 213 270 L 206 267 L 204 267 L 196 268 L 187 253 L 187 251 L 184 249 L 188 246 L 191 247 L 191 245 Q 204 244 213 239 Q 217 240 216 238 L 228 231 L 230 231 L 230 229 Q 233 230 232 228 L 235 226 L 237 223 L 239 223 L 239 221 Q 242 222 241 220 L 246 216 L 247 213 L 258 198 Q 257 195 260 196 L 259 195 L 264 190 L 270 187 L 275 178 L 274 166 L 271 157 L 268 155 Q 264 156 266 149 L 266 147 L 264 144 L 264 140 L 260 129 Q 261 124 258 125 L 253 113 L 247 108 L 245 105 Q 246 102 243 103 L 243 101 L 239 99 L 237 96 L 219 82 L 215 81 L 213 78 L 209 76 Q 206 77 207 74 L 186 65 L 182 61 L 181 62 L 176 58 L 164 54 L 162 51 L 160 50 Q 157 51 158 49 L 147 40 L 147 39 L 145 38 L 135 24 L 132 25 L 129 24 Z M 239 68 L 236 69 L 236 76 L 231 83 L 231 88 L 238 89 L 243 97 L 246 97 L 249 95 L 249 87 L 252 82 L 252 76 L 245 75 L 244 70 Q 243 67 239 68 Z " /><path fill="rgb(0,0,0)" stroke="rgb(0,0,0)" stroke-width="1" opacity="0" d="M 132 35 Q 135 33.8 134 37.5 L 142.5 47 L 147.5 51 Q 150.2 56.2 156 57 Q 154.9 59.7 157.5 59 L 168.5 66 L 189 75 Q 187.9 77.7 190.5 77 L 194.5 79 L 213 88 Q 211.9 90.7 214.5 90 L 230 102.5 Q 229.2 105.1 232.5 104 L 238 108.5 L 248 121.5 L 254 135.5 L 254 137.5 L 255 140.5 L 255 142.5 L 257 147.5 Q 254.5 149 258 150.5 L 257 155.5 L 259 156 L 259 173.5 L 255.5 183 L 246 178 L 242.5 173 L 240 171.5 L 238 167 Q 235 168.3 236 164.5 L 231 150.5 L 227.5 147 Q 224.9 147.7 226 145 L 224 145 L 224 143 L 220 143 L 218 146.5 L 218 158.5 Q 220.3 159.8 217.5 161 L 207 167.5 L 204 172.5 L 205 175.5 Q 206.3 187.2 212.5 194 Q 216.1 196.9 223.5 196 L 234.5 193 L 241.5 187 L 249 190 L 249 192 Q 253.1 190.7 252 194 Q 249 192.8 250 196.5 L 249 199 L 247 199.5 L 247.5 201 L 245 202.5 L 243 205.5 L 238 213 L 214.5 230 L 194.5 237 L 176.5 239 L 175.5 240 L 164.5 240 L 163.5 241 L 160.5 240 L 159.5 241 L 131.5 241 L 129.5 240 L 126.5 241 L 119.5 237 L 109.5 236 L 105.5 233 L 102.5 233 L 88 226 Q 89.1 223.3 86.5 224 L 79.5 220 L 67 208.5 L 62 200 Q 59.3 201.1 60 198.5 L 55 191.5 L 54 187 L 59 185 Q 60 181.2 57.5 180 L 55.5 179 L 51.5 182 L 48 175.5 L 47 162.5 L 46 161.5 L 47 158.5 L 46 156.5 L 47 155.5 L 47 146.5 Q 49.6 143.6 49 137.5 L 59.5 116 Q 61.8 116.8 61 114.5 Q 65.5 112 66 107 L 69 105.5 L 71.5 102 L 73 102.5 L 75 99.5 L 76 97 L 87 91 L 89.5 87 L 98 82 L 100.5 78 L 110 72 Q 108.9 69.3 111.5 70 L 116 66.5 Q 115.3 64.3 117.5 65 L 119 62 Q 121.7 63.1 121 60.5 L 124 59 Q 123 56 126 57 L 126 54.5 L 131 43.5 L 131 41.5 L 132 35 Z M 185 121 L 175 124 L 164 130 L 161 134 Q 160 136 163 135 L 164 137 L 177 132 L 179 132 L 188 127 Q 190 126 189 123 Q 188 120 185 121 Z M 106 129 L 103 133 Q 105 137 111 137 L 113 137 L 115 138 L 117 138 L 122 140 L 124 140 L 129 141 L 130 138 Q 131 135 129 136 L 127 133 L 106 129 Z M 176 144 L 171 146 L 167 153 L 168 158 L 173 161 L 179 161 L 183 158 L 185 153 L 183 148 Q 184 145 181 146 Q 179 142 178 145 L 176 144 Z M 116 149 L 111 152 L 109 162 L 109 164 L 112 166 Q 121 168 125 163 L 127 160 Q 128 154 125 152 Q 123 148 116 149 Z M 160 165 L 157 166 L 156 170 Q 155 174 148 173 L 145 174 L 142 173 L 139 170 L 136 168 L 133 172 L 134 176 Q 136 180 142 180 L 145 181 L 152 181 L 162 176 Q 161 171 165 170 L 164 167 Q 163 164 160 165 Z " /><path fill="rgb(0,0,0)" stroke="rgb(0,0,0)" stroke-width="1" opacity="0" d="M 117 157 L 119 157.5 L 117 158.5 L 117 157 Z " /><path fill="rgb(0,0,0)" stroke="rgb(0,0,0)" stroke-width="1" opacity="0" d="M 266.5 165 Q 265.7 170.8 269 172.5 L 269 174.5 L 267 177.5 L 265.5 180 L 265 177.5 L 266 176.5 L 266.5 165 Z " /><path fill="rgb(0,0,0)" stroke="rgb(0,0,0)" stroke-width="1" opacity="0" d="M 48.5 196 L 56 207.5 L 56 210 L 60 212.5 L 62 215.5 L 65.5 220 L 67 220.5 L 62.5 221 L 50 214 L 47 209.5 L 46 199.5 L 48.5 196 Z " /><path fill="rgb(133,59,23)" stroke="rgb(133,59,23)" stroke-width="1" opacity="0.18823529411764706" d="M 128.5 24 L 131.5 25 L 134.5 24 L 144.5 38 L 147 38.5 L 146.5 40 L 158 48.5 Q 157.3 50.8 159.5 50 L 162 51 L 163 53.5 L 159.5 51 L 155.5 49 L 139 33.5 L 135 25 L 130.5 26 Q 129 23.5 127.5 27 L 126 26.5 L 128.5 24 Z " /><path fill="rgb(133,59,23)" stroke="rgb(133,59,23)" stroke-width="1" opacity="0.18823529411764706" d="M 126.5 28 L 128 32.5 L 127 35.5 Q 128.3 40.3 125 39 L 127 32.5 L 126 29.5 L 126.5 28 Z " /><path fill="rgb(133,59,23)" stroke="rgb(133,59,23)" stroke-width="1" opacity="0.18823529411764706" d="M 132.5 31 L 136 38.5 L 148.5 51 L 151.5 53 L 160.5 60 L 179 69.5 L 177.5 70 L 156 59 Q 157.1 56.3 154.5 57 L 146 51 L 146 49 L 144 49 Q 145.1 46.3 142.5 47 Q 135.6 43 134 35 L 131 34.5 L 132.5 31 Z " /><path fill="rgb(133,59,23)" stroke="rgb(133,59,23)" stroke-width="1" opacity="0.18823529411764706" d="M 131.5 36 L 132 39.5 L 131 39.5 L 131.5 36 Z " /><path fill="rgb(133,59,23)" stroke="rgb(133,59,23)" stroke-width="1" opacity="0.18823529411764706" d="M 125.5 40 L 126 44 L 124 43.5 L 125.5 40 Z " /><path fill="rgb(133,59,23)" stroke="rgb(133,59,23)" stroke-width="1" opacity="0.18823529411764706" d="M 130.5 43 L 131 45.5 L 126 57 L 124 57 Q 125.1 59.7 122.5 59 L 121 62 Q 118.3 60.9 119 63.5 L 116 65 L 114.5 68 L 110 70 Q 111.1 72.7 108.5 72 L 101.5 78 L 101 76 Q 113.5 68.8 123 57.5 L 130.5 43 Z " /><path fill="rgb(133,59,23)" stroke="rgb(133,59,23)" stroke-width="1" opacity="0.18823529411764706" d="M 123.5 47 L 124 48.5 L 113.5 61 L 110.5 63 L 90.5 80 L 81 86 Q 82.1 88.7 79.5 88 L 71 94 Q 72.1 96.7 69.5 96 L 63 104 L 61 103.5 L 63 100 L 65 100 Q 63.9 97.3 66.5 98 L 76 89.5 L 77.5 87 L 82.5 85 L 103 68.5 Q 102.3 66.3 104.5 67 L 111 61.5 Q 110.3 59.3 112.5 60 L 117 57 L 117 55 Q 119.7 56.1 119 53.5 Q 121.8 52.4 121 49 Q 123.8 50 123.5 47 Z " /><path fill="rgb(133,59,23)" stroke="rgb(133,59,23)" stroke-width="1" opacity="0.18823529411764706" d="M 166.5 55 L 175.5 58 L 180.5 62 L 181.5 61 L 185 64.5 L 183.5 65 L 178.5 61 L 166.5 56 L 166.5 55 Z " /><path fill="rgb(133,59,23)" stroke="rgb(133,59,23)" stroke-width="1" opacity="0.18823529411764706" d="M 186.5 65 L 204.5 74 L 207 74 Q 205.9 76.7 208.5 76 L 213 78 L 214 80.5 L 211.5 79 L 187.5 67 L 186.5 65 Z " /><path fill="rgb(133,59,23)" stroke="rgb(133,59,23)" stroke-width="1" opacity="0.18823529411764706" d="M 238.5 68 Q 243 67 244 69.5 L 243.5 72 L 241.5 69 Q 237.8 68.3 237 70.5 L 237 76.5 L 232 82.5 L 232 86.5 L 232.5 88 Q 229.8 88.6 231 82.5 L 236 75.5 L 236 69 L 238.5 68 Z " /><path fill="rgb(133,59,23)" stroke="rgb(133,59,23)" stroke-width="1" opacity="0.18823529411764706" d="M 182.5 71 L 206.5 83 L 227 97 Q 225.9 99.7 228.5 99 L 239 108.5 L 241 111.5 L 248 120.5 L 244 117.5 L 236.5 107 L 232.5 104 L 230 104 L 224.5 97 L 213 90 Q 214.1 87.3 211.5 88 L 192.5 77 L 190.5 77 L 187.5 75 Q 182.9 74.3 182.5 71 Z " /><path fill="rgb(133,59,23)" stroke="rgb(133,59,23)" stroke-width="1" opacity="0.18823529411764706" d="M 244.5 73 L 245 75 L 248 75.5 L 245.5 76 L 244.5 73 Z " /><path fill="rgb(133,59,23)" stroke="rgb(133,59,23)" stroke-width="1" opacity="0.18823529411764706" d="M 249.5 76 L 252 76 L 252 81.5 Q 247.3 85.5 249 95 Q 246.3 96.1 247 93.5 L 248 91.5 L 247 88.5 L 251 78.5 L 249.5 76 Z " /><path fill="rgb(133,59,23)" stroke="rgb(133,59,23)" stroke-width="1" opacity="0.18823529411764706" d="M 99.5 78 L 98 80.5 Q 98.8 82.8 96.5 82 L 87 89.5 Q 87.8 91.8 85.5 91 L 77.5 97 L 79.5 94 L 99.5 78 Z " /><path fill="rgb(133,59,23)" stroke="rgb(133,59,23)" stroke-width="1" opacity="0.18823529411764706" d="M 217.5 82 L 237 96 L 238 98.5 L 232.5 94 L 219.5 85 L 217.5 82 Z " /><path fill="rgb(133,59,23)" stroke="rgb(133,59,23)" stroke-width="1" opacity="0.18823529411764706" d="M 238.5 89 L 241 92.5 L 238 90.5 L 238.5 89 Z " /><path fill="rgb(133,59,23)" stroke="rgb(133,59,23)" stroke-width="1" opacity="0.18823529411764706" d="M 241.5 94 L 246 96.5 L 242.5 97 L 241.5 94 Z " /><path fill="rgb(133,59,23)" stroke="rgb(133,59,23)" stroke-width="1" opacity="0.18823529411764706" d="M 75.5 97 L 76 98.5 L 75 101 Q 72.3 99.9 73 102.5 Q 71 100.8 69 104.5 L 67.5 107 Q 65.3 106.3 66 108.5 L 61 116 L 58.5 117 L 61 113.5 L 63 109.5 L 75.5 97 Z " /><path fill="rgb(133,59,23)" stroke="rgb(133,59,23)" stroke-width="1" opacity="0.18823529411764706" d="M 239.5 99 L 243 101 L 243 103 Q 245.7 101.9 245 104.5 L 247 107.5 L 246 107.5 L 239.5 99 Z " /><path fill="rgb(133,59,23)" stroke="rgb(133,59,23)" stroke-width="1" opacity="0.18823529411764706" d="M 42.5 101 Q 46.5 100.5 47 103.5 L 46.5 109 Q 47.4 103.6 44.5 102 L 40.5 104 L 42.5 101 Z " /><path fill="rgb(133,59,23)" stroke="rgb(133,59,23)" stroke-width="1" opacity="0.18823529411764706" d="M 59.5 105 L 61 105.5 L 52.5 116 L 49.5 112 Q 45.8 113 47 110 L 50.5 109 L 51 110.5 L 50.5 112 L 53.5 113 L 59.5 105 Z " /><path fill="rgb(133,59,23)" stroke="rgb(133,59,23)" stroke-width="1" opacity="0.18823529411764706" d="M 248.5 108 L 253 112.5 L 258 125 Q 261.3 123.7 260 128.5 L 264 139.5 L 264 143.5 L 266 146.5 L 266 148.5 L 265.5 155 L 265 148.5 L 259 127.5 Q 255.3 116.7 248 109.5 L 248.5 108 Z " /><path fill="rgb(133,59,23)" stroke="rgb(133,59,23)" stroke-width="1" opacity="0.18823529411764706" d="M 38 110 L 40 110.5 L 38 114 L 34 116.5 Q 33.3 121.3 36.5 122 L 40 123.5 L 38.5 124 L 33 120.5 L 34 114 L 38 111.5 L 38 110 Z " /><path fill="rgb(133,59,23)" stroke="rgb(133,59,23)" stroke-width="1" opacity="0.18823529411764706" d="M 57.5 118 L 58 119.5 L 49.5 137 L 50 135.5 L 57.5 118 Z " /><path fill="rgb(133,59,23)" stroke="rgb(133,59,23)" stroke-width="1" opacity="0.18823529411764706" d="M 50.5 119 L 51 121 L 49 120.5 L 50.5 119 Z " /><path fill="rgb(133,59,23)" stroke="rgb(133,59,23)" stroke-width="1" opacity="0.18823529411764706" d="M 184.5 121 Q 188.3 120.3 189 122.5 Q 189.8 126.3 187.5 127 L 178.5 132 L 176.5 132 L 167.5 135 L 167.5 134 L 188 126 L 186.5 122 L 169.5 128 L 169.5 127 L 174.5 124 L 184.5 121 Z " /><path fill="rgb(133,59,23)" stroke="rgb(133,59,23)" stroke-width="1" opacity="0.18823529411764706" d="M 48 122 L 50 122.5 L 44.5 134 L 40 131.5 L 41.5 132 L 46 128.5 L 48 122 Z " /><path fill="rgb(133,59,23)" stroke="rgb(133,59,23)" stroke-width="1" opacity="0.18823529411764706" d="M 248.5 122 L 250 124.5 L 248 123.5 L 248.5 122 Z " /><path fill="rgb(133,59,23)" stroke="rgb(133,59,23)" stroke-width="1" opacity="0.18823529411764706" d="M 272.5 125 L 271.5 127 L 272.5 125 Z " /><path fill="rgb(133,59,23)" stroke="rgb(133,59,23)" stroke-width="1" opacity="0.18823529411764706" d="M 250.5 126 Q 257.9 138.3 259 156 L 257 155.5 L 258 150.5 Q 254.5 149 257 147.5 L 254 141.5 L 254 139.5 L 253 136.5 L 253 134.5 L 250.5 126 Z " /><path fill="rgb(133,59,23)" stroke="rgb(133,59,23)" stroke-width="1" opacity="0.18823529411764706" d="M 166.5 128 L 168 128.5 L 163 131 Q 160.9 136.2 165.5 135 L 165.5 136 L 163.5 137 L 163 135 Q 160.3 136.1 161 133.5 L 163.5 130 L 166.5 128 Z " /><path fill="rgb(133,59,23)" stroke="rgb(133,59,23)" stroke-width="1" opacity="0.18823529411764706" d="M 105.5 129 L 127 133 L 128.5 136 Q 130.8 135.3 130 137.5 L 129 141 L 123.5 140 L 121.5 140 L 116.5 138 L 114.5 138 L 112.5 137 L 110.5 137 Q 105 136.6 103 132.5 L 105.5 129 Z M 105 130 L 104 133 L 110 136 L 118 137 L 127 140 L 128 137 L 125 134 L 105 130 Z " /><path fill="rgb(133,59,23)" stroke="rgb(133,59,23)" stroke-width="1" opacity="0.18823529411764706" d="M 42.5 137 L 43 140.5 L 41.5 143 L 41 141.5 L 42.5 137 Z " /><path fill="rgb(133,59,23)" stroke="rgb(133,59,23)" stroke-width="1" opacity="0.18823529411764706" d="M 48.5 138 L 49 141.5 L 47.5 146 L 47 142.5 L 48.5 138 Z " /><path fill="rgb(133,59,23)" stroke="rgb(133,59,23)" stroke-width="1" opacity="0.18823529411764706" d="M 220 143 L 224 143 L 224 144.5 L 222.5 144 L 220.5 145 L 220 143 Z " /><path fill="rgb(133,59,23)" stroke="rgb(133,59,23)" stroke-width="1" opacity="0.18823529411764706" d="M 175.5 144 L 176.5 146 L 174.5 146 Q 169.5 145.5 169 149.5 L 168.5 151 L 168 149.5 L 170.5 146 L 175.5 144 Z " /><path fill="rgb(133,59,23)" stroke="rgb(133,59,23)" stroke-width="1" opacity="0.18823529411764706" d="M 178.5 144 L 179.5 146 Q 176.7 146.7 178.5 144 Z " /><path fill="rgb(133,59,23)" stroke="rgb(133,59,23)" stroke-width="1" opacity="0.18823529411764706" d="M 181.5 146 Q 183.8 145.3 183 147.5 L 184 149.5 L 183 149.5 L 181.5 146 Z " /><path fill="rgb(133,59,23)" stroke="rgb(133,59,23)" stroke-width="1" opacity="0.18823529411764706" d="M 40.5 147 L 41 149.5 L 40 149.5 L 40.5 147 Z " /><path fill="rgb(133,59,23)" stroke="rgb(133,59,23)" stroke-width="1" opacity="0.18823529411764706" d="M 46.5 147 L 47 155.5 L 46 155.5 L 46.5 147 Z " /><path fill="rgb(133,59,23)" stroke="rgb(133,59,23)" stroke-width="1" opacity="0.18823529411764706" d="M 227.5 147 Q 232.1 149.9 233 156.5 L 232 156.5 L 227.5 147 Z " /><path fill="rgb(133,59,23)" stroke="rgb(133,59,23)" stroke-width="1" opacity="0.18823529411764706" d="M 115.5 149 Q 122.8 147.8 125 151.5 Q 128 153.5 127 159.5 L 124.5 163 Q 121.4 167.9 111.5 166 L 109 163.5 L 109 161.5 L 111 152 L 115.5 149 Z M 118 150 L 114 152 Q 109 155 111 164 L 114 165 L 119 165 L 125 162 L 126 160 L 125 154 Q 124 149 118 150 Z " /><path fill="rgb(133,59,23)" stroke="rgb(133,59,23)" stroke-width="1" opacity="0.18823529411764706" d="M 39.5 151 L 40 167.5 L 39 167.5 Q 40.2 162.8 38 161.5 L 39 156.5 L 39 154.5 L 39.5 151 Z " /><path fill="rgb(133,59,23)" stroke="rgb(133,59,23)" stroke-width="1" opacity="0.18823529411764706" d="M 175 151 L 178 152.5 Q 178.7 155.5 175 154 L 175 151 Z " /><path fill="rgb(133,59,23)" stroke="rgb(133,59,23)" stroke-width="1" opacity="0.18823529411764706" d="M 167.5 152 Q 168.4 157.6 172.5 160 Q 179.9 160.9 182.5 157 L 182.5 158 Q 180.3 162.3 172.5 161 L 168 157.5 L 167.5 152 Z " /><path fill="rgb(133,59,23)" stroke="rgb(133,59,23)" stroke-width="1" opacity="0.18823529411764706" d="M 117.5 155 L 120 156 L 118.5 160 Q 114.1 161.5 115 158.5 L 117.5 155 Z M 117 157 L 117 159 L 119 158 L 117 157 Z " /><path fill="rgb(133,59,23)" stroke="rgb(133,59,23)" stroke-width="1" opacity="0.18823529411764706" d="M 267.5 155 L 271 157 L 274 167.5 L 273 167.5 Q 272 158.8 267.5 155 Z " /><path fill="rgb(133,59,23)" stroke="rgb(133,59,23)" stroke-width="1" opacity="0.18823529411764706" d="M 259.5 157 L 260 171.5 L 259 171.5 L 259.5 157 Z " /><path fill="rgb(133,59,23)" stroke="rgb(133,59,23)" stroke-width="1" opacity="0.18823529411764706" d="M 46.5 158 L 47 160.5 L 46 160.5 L 46.5 158 Z " /><path fill="rgb(133,59,23)" stroke="rgb(133,59,23)" stroke-width="1" opacity="0.18823529411764706" d="M 218.5 160 L 216.5 163 L 207.5 168 L 208.5 166 L 218.5 160 Z " /><path fill="rgb(133,59,23)" stroke="rgb(133,59,23)" stroke-width="1" opacity="0.18823529411764706" d="M 265.5 161 L 267 162.5 L 269 171.5 L 267 170.5 L 266.5 165 L 265 179.5 L 266 179.5 L 267 176 L 269 176.5 L 264.5 182 L 264 177.5 L 265 176.5 L 265.5 161 Z " /><path fill="rgb(133,59,23)" stroke="rgb(133,59,23)" stroke-width="1" opacity="0.18823529411764706" d="M 46.5 162 L 47 168.5 L 46 168.5 L 46.5 162 Z " /><path fill="rgb(133,59,23)" stroke="rgb(133,59,23)" stroke-width="1" opacity="0.18823529411764706" d="M 159.5 165 Q 163.3 164.3 164 166.5 L 165 169.5 Q 161.4 171.4 162 176 L 151.5 181 L 144.5 181 L 144.5 180 Q 157.9 180.9 162 172.5 L 163 167.5 L 160.5 166 L 158 167 L 156 172 L 152.5 174 L 147.5 174 L 147.5 173 Q 154.8 174.3 156 169.5 L 157 166 L 159.5 165 Z " /><path fill="rgb(133,59,23)" stroke="rgb(133,59,23)" stroke-width="1" opacity="0.18823529411764706" d="M 236.5 167 Q 238.8 166.3 238 168.5 L 241.5 173 L 246 176.5 Q 245.3 178.8 247.5 178 L 252 181.5 L 250.5 181 L 245 177.5 L 242.5 174 L 237 169.5 L 236.5 167 Z " /><path fill="rgb(133,59,23)" stroke="rgb(133,59,23)" stroke-width="1" opacity="0.18823529411764706" d="M 135.5 168 L 139 169.5 L 141 172.5 L 136.5 169 L 134 171.5 L 139.5 179 L 143 180.5 L 141.5 180 Q 136 179.6 134 175.5 L 133 171.5 L 135.5 168 Z " /><path fill="rgb(133,59,23)" stroke="rgb(133,59,23)" stroke-width="1" opacity="0.18823529411764706" d="M 40.5 169 Q 41.6 180.9 46 189.5 L 42.5 196 L 42 194.5 L 45 187.5 L 41 180.5 L 41 178.5 L 40.5 169 Z " /><path fill="rgb(133,59,23)" stroke="rgb(133,59,23)" stroke-width="1" opacity="0.18823529411764706" d="M 47.5 170 L 48 174.5 L 47 174.5 L 47.5 170 Z " /><path fill="rgb(133,59,23)" stroke="rgb(133,59,23)" stroke-width="1" opacity="0.18823529411764706" d="M 205.5 171 L 206 179.5 L 205 179.5 L 204 174.5 L 205.5 171 Z " /><path fill="rgb(133,59,23)" stroke="rgb(133,59,23)" stroke-width="1" opacity="0.18823529411764706" d="M 274.5 172 L 275 177.5 L 274 177.5 L 274.5 172 Z " /><path fill="rgb(133,59,23)" stroke="rgb(133,59,23)" stroke-width="1" opacity="0.18823529411764706" d="M 258.5 174 L 259 177.5 L 256.5 184 L 255 183.5 L 257 181.5 L 258.5 174 Z " /><path fill="rgb(133,59,23)" stroke="rgb(133,59,23)" stroke-width="1" opacity="0.18823529411764706" d="M 48.5 176 L 51.5 182 L 55.5 179 L 59 181.5 Q 60.5 185.9 57.5 185 L 54 187 L 60 200 Q 62.7 198.9 62 201.5 L 72.5 214 Q 78.8 221 88 224 Q 86.9 226.7 89.5 226 L 90.5 228 Q 74.3 219.3 63 205.5 L 54 191.5 L 53 187.5 L 58 183.5 Q 59.3 179.8 55.5 181 L 50.5 184 L 48 178.5 L 48.5 176 Z " /><path fill="rgb(133,59,23)" stroke="rgb(133,59,23)" stroke-width="1" opacity="0.18823529411764706" d="M 273.5 179 L 274 180.5 L 269.5 187 L 269 185.5 L 273.5 179 Z " /><path fill="rgb(133,59,23)" stroke="rgb(133,59,23)" stroke-width="1" opacity="0.18823529411764706" d="M 241.5 186 L 248 189.5 L 246.5 190 L 241.5 187 L 238 189.5 L 241.5 186 Z " /><path fill="rgb(133,59,23)" stroke="rgb(133,59,23)" stroke-width="1" opacity="0.18823529411764706" d="M 266.5 188 L 265.5 190 L 266.5 188 Z " /><path fill="rgb(133,59,23)" stroke="rgb(133,59,23)" stroke-width="1" opacity="0.18823529411764706" d="M 210.5 190 L 219 195.5 L 217.5 196 L 211 192.5 L 210.5 190 Z " /><path fill="rgb(133,59,23)" stroke="rgb(133,59,23)" stroke-width="1" opacity="0.18823529411764706" d="M 236.5 190 L 234.5 193 L 221.5 196 L 221.5 195 L 231.5 193 L 236.5 190 Z " /><path fill="rgb(133,59,23)" stroke="rgb(133,59,23)" stroke-width="1" opacity="0.18823529411764706" d="M 249.5 190 L 253 192.5 L 251.5 192 Q 247.5 193 249.5 190 Z " /><path fill="rgb(133,59,23)" stroke="rgb(133,59,23)" stroke-width="1" opacity="0.18823529411764706" d="M 262.5 190 L 259 194.5 L 259.5 196 Q 257.3 195.3 258 197.5 L 247 212.5 L 246 216 L 241 219.5 Q 241.7 222.1 239 221 L 239 223 L 236.5 223 L 235 226 L 232 227.5 Q 232.7 230.1 230 229 L 230 231 L 227.5 231 L 218.5 236 L 218.5 235 L 238 222 Q 236.9 219.3 239.5 220 L 247 210 Q 249.7 211.1 249 208.5 L 260.5 191 L 262.5 190 Z " /><path fill="rgb(133,59,23)" stroke="rgb(133,59,23)" stroke-width="1" opacity="0.18823529411764706" d="M 47 194 Q 49.7 192.9 49 195.5 L 65 218 L 70 221.5 L 60.5 222 Q 52.4 219.1 48 212.5 L 46 209.5 L 45 200.5 L 46 200.5 L 47 209.5 L 50 214 L 59.5 220 L 66.5 221 L 66.5 220 L 64 218.5 L 62 214 Q 59.3 215.1 60 212.5 L 56 210 L 56 207.5 L 48.5 196 L 46.5 199 L 46 196.5 L 47 194 Z " /><path fill="rgb(133,59,23)" stroke="rgb(133,59,23)" stroke-width="1" opacity="0.18823529411764706" d="M 250 194 L 252 194.5 L 248.5 200 L 247 199.5 L 249 199 L 250 194 Z " /><path fill="rgb(133,59,23)" stroke="rgb(133,59,23)" stroke-width="1" opacity="0.18823529411764706" d="M 246.5 201 L 248 201.5 L 234.5 217 L 219.5 228 L 221.5 225 L 238 213 L 243 204 Q 245.7 205.1 245 202.5 L 246.5 201 Z " /><path fill="rgb(133,59,23)" stroke="rgb(133,59,23)" stroke-width="1" opacity="0.18823529411764706" d="M 40.5 202 L 42 212.5 L 50.5 223 L 57.5 227 L 66.5 228 L 68 229.5 L 71.5 236 L 77.5 237 L 80.5 233 L 81 234.5 L 78.5 238 L 72.5 238 L 68 235 L 67 230 L 57 229 Q 58.1 226.3 55.5 227 Q 53.8 223.9 52 225.5 Q 52.8 223.3 50.5 224 L 44 219 L 40 210.5 L 40.5 202 Z " /><path fill="rgb(133,59,23)" stroke="rgb(133,59,23)" stroke-width="1" opacity="0.18823529411764706" d="M 92.5 228 L 112 236.5 L 109.5 237 L 92.5 229 L 92.5 228 Z " /><path fill="rgb(133,59,23)" stroke="rgb(133,59,23)" stroke-width="1" opacity="0.18823529411764706" d="M 217.5 228 L 216.5 230 L 215 229.5 L 217.5 228 Z " /><path fill="rgb(133,59,23)" stroke="rgb(133,59,23)" stroke-width="1" opacity="0.18823529411764706" d="M 81.5 230 L 87 233.5 L 85.5 233 L 81 232 L 81.5 230 Z " /><path fill="rgb(133,59,23)" stroke="rgb(133,59,23)" stroke-width="1" opacity="0.18823529411764706" d="M 212.5 230 L 214 230.5 Q 206.5 235.5 195.5 237 L 195.5 236 L 212.5 230 Z " /><path fill="rgb(133,59,23)" stroke="rgb(133,59,23)" stroke-width="1" opacity="0.18823529411764706" d="M 88.5 234 Q 97.8 240.7 111 243.5 L 107.5 244 L 104.5 242 L 102.5 242 Q 92.1 240.4 88.5 234 Z " /><path fill="rgb(133,59,23)" stroke="rgb(133,59,23)" stroke-width="1" opacity="0.18823529411764706" d="M 216.5 236 L 216 237.5 Q 216.9 240.5 212.5 239 Q 206.4 243.4 196.5 244 L 196.5 243 Q 208.3 241.3 216.5 236 Z " /><path fill="rgb(133,59,23)" stroke="rgb(133,59,23)" stroke-width="1" opacity="0.18823529411764706" d="M 114.5 237 Q 119.9 236.1 122 238.5 L 120.5 239 Q 119.2 236.8 114.5 238 L 114.5 237 Z " /><path fill="rgb(133,59,23)" stroke="rgb(133,59,23)" stroke-width="1" opacity="0.18823529411764706" d="M 189.5 237 L 193 237.5 L 183.5 240 L 176.5 240 L 176.5 239 Q 184.9 239.9 189.5 237 Z " /><path fill="rgb(133,59,23)" stroke="rgb(133,59,23)" stroke-width="1" opacity="0.18823529411764706" d="M 123.5 239 L 126 240.5 L 124.5 241 L 123.5 239 Z " /><path fill="rgb(133,59,23)" stroke="rgb(133,59,23)" stroke-width="1" opacity="0.18823529411764706" d="M 129.5 240 L 131.5 241 L 159.5 241 L 162.5 240 L 164.5 240 L 175 240.5 L 166.5 241 L 165.5 242 L 163.5 242 L 144.5 242 L 143.5 243 L 140.5 242 L 127 241.5 L 129.5 240 Z " /><path fill="rgb(133,59,23)" stroke="rgb(133,59,23)" stroke-width="1" opacity="0.18823529411764706" d="M 112.5 244 L 116 244.5 L 112.5 245 L 112.5 244 Z " /><path fill="rgb(133,59,23)" stroke="rgb(133,59,23)" stroke-width="1" opacity="0.18823529411764706" d="M 192.5 244 L 195 244.5 L 192.5 245 L 192.5 244 Z " /><path fill="rgb(133,59,23)" stroke="rgb(133,59,23)" stroke-width="1" opacity="0.18823529411764706" d="M 117.5 245 L 121 247.5 L 118 256 L 116 255.5 L 119 247.5 L 117 247.5 L 117.5 245 Z " /><path fill="rgb(133,59,23)" stroke="rgb(133,59,23)" stroke-width="1" opacity="0.18823529411764706" d="M 187.5 245 Q 191.9 243.5 191 246.5 L 189.5 246 L 184 248.5 L 187 250.5 L 187 252.5 L 194 265.5 L 193 265.5 L 183 248.5 L 183 246 L 187.5 245 Z " /><path fill="rgb(133,59,23)" stroke="rgb(133,59,23)" stroke-width="1" opacity="0.18823529411764706" d="M 173.5 247 Q 178.9 245.1 178 248.5 L 189 269.5 L 189 272 Q 185.3 273.4 187 267.5 L 182 260.5 L 179 251 Q 176 252.3 177 248.5 L 175.5 249 L 150.5 250 L 148.5 251 L 141.5 250 L 139.5 251 L 136.5 250 L 125 250 L 125 254 Q 122 252.8 123 256.5 L 122 256.5 Q 122.3 250.8 125.5 248 L 127.5 249 L 158.5 249 L 159.5 248 L 172.5 248 L 173.5 247 Z " /><path fill="rgb(133,59,23)" stroke="rgb(133,59,23)" stroke-width="1" opacity="0.18823529411764706" d="M 115.5 259 L 116 260.5 L 113.5 265 L 113 263.5 L 115.5 259 Z " /><path fill="rgb(133,59,23)" stroke="rgb(133,59,23)" stroke-width="1" opacity="0.18823529411764706" d="M 119.5 262 L 120 264.5 L 119 267.5 L 116 273.5 L 120 274.5 L 115 275 L 119.5 262 Z " /><path fill="rgb(133,59,23)" stroke="rgb(133,59,23)" stroke-width="1" opacity="0.18823529411764706" d="M 194.5 267 L 195.5 269 L 194.5 267 Z " /><path fill="rgb(133,59,23)" stroke="rgb(133,59,23)" stroke-width="1" opacity="0.18823529411764706" d="M 197.5 267 L 204 267.5 L 197.5 268 L 197.5 267 Z " /><path fill="rgb(133,59,23)" stroke="rgb(133,59,23)" stroke-width="1" opacity="0.18823529411764706" d="M 205.5 267 L 213 270 L 215 275.5 L 210.5 282 L 202.5 285 L 200.5 285 L 190.5 284 L 186 279.5 L 186.5 278 L 188.5 281 L 191.5 283 L 205.5 283 L 212 279.5 L 213 272.5 L 206.5 269 L 205.5 267 Z " /><path fill="rgb(133,59,23)" stroke="rgb(133,59,23)" stroke-width="1" opacity="0.18823529411764706" d="M 111.5 268 L 112 269.5 L 108.5 276 Q 101.1 277.1 98 282.5 Q 96.8 287.8 99.5 289 L 102 290.5 L 99.5 291 L 96 284.5 L 100.5 278 L 109 273.5 L 111.5 268 Z " /><path fill="rgb(133,59,23)" stroke="rgb(133,59,23)" stroke-width="1" opacity="0.18823529411764706" d="M 123.5 276 L 129 282.5 L 127 288 L 122.5 290 L 122.5 289 L 126 286.5 L 127 281.5 L 123.5 276 Z " /><path fill="rgb(133,59,23)" stroke="rgb(133,59,23)" stroke-width="1" opacity="0.18823529411764706" d="M 105.5 291 L 113.5 292 L 118.5 291 L 118.5 292 L 110.5 294 L 106.5 293 L 105.5 291 Z " /><path fill="rgb(141,67,32)" stroke="rgb(141,67,32)" stroke-width="1" opacity="0.9882352941176471" d="M 129.5 27 L 130 37.5 L 128 46.5 L 123 57 L 121.5 57 L 103.5 74 L 84 88.5 Q 84.8 90.8 82.5 90 L 73 97 L 71.5 100 L 65 105.5 L 63 110 Q 60.3 108.9 61 111.5 L 54 120.5 L 46 139.5 L 44 149.5 L 44 164.5 L 45 165.5 L 46 176.5 L 50.5 186 L 55.5 183 L 55.5 184 L 52 186.5 L 52 190.5 L 56 197.5 Q 62.8 208.7 72.5 217 L 94.5 232 L 103.5 236 L 106.5 236 L 110.5 239 L 121.5 240 L 124.5 243 L 138.5 243 L 139.5 244 L 141.5 243 L 144.5 244 L 168.5 243 L 169.5 242 L 179.5 242 L 180.5 241 L 191.5 240 L 210.5 234 L 223 227.5 Q 222.2 224.9 225.5 226 L 241 212.5 L 243 209.5 L 251 199.5 L 254 191.5 L 243.5 185 L 240.5 185 L 231.5 192 L 223.5 194 L 217.5 194 L 212 191 L 207 179.5 L 207 171.5 L 210.5 167 L 220 162 L 219 148.5 L 220 146 L 223.5 146 L 230 152.5 L 236.5 170 L 239 171.5 L 246.5 180 L 256.5 185 L 260 180.5 L 261 154.5 L 255 130.5 Q 248.7 114.3 236.5 104 L 233.5 102 Q 226.7 92.8 216 89 Q 217.1 86.3 214.5 87 L 200.5 78 L 168.5 63 Q 162 56.5 153 54 L 153 52 L 151 52 L 151 50 Q 148.3 51.1 149 48.5 L 137 37.5 L 133 27.5 L 135 28.5 L 142.5 39 L 147.5 43 L 153.5 49 L 168.5 59 L 193.5 70 L 206.5 78 L 209 78 Q 207.9 80.7 210.5 80 L 218.5 86 L 221 86 Q 219.9 88.7 222.5 88 L 230 93 Q 228.9 95.7 231.5 95 L 248 110.5 L 250 113.5 L 259 130.5 L 264 150.5 L 264 152.5 Q 263.5 156.5 266.5 157 L 270 159.5 L 273 169.5 L 273 177.5 Q 271.5 184 266.5 187 L 258 191 L 255 198.5 L 243 215 Q 240.3 213.9 241 216.5 L 229 226 Q 230.1 228.7 227.5 228 L 208.5 239 L 197.5 241 L 189.5 244 L 185.5 244 L 181 246.5 L 189 262.5 L 194.5 270 L 207.5 270 L 211 272 L 212 276.5 L 211 279 L 201.5 282 L 194.5 282 L 188 277.5 Q 187 271.5 191 270.5 L 178.5 246 L 157.5 247 L 156.5 248 L 129.5 248 L 124 247 L 116 266.5 L 114 275.5 L 117.5 277 Q 124 276 125 280.5 L 126 284.5 Q 120.9 292.4 105.5 290 L 99 286.5 L 100 281 L 111 275.5 L 122 246.5 L 118.5 243 L 109.5 242 L 100.5 239 L 80 228 L 79 233.5 L 76.5 236 L 71 234 L 69 230.5 L 69 227 L 61.5 227 Q 52.8 223.8 47 217.5 L 43 211.5 L 43 197.5 L 44.5 195 L 45 198.5 L 44 199.5 L 44 207.5 L 48.5 215 Q 51.1 214.3 50 217 L 52 217 L 52 218.5 L 59.5 223 L 69.5 224 L 71 220.5 L 59 208.5 L 48.5 192 L 45.5 194 L 46 192.5 L 47 186.5 L 44 180.5 L 41 163.5 L 41 159.5 L 42 146.5 L 45 138.5 L 45 134.5 L 54 115 Q 56.7 116.1 56 113.5 L 60.5 107 L 62 107 L 62 105 L 64 105 L 64 103 Q 66.7 104.1 66 101.5 L 78 91.5 Q 77.3 89.3 79.5 90 L 115 62 Q 113.9 59.3 116.5 60 L 126 47.5 L 129 35.5 L 129.5 27 Z M 266 159 L 264 161 L 264 174 L 262 184 L 266 183 L 270 178 L 270 170 L 266 159 Z " /><path fill="rgb(141,67,32)" stroke="rgb(141,67,32)" stroke-width="1" opacity="0.9882352941176471" d="M 238.5 70 Q 242.5 69.5 243 72.5 Q 242.5 76.5 245.5 77 Q 249.3 76.3 250 78.5 L 246 90.5 L 247 92.5 L 246 95 Q 242.2 96.5 243 93.5 L 237.5 87 Q 233.8 87.8 233 85.5 L 237 77.5 Q 235.5 71.5 238.5 70 Z M 240 81 L 243 85 Q 246 86 244 82 L 240 81 Z " /><path fill="rgb(141,67,32)" stroke="rgb(141,67,32)" stroke-width="1" opacity="0.9882352941176471" d="M 42.5 104 L 45 104 L 45 109.5 L 47.5 113 L 51 114.5 L 51 117.5 L 48 120.5 L 43.5 130 Q 38.9 131.3 41 125.5 L 42 124.5 L 38.5 121 L 35 120 Q 34 116.2 36.5 115 L 39 113.5 L 42.5 104 Z M 42 116 L 44 119 L 44 118 L 42 116 Z " /><path fill="rgb(141,67,32)" stroke="rgb(141,67,32)" stroke-width="1" opacity="0.9882352941176471" d="M 184.5 123 Q 188.3 122 187 125 L 165.5 134 L 164.5 132 L 184.5 123 Z " /><path fill="rgb(141,67,32)" stroke="rgb(141,67,32)" stroke-width="1" opacity="0.9882352941176471" d="M 107.5 131 L 121.5 134 L 127 137.5 L 122.5 138 Q 119.2 135.3 112.5 136 L 106 132.5 L 107.5 131 Z " /><path fill="rgb(141,67,32)" stroke="rgb(141,67,32)" stroke-width="1" opacity="0.9882352941176471" d="M 174.5 147 L 179.5 147 Q 178.9 149.8 182 149 L 182 156 L 175.5 159 L 173.5 159 L 170 155.5 Q 168.8 149.3 172.5 148 L 174.5 147 Z M 175 149 L 175 151 L 173 153 L 177 156 L 179 155 L 180 153 L 179 150 L 175 149 Z " /><path fill="rgb(141,67,32)" stroke="rgb(141,67,32)" stroke-width="1" opacity="0.9882352941176471" d="M 117.5 151 L 124 153 L 125 160 L 123 160 Q 124.1 162.7 121.5 162 Q 119.2 164.7 113.5 164 Q 110.5 162.5 112 156.5 L 115.5 152 L 117.5 151 Z M 118 154 L 114 156 Q 113 160 116 161 L 121 160 Q 123 161 122 158 L 118 154 Z " /><path fill="rgb(141,67,32)" stroke="rgb(141,67,32)" stroke-width="1" opacity="0.9882352941176471" d="M 160.5 168 L 162 168.5 L 158 176 L 148.5 179 L 145.5 178 Q 137.6 178.9 136 173.5 L 136.5 171 L 140.5 175 L 150.5 176 L 157 173 L 160.5 168 Z " /><path fill="rgb(138,63,30)" stroke="rgb(138,63,30)" stroke-width="1" opacity="0.9019607843137255" d="M 129.5 26 L 131 27.5 L 131 36.5 L 130 36.5 L 129.5 27 L 128.5 36 L 128 27.5 L 129.5 26 Z " /><path fill="rgb(138,63,30)" stroke="rgb(138,63,30)" stroke-width="1" opacity="0.9019607843137255" d="M 133.5 26 Q 135.8 25.3 135 27.5 L 133 27.5 Q 136.2 40.8 146.5 47 L 149 48.5 Q 148.3 51.1 151 50 L 151 52 L 152.5 52 L 152.5 53 L 141 44 L 136 37.5 L 132 27.5 L 133.5 26 Z " /><path fill="rgb(138,63,30)" stroke="rgb(138,63,30)" stroke-width="1" opacity="0.9019607843137255" d="M 135.5 29 L 139 33.5 L 136 31.5 L 135.5 29 Z " /><path fill="rgb(138,63,30)" stroke="rgb(138,63,30)" stroke-width="1" opacity="0.9019607843137255" d="M 139.5 35 L 142.5 39 L 139.5 35 Z " /><path fill="rgb(138,63,30)" stroke="rgb(138,63,30)" stroke-width="1" opacity="0.9019607843137255" d="M 129.5 38 L 130 41.5 L 129 41.5 L 129.5 38 Z " /><path fill="rgb(138,63,30)" stroke="rgb(138,63,30)" stroke-width="1" opacity="0.9019607843137255" d="M 126.5 42 L 127 44.5 L 126 44.5 L 126.5 42 Z " /><path fill="rgb(138,63,30)" stroke="rgb(138,63,30)" stroke-width="1" opacity="0.9019607843137255" d="M 128.5 43 L 129 45.5 L 128 45.5 L 128.5 43 Z " /><path fill="rgb(138,63,30)" stroke="rgb(138,63,30)" stroke-width="1" opacity="0.9019607843137255" d="M 148.5 43 L 153.5 49 L 148.5 43 Z " /><path fill="rgb(138,63,30)" stroke="rgb(138,63,30)" stroke-width="1" opacity="0.9019607843137255" d="M 125.5 46 L 126 47.5 L 123.5 51 L 124 49.5 L 125.5 46 Z " /><path fill="rgb(138,63,30)" stroke="rgb(138,63,30)" stroke-width="1" opacity="0.9019607843137255" d="M 126.5 49 L 127 50.5 L 124.5 54 L 125 52.5 L 126.5 49 Z " /><path fill="rgb(138,63,30)" stroke="rgb(138,63,30)" stroke-width="1" opacity="0.9019607843137255" d="M 155.5 49 L 156.5 51 L 155.5 49 Z " /><path fill="rgb(138,63,30)" stroke="rgb(138,63,30)" stroke-width="1" opacity="0.9019607843137255" d="M 158.5 51 L 172 59.5 L 170.5 60 L 161.5 55 L 158.5 51 Z " /><path fill="rgb(138,63,30)" stroke="rgb(138,63,30)" stroke-width="1" opacity="0.9019607843137255" d="M 121.5 53 L 120.5 55 L 121.5 53 Z " /><path fill="rgb(138,63,30)" stroke="rgb(138,63,30)" stroke-width="1" opacity="0.9019607843137255" d="M 154.5 54 L 168 62.5 L 166.5 62 L 155.5 56 L 154.5 54 Z " /><path fill="rgb(138,63,30)" stroke="rgb(138,63,30)" stroke-width="1" opacity="0.9019607843137255" d="M 119.5 56 L 116.5 60 L 119.5 56 Z " /><path fill="rgb(138,63,30)" stroke="rgb(138,63,30)" stroke-width="1" opacity="0.9019607843137255" d="M 121.5 57 L 111.5 68 L 105.5 73 L 110.5 67 L 121.5 57 Z " /><path fill="rgb(138,63,30)" stroke="rgb(138,63,30)" stroke-width="1" opacity="0.9019607843137255" d="M 114.5 60 L 115 62 L 87.5 84 L 91.5 79 Q 104.6 71.1 114.5 60 Z " /><path fill="rgb(138,63,30)" stroke="rgb(138,63,30)" stroke-width="1" opacity="0.9019607843137255" d="M 173.5 60 L 184 65.5 L 182.5 66 L 173.5 61 L 173.5 60 Z " /><path fill="rgb(138,63,30)" stroke="rgb(138,63,30)" stroke-width="1" opacity="0.9019607843137255" d="M 176.5 66 L 190 73.5 L 188.5 73 L 177.5 68 L 176.5 66 Z " /><path fill="rgb(138,63,30)" stroke="rgb(138,63,30)" stroke-width="1" opacity="0.9019607843137255" d="M 194.5 70 L 205 76.5 L 203.5 76 L 195.5 72 L 194.5 70 Z " /><path fill="rgb(138,63,30)" stroke="rgb(138,63,30)" stroke-width="1" opacity="0.9019607843137255" d="M 241.5 70 L 242.5 72 L 241.5 70 Z " /><path fill="rgb(138,63,30)" stroke="rgb(138,63,30)" stroke-width="1" opacity="0.9019607843137255" d="M 102.5 74 L 99.5 78 L 94.5 82 L 98.5 77 L 102.5 74 Z " /><path fill="rgb(138,63,30)" stroke="rgb(138,63,30)" stroke-width="1" opacity="0.9019607843137255" d="M 195.5 76 L 207 82.5 L 205.5 82 L 195.5 77 L 195.5 76 Z " /><path fill="rgb(138,63,30)" stroke="rgb(138,63,30)" stroke-width="1" opacity="0.9019607843137255" d="M 209.5 79 L 219 85.5 L 215.5 83 L 209.5 80 L 209.5 79 Z " /><path fill="rgb(138,63,30)" stroke="rgb(138,63,30)" stroke-width="1" opacity="0.9019607843137255" d="M 234.5 81 L 233.5 83 L 234.5 81 Z " /><path fill="rgb(138,63,30)" stroke="rgb(138,63,30)" stroke-width="1" opacity="0.9019607843137255" d="M 239.5 81 L 242 81.5 Q 239.8 82.8 242.5 84 L 244 84.5 L 242.5 85 L 239.5 81 Z " /><path fill="rgb(138,63,30)" stroke="rgb(138,63,30)" stroke-width="1" opacity="0.9019607843137255" d="M 92.5 82 L 90.5 85 L 84.5 89 L 85.5 87 L 92.5 82 Z " /><path fill="rgb(138,63,30)" stroke="rgb(138,63,30)" stroke-width="1" opacity="0.9019607843137255" d="M 208.5 83 L 216 87 Q 214.9 89.7 217.5 89 L 235 102 L 234.5 104 Q 224.1 92.4 209.5 85 L 208.5 83 Z " /><path fill="rgb(138,63,30)" stroke="rgb(138,63,30)" stroke-width="1" opacity="0.9019607843137255" d="M 85.5 84 L 83.5 87 L 85.5 84 Z " /><path fill="rgb(138,63,30)" stroke="rgb(138,63,30)" stroke-width="1" opacity="0.9019607843137255" d="M 221.5 86 L 223.5 89 L 221 88 L 221.5 86 Z " /><path fill="rgb(138,63,30)" stroke="rgb(138,63,30)" stroke-width="1" opacity="0.9019607843137255" d="M 81.5 87 L 79.5 90 Q 77.3 89.3 78 91.5 L 73.5 95 L 78.5 89 L 81.5 87 Z " /><path fill="rgb(138,63,30)" stroke="rgb(138,63,30)" stroke-width="1" opacity="0.9019607843137255" d="M 237.5 87 L 241.5 92 L 237.5 87 Z " /><path fill="rgb(138,63,30)" stroke="rgb(138,63,30)" stroke-width="1" opacity="0.9019607843137255" d="M 246.5 88 L 247 90.5 L 246 90.5 L 246.5 88 Z " /><path fill="rgb(138,63,30)" stroke="rgb(138,63,30)" stroke-width="1" opacity="0.9019607843137255" d="M 225.5 89 L 228.5 93 L 225.5 89 Z " /><path fill="rgb(138,63,30)" stroke="rgb(138,63,30)" stroke-width="1" opacity="0.9019607843137255" d="M 82.5 90 L 80.5 93 L 73.5 98 L 73.5 97 L 82.5 90 Z " /><path fill="rgb(138,63,30)" stroke="rgb(138,63,30)" stroke-width="1" opacity="0.9019607843137255" d="M 71.5 95 L 66 101.5 L 64 104.5 L 63 104.5 L 71.5 95 Z " /><path fill="rgb(138,63,30)" stroke="rgb(138,63,30)" stroke-width="1" opacity="0.9019607843137255" d="M 232.5 95 L 236 97 Q 234.9 99.7 237.5 99 L 247.5 110 L 232.5 95 Z " /><path fill="rgb(138,63,30)" stroke="rgb(138,63,30)" stroke-width="1" opacity="0.9019607843137255" d="M 70.5 100 L 65.5 106 L 70.5 100 Z " /><path fill="rgb(138,63,30)" stroke="rgb(138,63,30)" stroke-width="1" opacity="0.9019607843137255" d="M 42.5 103 L 45 103.5 L 41 105.5 L 40.5 111 L 40 105.5 L 42.5 103 Z " /><path fill="rgb(138,63,30)" stroke="rgb(138,63,30)" stroke-width="1" opacity="0.9019607843137255" d="M 236.5 104 Q 250.6 115.4 256 135.5 L 255 135.5 L 254 130.5 L 248 118.5 L 242 110 L 240 110 Q 241.1 107.3 238.5 108 L 236.5 104 Z " /><path fill="rgb(138,63,30)" stroke="rgb(138,63,30)" stroke-width="1" opacity="0.9019607843137255" d="M 58.5 109 L 58 110.5 L 56.5 113 L 57 111.5 L 58.5 109 Z " /><path fill="rgb(138,63,30)" stroke="rgb(138,63,30)" stroke-width="1" opacity="0.9019607843137255" d="M 46.5 111 L 47.5 113 L 46.5 111 Z " /><path fill="rgb(138,63,30)" stroke="rgb(138,63,30)" stroke-width="1" opacity="0.9019607843137255" d="M 60.5 112 L 58 115.5 L 53.5 124 L 53 122.5 L 60.5 112 Z " /><path fill="rgb(138,63,30)" stroke="rgb(138,63,30)" stroke-width="1" opacity="0.9019607843137255" d="M 38.5 113 L 37.5 115 L 38.5 113 Z " /><path fill="rgb(138,63,30)" stroke="rgb(138,63,30)" stroke-width="1" opacity="0.9019607843137255" d="M 251.5 115 L 253 117.5 L 252 117.5 L 251.5 115 Z " /><path fill="rgb(138,63,30)" stroke="rgb(138,63,30)" stroke-width="1" opacity="0.9019607843137255" d="M 42.5 116 L 44 118.5 L 42 117.5 L 42.5 116 Z " /><path fill="rgb(138,63,30)" stroke="rgb(138,63,30)" stroke-width="1" opacity="0.9019607843137255" d="M 52.5 118 L 53 119.5 L 49.5 125 L 50 123.5 L 52.5 118 Z " /><path fill="rgb(138,63,30)" stroke="rgb(138,63,30)" stroke-width="1" opacity="0.9019607843137255" d="M 49.5 119 L 48.5 121 L 49.5 119 Z " /><path fill="rgb(138,63,30)" stroke="rgb(138,63,30)" stroke-width="1" opacity="0.9019607843137255" d="M 253.5 119 L 259 129.5 L 258 129.5 L 253.5 119 Z " /><path fill="rgb(138,63,30)" stroke="rgb(138,63,30)" stroke-width="1" opacity="0.9019607843137255" d="M 40.5 123 L 41.5 125 L 40.5 123 Z " /><path fill="rgb(138,63,30)" stroke="rgb(138,63,30)" stroke-width="1" opacity="0.9019607843137255" d="M 187.5 123 L 188 124.5 L 184.5 127 L 185.5 125 Q 188 125.7 187.5 123 Z " /><path fill="rgb(138,63,30)" stroke="rgb(138,63,30)" stroke-width="1" opacity="0.9019607843137255" d="M 177.5 125 L 179 125.5 L 164 132.5 Q 165.3 135.3 166.5 133 L 169.5 132 L 169.5 133 L 165.5 135 L 163 134 L 165.5 130 L 177.5 125 Z " /><path fill="rgb(138,63,30)" stroke="rgb(138,63,30)" stroke-width="1" opacity="0.9019607843137255" d="M 40.5 126 L 41 128.5 L 40 128.5 L 40.5 126 Z " /><path fill="rgb(138,63,30)" stroke="rgb(138,63,30)" stroke-width="1" opacity="0.9019607843137255" d="M 51.5 127 L 52 128.5 L 50.5 131 L 50 129.5 L 51.5 127 Z " /><path fill="rgb(138,63,30)" stroke="rgb(138,63,30)" stroke-width="1" opacity="0.9019607843137255" d="M 180.5 127 L 182 127.5 L 178.5 129 L 178.5 128 L 180.5 127 Z " /><path fill="rgb(138,63,30)" stroke="rgb(138,63,30)" stroke-width="1" opacity="0.9019607843137255" d="M 175.5 129 L 177 129.5 L 171.5 132 L 171.5 131 L 175.5 129 Z " /><path fill="rgb(138,63,30)" stroke="rgb(138,63,30)" stroke-width="1" opacity="0.9019607843137255" d="M 105 131 L 107 131.5 Q 104.8 132.8 107.5 134 L 111 134.5 L 107.5 135 L 105 131 Z " /><path fill="rgb(138,63,30)" stroke="rgb(138,63,30)" stroke-width="1" opacity="0.9019607843137255" d="M 49.5 132 L 50 134.5 L 46.5 143 L 46 139.5 L 49.5 132 Z " /><path fill="rgb(138,63,30)" stroke="rgb(138,63,30)" stroke-width="1" opacity="0.9019607843137255" d="M 113.5 132 L 116 132.5 L 113.5 133 L 113.5 132 Z " /><path fill="rgb(138,63,30)" stroke="rgb(138,63,30)" stroke-width="1" opacity="0.9019607843137255" d="M 117.5 133 L 120 133.5 L 117.5 134 L 117.5 133 Z " /><path fill="rgb(138,63,30)" stroke="rgb(138,63,30)" stroke-width="1" opacity="0.9019607843137255" d="M 124.5 135 L 127 136.5 L 125.5 136 L 124.5 135 Z " /><path fill="rgb(138,63,30)" stroke="rgb(138,63,30)" stroke-width="1" opacity="0.9019607843137255" d="M 260.5 135 L 261 137.5 L 260 137.5 L 260.5 135 Z " /><path fill="rgb(138,63,30)" stroke="rgb(138,63,30)" stroke-width="1" opacity="0.9019607843137255" d="M 44.5 136 L 45 138.5 L 44 138.5 L 44.5 136 Z " /><path fill="rgb(138,63,30)" stroke="rgb(138,63,30)" stroke-width="1" opacity="0.9019607843137255" d="M 114.5 136 L 118 136.5 L 114.5 137 L 114.5 136 Z " /><path fill="rgb(138,63,30)" stroke="rgb(138,63,30)" stroke-width="1" opacity="0.9019607843137255" d="M 119.5 137 L 122 137.5 L 119.5 138 L 119.5 137 Z " /><path fill="rgb(138,63,30)" stroke="rgb(138,63,30)" stroke-width="1" opacity="0.9019607843137255" d="M 256.5 137 L 257 139.5 L 256 139.5 L 256.5 137 Z " /><path fill="rgb(138,63,30)" stroke="rgb(138,63,30)" stroke-width="1" opacity="0.9019607843137255" d="M 124.5 138 L 127 138.5 L 124.5 139 L 124.5 138 Z " /><path fill="rgb(138,63,30)" stroke="rgb(138,63,30)" stroke-width="1" opacity="0.9019607843137255" d="M 257.5 141 L 260 147.5 L 261 164.5 L 260 164.5 L 260 154.5 L 257.5 141 Z " /><path fill="rgb(138,63,30)" stroke="rgb(138,63,30)" stroke-width="1" opacity="0.9019607843137255" d="M 42.5 143 L 43 145.5 L 42 145.5 L 42.5 143 Z " /><path fill="rgb(138,63,30)" stroke="rgb(138,63,30)" stroke-width="1" opacity="0.9019607843137255" d="M 45.5 144 L 46 147.5 L 45 147.5 L 45.5 144 Z " /><path fill="rgb(138,63,30)" stroke="rgb(138,63,30)" stroke-width="1" opacity="0.9019607843137255" d="M 220.5 145 L 223.5 145 L 229 150.5 L 223.5 146 Q 219.1 144.5 220 147.5 L 218.5 154 L 218 148.5 L 220.5 145 Z " /><path fill="rgb(138,63,30)" stroke="rgb(138,63,30)" stroke-width="1" opacity="0.9019607843137255" d="M 174.5 146 Q 181.8 144.8 183 149.5 L 182.5 155 L 182 149 Q 178.9 149.8 179.5 147 L 174.5 147 L 170.5 150 L 172.5 147 L 174.5 146 Z " /><path fill="rgb(138,63,30)" stroke="rgb(138,63,30)" stroke-width="1" opacity="0.9019607843137255" d="M 41.5 147 L 42 155.5 L 41 159.5 L 42 164.5 L 41.5 171 L 40 163.5 L 40 159.5 L 41.5 147 Z " /><path fill="rgb(138,63,30)" stroke="rgb(138,63,30)" stroke-width="1" opacity="0.9019607843137255" d="M 263.5 147 L 264 149.5 L 263 149.5 L 263.5 147 Z " /><path fill="rgb(138,63,30)" stroke="rgb(138,63,30)" stroke-width="1" opacity="0.9019607843137255" d="M 44.5 149 L 45 164.5 L 44 164.5 L 44.5 149 Z " /><path fill="rgb(138,63,30)" stroke="rgb(138,63,30)" stroke-width="1" opacity="0.9019607843137255" d="M 175.5 149 L 179 150 L 180 152.5 L 176.5 150 L 175.5 149 Z " /><path fill="rgb(138,63,30)" stroke="rgb(138,63,30)" stroke-width="1" opacity="0.9019607843137255" d="M 119.5 151 L 123 152.5 L 121.5 152 Q 118.5 152.5 119.5 151 Z " /><path fill="rgb(138,63,30)" stroke="rgb(138,63,30)" stroke-width="1" opacity="0.9019607843137255" d="M 169.5 151 Q 169.1 157 173 158.5 L 169 155.5 L 169.5 151 Z " /><path fill="rgb(138,63,30)" stroke="rgb(138,63,30)" stroke-width="1" opacity="0.9019607843137255" d="M 174.5 151 Q 172.8 153 176.5 155 L 178.5 154 L 178.5 155 L 176.5 156 L 173 152.5 L 174.5 151 Z " /><path fill="rgb(138,63,30)" stroke="rgb(138,63,30)" stroke-width="1" opacity="0.9019607843137255" d="M 114.5 152 L 113 154.5 L 112.5 156 L 112 154.5 L 114.5 152 Z " /><path fill="rgb(138,63,30)" stroke="rgb(138,63,30)" stroke-width="1" opacity="0.9019607843137255" d="M 264.5 154 L 266.5 157 L 264.5 154 Z " /><path fill="rgb(138,63,30)" stroke="rgb(138,63,30)" stroke-width="1" opacity="0.9019607843137255" d="M 219.5 155 L 220 157.5 L 219 157.5 L 219.5 155 Z " /><path fill="rgb(138,63,30)" stroke="rgb(138,63,30)" stroke-width="1" opacity="0.9019607843137255" d="M 114.5 156 L 116 160.5 L 114 159.5 L 114.5 156 Z " /><path fill="rgb(138,63,30)" stroke="rgb(138,63,30)" stroke-width="1" opacity="0.9019607843137255" d="M 180.5 156 L 178.5 159 L 176 158.5 L 180.5 156 Z " /><path fill="rgb(138,63,30)" stroke="rgb(138,63,30)" stroke-width="1" opacity="0.9019607843137255" d="M 111.5 157 L 113 163.5 L 111 162.5 L 111.5 157 Z " /><path fill="rgb(138,63,30)" stroke="rgb(138,63,30)" stroke-width="1" opacity="0.9019607843137255" d="M 121.5 157 L 122 159.5 L 121 159.5 L 121.5 157 Z " /><path fill="rgb(138,63,30)" stroke="rgb(138,63,30)" stroke-width="1" opacity="0.9019607843137255" d="M 265.5 159 L 267 161.5 L 266 161.5 L 265.5 160 L 264 160.5 L 265.5 159 Z " /><path fill="rgb(138,63,30)" stroke="rgb(138,63,30)" stroke-width="1" opacity="0.9019607843137255" d="M 217.5 162 L 215.5 165 L 213.5 166 L 215.5 163 L 217.5 162 Z " /><path fill="rgb(138,63,30)" stroke="rgb(138,63,30)" stroke-width="1" opacity="0.9019607843137255" d="M 234.5 164 L 237 169.5 L 235 168.5 L 234.5 164 Z " /><path fill="rgb(138,63,30)" stroke="rgb(138,63,30)" stroke-width="1" opacity="0.9019607843137255" d="M 159 167 L 163 168.5 L 158.5 175 L 160 172.5 L 162 168.5 L 160.5 168 L 157 173 L 152.5 175 L 153.5 173 L 159 168.5 L 159 167 Z " /><path fill="rgb(138,63,30)" stroke="rgb(138,63,30)" stroke-width="1" opacity="0.9019607843137255" d="M 209.5 167 L 208 169.5 Q 205.7 172.7 207 179.5 L 211 187.5 L 209 186.5 Q 204.8 181.7 206 171.5 L 209.5 167 Z " /><path fill="rgb(138,63,30)" stroke="rgb(138,63,30)" stroke-width="1" opacity="0.9019607843137255" d="M 268.5 167 Q 271.5 170 270 177.5 L 267 179.5 Q 271 177.5 269 169.5 L 268.5 167 Z " /><path fill="rgb(138,63,30)" stroke="rgb(138,63,30)" stroke-width="1" opacity="0.9019607843137255" d="M 45.5 168 L 46 171.5 L 45 171.5 L 45.5 168 Z " /><path fill="rgb(138,63,30)" stroke="rgb(138,63,30)" stroke-width="1" opacity="0.9019607843137255" d="M 135 170 L 143 174.5 L 140.5 175 L 136 171.5 Q 135.5 176.5 139.5 177 L 146 178.5 L 141.5 179 L 136 176 L 135 170 Z " /><path fill="rgb(138,63,30)" stroke="rgb(138,63,30)" stroke-width="1" opacity="0.9019607843137255" d="M 260.5 170 L 261 173.5 Q 258.5 175 260 180.5 L 256.5 185 L 251 182.5 L 252.5 183 L 256.5 184 L 259 180.5 Q 258.3 173.8 260.5 170 Z " /><path fill="rgb(138,63,30)" stroke="rgb(138,63,30)" stroke-width="1" opacity="0.9019607843137255" d="M 42.5 172 L 44 179.5 L 43 179.5 L 42.5 172 Z " /><path fill="rgb(138,63,30)" stroke="rgb(138,63,30)" stroke-width="1" opacity="0.9019607843137255" d="M 239.5 172 L 246.5 180 L 239.5 172 Z " /><path fill="rgb(138,63,30)" stroke="rgb(138,63,30)" stroke-width="1" opacity="0.9019607843137255" d="M 46.5 173 L 50 183.5 L 49 183.5 L 46 176.5 L 46.5 173 Z " /><path fill="rgb(138,63,30)" stroke="rgb(138,63,30)" stroke-width="1" opacity="0.9019607843137255" d="M 263.5 174 L 264 177.5 L 263 177.5 L 263.5 174 Z " /><path fill="rgb(138,63,30)" stroke="rgb(138,63,30)" stroke-width="1" opacity="0.9019607843137255" d="M 144.5 175 L 151 175.5 L 144.5 176 L 144.5 175 Z " /><path fill="rgb(138,63,30)" stroke="rgb(138,63,30)" stroke-width="1" opacity="0.9019607843137255" d="M 149.5 178 L 153 178.5 L 149.5 179 L 149.5 178 Z " /><path fill="rgb(138,63,30)" stroke="rgb(138,63,30)" stroke-width="1" opacity="0.9019607843137255" d="M 262.5 180 L 263.5 183 L 265.5 182 L 265.5 183 L 262 184 L 262.5 180 Z " /><path fill="rgb(138,63,30)" stroke="rgb(138,63,30)" stroke-width="1" opacity="0.9019607843137255" d="M 54.5 182 L 58 182.5 L 52.5 187 L 52.5 185 L 50.5 186 L 51.5 184 L 54.5 182 Z " /><path fill="rgb(138,63,30)" stroke="rgb(138,63,30)" stroke-width="1" opacity="0.9019607843137255" d="M 45.5 184 L 47 187.5 L 46 187.5 L 45.5 184 Z " /><path fill="rgb(138,63,30)" stroke="rgb(138,63,30)" stroke-width="1" opacity="0.9019607843137255" d="M 269.5 184 L 266.5 188 L 260.5 191 L 261.5 189 L 263.5 189 L 269.5 184 Z " /><path fill="rgb(138,63,30)" stroke="rgb(138,63,30)" stroke-width="1" opacity="0.9019607843137255" d="M 240.5 185 L 236.5 190 L 234.5 191 L 235.5 189 L 240.5 185 Z " /><path fill="rgb(138,63,30)" stroke="rgb(138,63,30)" stroke-width="1" opacity="0.9019607843137255" d="M 242.5 185 L 254 191.5 L 252.5 191 Q 245.2 189.1 242.5 185 Z " /><path fill="rgb(138,63,30)" stroke="rgb(138,63,30)" stroke-width="1" opacity="0.9019607843137255" d="M 46.5 189 L 47 190.5 L 46 192.5 L 47.5 192 L 50 193.5 L 57 204.5 L 55 203.5 L 49 193 L 46 194.5 L 45.5 197 L 44 194.5 L 46 193.5 L 45 191.5 L 46.5 189 Z " /><path fill="rgb(138,63,30)" stroke="rgb(138,63,30)" stroke-width="1" opacity="0.9019607843137255" d="M 52.5 189 L 56 195.5 L 54 194.5 L 52.5 189 Z " /><path fill="rgb(138,63,30)" stroke="rgb(138,63,30)" stroke-width="1" opacity="0.9019607843137255" d="M 213.5 191 L 214.5 193 L 213.5 191 Z " /><path fill="rgb(138,63,30)" stroke="rgb(138,63,30)" stroke-width="1" opacity="0.9019607843137255" d="M 228.5 192 L 231 192.5 L 228.5 193 L 228.5 192 Z " /><path fill="rgb(138,63,30)" stroke="rgb(138,63,30)" stroke-width="1" opacity="0.9019607843137255" d="M 257.5 193 L 257 194.5 L 255.5 198 L 255 196.5 L 257.5 193 Z " /><path fill="rgb(138,63,30)" stroke="rgb(138,63,30)" stroke-width="1" opacity="0.9019607843137255" d="M 218.5 194 L 222 194.5 L 218.5 195 L 218.5 194 Z " /><path fill="rgb(138,63,30)" stroke="rgb(138,63,30)" stroke-width="1" opacity="0.9019607843137255" d="M 56.5 197 L 61 202.5 L 59 201.5 L 56.5 197 Z " /><path fill="rgb(138,63,30)" stroke="rgb(138,63,30)" stroke-width="1" opacity="0.9019607843137255" d="M 251.5 197 L 251 198.5 L 248.5 202 L 249 200.5 L 251.5 197 Z " /><path fill="rgb(138,63,30)" stroke="rgb(138,63,30)" stroke-width="1" opacity="0.9019607843137255" d="M 42.5 198 L 43 210.5 L 42 210.5 L 42.5 198 Z " /><path fill="rgb(138,63,30)" stroke="rgb(138,63,30)" stroke-width="1" opacity="0.9019607843137255" d="M 44.5 199 L 45 202.5 L 44 202.5 L 44.5 199 Z " /><path fill="rgb(138,63,30)" stroke="rgb(138,63,30)" stroke-width="1" opacity="0.9019607843137255" d="M 254.5 199 L 252.5 202 L 254.5 199 Z " /><path fill="rgb(138,63,30)" stroke="rgb(138,63,30)" stroke-width="1" opacity="0.9019607843137255" d="M 247.5 203 L 245.5 206 L 247.5 203 Z " /><path fill="rgb(138,63,30)" stroke="rgb(138,63,30)" stroke-width="1" opacity="0.9019607843137255" d="M 61.5 204 L 62.5 206 L 61.5 204 Z " /><path fill="rgb(138,63,30)" stroke="rgb(138,63,30)" stroke-width="1" opacity="0.9019607843137255" d="M 44.5 205 L 45 207.5 L 44 207.5 L 44.5 205 Z " /><path fill="rgb(138,63,30)" stroke="rgb(138,63,30)" stroke-width="1" opacity="0.9019607843137255" d="M 250.5 205 L 249.5 207 L 250.5 205 Z " /><path fill="rgb(138,63,30)" stroke="rgb(138,63,30)" stroke-width="1" opacity="0.9019607843137255" d="M 57.5 206 L 58.5 208 L 57.5 206 Z " /><path fill="rgb(138,63,30)" stroke="rgb(138,63,30)" stroke-width="1" opacity="0.9019607843137255" d="M 244.5 207 L 243 209.5 Q 243.8 211.8 241.5 211 L 244.5 207 Z " /><path fill="rgb(138,63,30)" stroke="rgb(138,63,30)" stroke-width="1" opacity="0.9019607843137255" d="M 64.5 208 L 72.5 217 L 64.5 208 Z " /><path fill="rgb(138,63,30)" stroke="rgb(138,63,30)" stroke-width="1" opacity="0.9019607843137255" d="M 248.5 208 L 244 213.5 L 237.5 221 L 241 216.5 L 243 213.5 L 248.5 208 Z " /><path fill="rgb(138,63,30)" stroke="rgb(138,63,30)" stroke-width="1" opacity="0.9019607843137255" d="M 45.5 209 L 49 214.5 L 47 213.5 L 45.5 209 Z " /><path fill="rgb(138,63,30)" stroke="rgb(138,63,30)" stroke-width="1" opacity="0.9019607843137255" d="M 59.5 209 L 71 220.5 L 71 222.5 Q 69.8 225.3 64.5 224 L 64.5 223 L 70 223 L 70 220.5 L 66 218 L 59.5 209 Z " /><path fill="rgb(138,63,30)" stroke="rgb(138,63,30)" stroke-width="1" opacity="0.9019607843137255" d="M 43.5 212 L 50.5 221 L 61.5 227 L 69 227 L 68.5 229 Q 67 226.5 61.5 228 L 51.5 223 L 46 217.5 L 43.5 212 Z " /><path fill="rgb(138,63,30)" stroke="rgb(138,63,30)" stroke-width="1" opacity="0.9019607843137255" d="M 240.5 212 L 237.5 216 L 240.5 212 Z " /><path fill="rgb(138,63,30)" stroke="rgb(138,63,30)" stroke-width="1" opacity="0.9019607843137255" d="M 52.5 218 L 61 222.5 L 59.5 223 L 53.5 220 L 52.5 218 Z " /><path fill="rgb(138,63,30)" stroke="rgb(138,63,30)" stroke-width="1" opacity="0.9019607843137255" d="M 75.5 218 L 82 223.5 L 79.5 222 L 75.5 218 Z " /><path fill="rgb(138,63,30)" stroke="rgb(138,63,30)" stroke-width="1" opacity="0.9019607843137255" d="M 233.5 218 L 228.5 224 L 225.5 226 L 227.5 223 L 233.5 218 Z " /><path fill="rgb(138,63,30)" stroke="rgb(138,63,30)" stroke-width="1" opacity="0.9019607843137255" d="M 235.5 221 L 236 223 L 229.5 228 L 229 226 L 235.5 221 Z " /><path fill="rgb(138,63,30)" stroke="rgb(138,63,30)" stroke-width="1" opacity="0.9019607843137255" d="M 85.5 225 L 86.5 227 L 85.5 225 Z " /><path fill="rgb(138,63,30)" stroke="rgb(138,63,30)" stroke-width="1" opacity="0.9019607843137255" d="M 88.5 227 L 105 235.5 L 103.5 236 L 89.5 229 L 88.5 227 Z " /><path fill="rgb(138,63,30)" stroke="rgb(138,63,30)" stroke-width="1" opacity="0.9019607843137255" d="M 222.5 227 L 221.5 229 L 214.5 232 L 214.5 231 L 222.5 227 Z " /><path fill="rgb(138,63,30)" stroke="rgb(138,63,30)" stroke-width="1" opacity="0.9019607843137255" d="M 80 228 L 88 232.5 L 86.5 232 L 81.5 229 Q 79.3 229.8 80 233.5 L 76.5 237 L 70 233.5 L 69 231.5 L 71 232.5 Q 70.3 234.8 72.5 234 L 76.5 236 L 79 233.5 L 80 228 Z " /><path fill="rgb(138,63,30)" stroke="rgb(138,63,30)" stroke-width="1" opacity="0.9019607843137255" d="M 227.5 228 L 226.5 230 L 213.5 237 L 213.5 236 L 227.5 228 Z " /><path fill="rgb(138,63,30)" stroke="rgb(138,63,30)" stroke-width="1" opacity="0.9019607843137255" d="M 89.5 233 L 98 237.5 L 96.5 238 L 90.5 235 L 89.5 233 Z " /><path fill="rgb(138,63,30)" stroke="rgb(138,63,30)" stroke-width="1" opacity="0.9019607843137255" d="M 107.5 236 L 110.5 238 Q 117.3 237.3 121 239.5 L 117.5 240 Q 116 237.5 110.5 239 L 107.5 236 Z " /><path fill="rgb(138,63,30)" stroke="rgb(138,63,30)" stroke-width="1" opacity="0.9019607843137255" d="M 199.5 236 L 201 236.5 Q 196 240 187.5 240 L 187.5 239 L 191.5 239 L 199.5 236 Z " /><path fill="rgb(138,63,30)" stroke="rgb(138,63,30)" stroke-width="1" opacity="0.9019607843137255" d="M 104.5 240 L 114 242.5 L 109.5 243 L 104.5 241 L 104.5 240 Z " /><path fill="rgb(138,63,30)" stroke="rgb(138,63,30)" stroke-width="1" opacity="0.9019607843137255" d="M 122.5 240 Q 124.2 243.3 130 242.5 L 124.5 243 L 122.5 240 Z " /><path fill="rgb(138,63,30)" stroke="rgb(138,63,30)" stroke-width="1" opacity="0.9019607843137255" d="M 182.5 240 L 186 240.5 L 182.5 241 L 182.5 240 Z " /><path fill="rgb(138,63,30)" stroke="rgb(138,63,30)" stroke-width="1" opacity="0.9019607843137255" d="M 173.5 241 L 180 241.5 L 173.5 242 L 173.5 241 Z " /><path fill="rgb(138,63,30)" stroke="rgb(138,63,30)" stroke-width="1" opacity="0.9019607843137255" d="M 197.5 241 L 201 241.5 L 182 246 L 185 252.5 L 183 251.5 L 181 246.5 L 182.5 245 L 193.5 243 L 197.5 241 Z " /><path fill="rgb(138,63,30)" stroke="rgb(138,63,30)" stroke-width="1" opacity="0.9019607843137255" d="M 158.5 242 L 169 242.5 L 158.5 243 L 158.5 242 Z " /><path fill="rgb(138,63,30)" stroke="rgb(138,63,30)" stroke-width="1" opacity="0.9019607843137255" d="M 115.5 243 Q 121.3 242.3 122 246.5 L 121.5 249 L 121 246 Q 118 247 119 244 L 115.5 244 L 115.5 243 Z " /><path fill="rgb(138,63,30)" stroke="rgb(138,63,30)" stroke-width="1" opacity="0.9019607843137255" d="M 144.5 243 L 152 243.5 L 144.5 244 L 144.5 243 Z " /><path fill="rgb(138,63,30)" stroke="rgb(138,63,30)" stroke-width="1" opacity="0.9019607843137255" d="M 172.5 246 Q 178.5 244.5 180 247.5 L 179.5 249 L 179 247 L 172.5 247 L 172.5 246 Z " /><path fill="rgb(138,63,30)" stroke="rgb(138,63,30)" stroke-width="1" opacity="0.9019607843137255" d="M 124.5 247 L 129 247.5 L 124.5 248 L 124.5 247 Z " /><path fill="rgb(138,63,30)" stroke="rgb(138,63,30)" stroke-width="1" opacity="0.9019607843137255" d="M 157.5 247 L 166 247.5 L 157.5 248 L 157.5 247 Z " /><path fill="rgb(138,63,30)" stroke="rgb(138,63,30)" stroke-width="1" opacity="0.9019607843137255" d="M 138.5 248 L 151 248.5 L 138.5 249 L 138.5 248 Z " /><path fill="rgb(138,63,30)" stroke="rgb(138,63,30)" stroke-width="1" opacity="0.9019607843137255" d="M 120.5 250 L 121 251.5 L 119.5 254 L 119 252.5 L 120.5 250 Z " /><path fill="rgb(138,63,30)" stroke="rgb(138,63,30)" stroke-width="1" opacity="0.9019607843137255" d="M 121.5 253 L 122 255.5 L 118.5 263 L 118 261.5 L 121.5 253 Z " /><path fill="rgb(138,63,30)" stroke="rgb(138,63,30)" stroke-width="1" opacity="0.9019607843137255" d="M 185.5 254 L 186.5 256 L 185.5 254 Z " /><path fill="rgb(138,63,30)" stroke="rgb(138,63,30)" stroke-width="1" opacity="0.9019607843137255" d="M 187.5 257 L 194 269 L 207 269.5 L 194.5 270 Q 188.5 264.7 187.5 257 Z " /><path fill="rgb(138,63,30)" stroke="rgb(138,63,30)" stroke-width="1" opacity="0.9019607843137255" d="M 184.5 259 L 189 266.5 L 187 265.5 L 184 260.5 L 184.5 259 Z " /><path fill="rgb(138,63,30)" stroke="rgb(138,63,30)" stroke-width="1" opacity="0.9019607843137255" d="M 116.5 260 L 117 261.5 L 112.5 270 L 112 268.5 L 116.5 260 Z " /><path fill="rgb(138,63,30)" stroke="rgb(138,63,30)" stroke-width="1" opacity="0.9019607843137255" d="M 190.5 270 L 188 273.5 Q 187 280 191.5 281 L 201.5 282 L 211 279 L 211.5 277 L 212 278.5 L 206.5 282 L 194.5 283 L 187 278.5 Q 185.8 271.3 190.5 270 Z " /><path fill="rgb(138,63,30)" stroke="rgb(138,63,30)" stroke-width="1" opacity="0.9019607843137255" d="M 208.5 270 L 212 272.5 L 213 275.5 L 212 275.5 L 211 272 L 208.5 270 Z " /><path fill="rgb(138,63,30)" stroke="rgb(138,63,30)" stroke-width="1" opacity="0.9019607843137255" d="M 111.5 271 L 112 272.5 L 110 273.5 L 111.5 271 Z " /><path fill="rgb(138,63,30)" stroke="rgb(138,63,30)" stroke-width="1" opacity="0.9019607843137255" d="M 110.5 275 L 109.5 277 L 106.5 278 L 106.5 277 L 110.5 275 Z " /><path fill="rgb(138,63,30)" stroke="rgb(138,63,30)" stroke-width="1" opacity="0.9019607843137255" d="M 114.5 275 Q 116.8 274.3 116 276.5 L 114.5 275 Z " /><path fill="rgb(138,63,30)" stroke="rgb(138,63,30)" stroke-width="1" opacity="0.9019607843137255" d="M 117.5 276 L 121 276.5 L 117.5 277 L 117.5 276 Z " /><path fill="rgb(138,63,30)" stroke="rgb(138,63,30)" stroke-width="1" opacity="0.9019607843137255" d="M 122.5 277 L 124.5 280 L 122.5 277 Z " /><path fill="rgb(138,63,30)" stroke="rgb(138,63,30)" stroke-width="1" opacity="0.9019607843137255" d="M 102.5 279 L 101.5 281 L 102.5 279 Z " /><path fill="rgb(138,63,30)" stroke="rgb(138,63,30)" stroke-width="1" opacity="0.9019607843137255" d="M 99.5 282 L 99 283.5 L 98.5 286 L 98 283.5 L 99.5 282 Z " /><path fill="rgb(138,63,30)" stroke="rgb(138,63,30)" stroke-width="1" opacity="0.9019607843137255" d="M 125.5 285 L 123.5 288 Q 118 293 105.5 291 L 99 287.5 L 100.5 288 Q 106.3 291.7 117.5 290 L 125.5 285 Z " /><path fill="rgb(138,64,30)" stroke="rgb(138,64,30)" stroke-width="1" opacity="0.6313725490196078" d="M 129.5 25 L 132.5 26 L 134.5 25 L 134.5 26 L 130.5 27 Q 129.3 24.8 128 27.5 L 127.5 30 L 127 27.5 L 129.5 25 Z " /><path fill="rgb(138,64,30)" stroke="rgb(138,64,30)" stroke-width="1" opacity="0.6313725490196078" d="M 135.5 27 L 139 32.5 L 137 31.5 L 135.5 27 Z " /><path fill="rgb(138,64,30)" stroke="rgb(138,64,30)" stroke-width="1" opacity="0.6313725490196078" d="M 131.5 28 L 133 30.5 L 131.5 34 L 131.5 28 Z " /><path fill="rgb(138,64,30)" stroke="rgb(138,64,30)" stroke-width="1" opacity="0.6313725490196078" d="M 133.5 32 L 135 34.5 L 133 33.5 L 133.5 32 Z " /><path fill="rgb(138,64,30)" stroke="rgb(138,64,30)" stroke-width="1" opacity="0.6313725490196078" d="M 139.5 34 L 145.5 41 L 139.5 34 Z " /><path fill="rgb(138,64,30)" stroke="rgb(138,64,30)" stroke-width="1" opacity="0.6313725490196078" d="M 127.5 35 L 128 38.5 L 126.5 42 L 126 39.5 L 127.5 35 Z " /><path fill="rgb(138,64,30)" stroke="rgb(138,64,30)" stroke-width="1" opacity="0.6313725490196078" d="M 130.5 37 L 131 40.5 L 130 40.5 L 130.5 37 Z " /><path fill="rgb(138,64,30)" stroke="rgb(138,64,30)" stroke-width="1" opacity="0.6313725490196078" d="M 136.5 38 L 140.5 43 L 136.5 38 Z " /><path fill="rgb(138,64,30)" stroke="rgb(138,64,30)" stroke-width="1" opacity="0.6313725490196078" d="M 129.5 42 L 130 44.5 L 129 44.5 L 129.5 42 Z " /><path fill="rgb(138,64,30)" stroke="rgb(138,64,30)" stroke-width="1" opacity="0.6313725490196078" d="M 149.5 43 L 154.5 49 L 149.5 43 Z " /><path fill="rgb(138,64,30)" stroke="rgb(138,64,30)" stroke-width="1" opacity="0.6313725490196078" d="M 125.5 44 L 126 45.5 L 124.5 48 L 124 46.5 L 125.5 44 Z " /><path fill="rgb(138,64,30)" stroke="rgb(138,64,30)" stroke-width="1" opacity="0.6313725490196078" d="M 142.5 44 L 148.5 51 L 142.5 44 Z " /><path fill="rgb(138,64,30)" stroke="rgb(138,64,30)" stroke-width="1" opacity="0.6313725490196078" d="M 128.5 46 L 129 47.5 L 127.5 50 L 127 48.5 L 128.5 46 Z " /><path fill="rgb(138,64,30)" stroke="rgb(138,64,30)" stroke-width="1" opacity="0.6313725490196078" d="M 156.5 49 L 157.5 51 L 156.5 49 Z " /><path fill="rgb(138,64,30)" stroke="rgb(138,64,30)" stroke-width="1" opacity="0.6313725490196078" d="M 122.5 51 L 120.5 54 L 122.5 51 Z " /><path fill="rgb(138,64,30)" stroke="rgb(138,64,30)" stroke-width="1" opacity="0.6313725490196078" d="M 159.5 51 L 161.5 54 L 159.5 51 Z " /><path fill="rgb(138,64,30)" stroke="rgb(138,64,30)" stroke-width="1" opacity="0.6313725490196078" d="M 125.5 53 L 123.5 56 L 125.5 53 Z " /><path fill="rgb(138,64,30)" stroke="rgb(138,64,30)" stroke-width="1" opacity="0.6313725490196078" d="M 152.5 53 L 154.5 56 L 152.5 53 Z " /><path fill="rgb(138,64,30)" stroke="rgb(138,64,30)" stroke-width="1" opacity="0.6313725490196078" d="M 119.5 55 L 115.5 60 L 119.5 55 Z " /><path fill="rgb(138,64,30)" stroke="rgb(138,64,30)" stroke-width="1" opacity="0.6313725490196078" d="M 156.5 56 L 163 60.5 L 161.5 60 Q 156.9 58.8 156.5 56 Z " /><path fill="rgb(138,64,30)" stroke="rgb(138,64,30)" stroke-width="1" opacity="0.6313725490196078" d="M 167.5 56 L 174 59.5 L 172.5 60 Q 167.9 58.8 167.5 56 Z " /><path fill="rgb(138,64,30)" stroke="rgb(138,64,30)" stroke-width="1" opacity="0.6313725490196078" d="M 122.5 57 L 112.5 68 L 122.5 57 Z " /><path fill="rgb(138,64,30)" stroke="rgb(138,64,30)" stroke-width="1" opacity="0.6313725490196078" d="M 177.5 61 L 183 64.5 L 181.5 64 Q 176.8 63.2 177.5 61 Z " /><path fill="rgb(138,64,30)" stroke="rgb(138,64,30)" stroke-width="1" opacity="0.6313725490196078" d="M 110.5 63 L 106.5 68 L 110.5 63 Z " /><path fill="rgb(138,64,30)" stroke="rgb(138,64,30)" stroke-width="1" opacity="0.6313725490196078" d="M 170.5 64 L 184 71.5 L 182.5 71 L 170.5 65 L 170.5 64 Z " /><path fill="rgb(138,64,30)" stroke="rgb(138,64,30)" stroke-width="1" opacity="0.6313725490196078" d="M 184.5 65 L 187 66.5 L 185.5 66 L 184.5 65 Z " /><path fill="rgb(138,64,30)" stroke="rgb(138,64,30)" stroke-width="1" opacity="0.6313725490196078" d="M 104.5 68 L 102.5 71 L 104.5 68 Z " /><path fill="rgb(138,64,30)" stroke="rgb(138,64,30)" stroke-width="1" opacity="0.6313725490196078" d="M 110.5 68 L 106.5 73 L 110.5 68 Z " /><path fill="rgb(138,64,30)" stroke="rgb(138,64,30)" stroke-width="1" opacity="0.6313725490196078" d="M 238.5 69 Q 242.3 68.3 243 70.5 L 241.5 70 L 237.5 71 L 238.5 69 Z " /><path fill="rgb(138,64,30)" stroke="rgb(138,64,30)" stroke-width="1" opacity="0.6313725490196078" d="M 100.5 71 L 96.5 76 L 100.5 71 Z " /><path fill="rgb(138,64,30)" stroke="rgb(138,64,30)" stroke-width="1" opacity="0.6313725490196078" d="M 104.5 73 L 102.5 76 L 104.5 73 Z " /><path fill="rgb(138,64,30)" stroke="rgb(138,64,30)" stroke-width="1" opacity="0.6313725490196078" d="M 190.5 74 L 193 75.5 L 191.5 76 L 190.5 74 Z " /><path fill="rgb(138,64,30)" stroke="rgb(138,64,30)" stroke-width="1" opacity="0.6313725490196078" d="M 203.5 74 L 208 77.5 L 206.5 77 L 203.5 74 Z " /><path fill="rgb(138,64,30)" stroke="rgb(138,64,30)" stroke-width="1" opacity="0.6313725490196078" d="M 94.5 76 L 92.5 79 L 94.5 76 Z " /><path fill="rgb(138,64,30)" stroke="rgb(138,64,30)" stroke-width="1" opacity="0.6313725490196078" d="M 246.5 76 L 249 76.5 L 246.5 77 L 246.5 76 Z " /><path fill="rgb(138,64,30)" stroke="rgb(138,64,30)" stroke-width="1" opacity="0.6313725490196078" d="M 98.5 78 L 96.5 81 L 98.5 78 Z " /><path fill="rgb(138,64,30)" stroke="rgb(138,64,30)" stroke-width="1" opacity="0.6313725490196078" d="M 200.5 79 L 201.5 81 L 200.5 79 Z " /><path fill="rgb(138,64,30)" stroke="rgb(138,64,30)" stroke-width="1" opacity="0.6313725490196078" d="M 211.5 79 L 212.5 81 L 211.5 79 Z " /><path fill="rgb(138,64,30)" stroke="rgb(138,64,30)" stroke-width="1" opacity="0.6313725490196078" d="M 235.5 79 L 233 82.5 Q 230.8 88.8 236.5 87 L 237.5 89 L 232 86.5 Q 231 80 235.5 79 Z " /><path fill="rgb(138,64,30)" stroke="rgb(138,64,30)" stroke-width="1" opacity="0.6313725490196078" d="M 89.5 80 L 86.5 84 L 81.5 87 L 81.5 86 L 89.5 80 Z " /><path fill="rgb(138,64,30)" stroke="rgb(138,64,30)" stroke-width="1" opacity="0.6313725490196078" d="M 240.5 81 L 244 82 Q 245.1 84.7 242.5 84 L 240.5 81 Z " /><path fill="rgb(138,64,30)" stroke="rgb(138,64,30)" stroke-width="1" opacity="0.6313725490196078" d="M 93.5 82 L 90.5 86 L 87.5 88 L 89.5 85 L 93.5 82 Z " /><path fill="rgb(138,64,30)" stroke="rgb(138,64,30)" stroke-width="1" opacity="0.6313725490196078" d="M 216.5 82 L 221 85.5 L 219.5 86 L 216.5 82 Z " /><path fill="rgb(138,64,30)" stroke="rgb(138,64,30)" stroke-width="1" opacity="0.6313725490196078" d="M 207.5 83 L 212 86.5 L 210.5 86 L 207.5 83 Z " /><path fill="rgb(138,64,30)" stroke="rgb(138,64,30)" stroke-width="1" opacity="0.6313725490196078" d="M 222.5 86 L 224.5 89 L 222.5 86 Z " /><path fill="rgb(138,64,30)" stroke="rgb(138,64,30)" stroke-width="1" opacity="0.6313725490196078" d="M 213.5 87 L 215.5 90 L 213.5 87 Z " /><path fill="rgb(138,64,30)" stroke="rgb(138,64,30)" stroke-width="1" opacity="0.6313725490196078" d="M 85.5 88 L 80.5 94 L 76.5 97 L 79.5 93 L 85.5 88 Z " /><path fill="rgb(138,64,30)" stroke="rgb(138,64,30)" stroke-width="1" opacity="0.6313725490196078" d="M 226.5 89 L 235 96.5 L 232.5 95 L 226.5 89 Z " /><path fill="rgb(138,64,30)" stroke="rgb(138,64,30)" stroke-width="1" opacity="0.6313725490196078" d="M 75.5 91 L 72.5 95 L 71 94.5 L 75.5 91 Z " /><path fill="rgb(138,64,30)" stroke="rgb(138,64,30)" stroke-width="1" opacity="0.6313725490196078" d="M 219.5 91 L 226 96.5 L 222.5 94 L 219.5 91 Z " /><path fill="rgb(138,64,30)" stroke="rgb(138,64,30)" stroke-width="1" opacity="0.6313725490196078" d="M 240.5 91 L 244 95.5 L 241 93.5 L 240.5 91 Z " /><path fill="rgb(138,64,30)" stroke="rgb(138,64,30)" stroke-width="1" opacity="0.6313725490196078" d="M 246.5 94 L 247 96 L 245 95.5 L 246.5 94 Z " /><path fill="rgb(138,64,30)" stroke="rgb(138,64,30)" stroke-width="1" opacity="0.6313725490196078" d="M 69.5 96 L 63.5 103 L 69.5 96 Z " /><path fill="rgb(138,64,30)" stroke="rgb(138,64,30)" stroke-width="1" opacity="0.6313725490196078" d="M 73.5 98 L 65.5 107 L 73.5 98 Z " /><path fill="rgb(138,64,30)" stroke="rgb(138,64,30)" stroke-width="1" opacity="0.6313725490196078" d="M 229.5 99 L 237 105.5 L 235.5 105 L 229.5 99 Z " /><path fill="rgb(138,64,30)" stroke="rgb(138,64,30)" stroke-width="1" opacity="0.6313725490196078" d="M 238.5 99 L 245.5 107 L 238.5 99 Z " /><path fill="rgb(138,64,30)" stroke="rgb(138,64,30)" stroke-width="1" opacity="0.6313725490196078" d="M 42.5 102 L 46 103.5 L 47 110.5 L 46 110.5 L 45 103 Q 41.6 102.3 40.5 105 L 42.5 102 Z " /><path fill="rgb(138,64,30)" stroke="rgb(138,64,30)" stroke-width="1" opacity="0.6313725490196078" d="M 58.5 108 L 57.5 110 L 58.5 108 Z " /><path fill="rgb(138,64,30)" stroke="rgb(138,64,30)" stroke-width="1" opacity="0.6313725490196078" d="M 62.5 110 L 61.5 112 L 62.5 110 Z " /><path fill="rgb(138,64,30)" stroke="rgb(138,64,30)" stroke-width="1" opacity="0.6313725490196078" d="M 241.5 110 L 246 115.5 L 241 111.5 L 241.5 110 Z " /><path fill="rgb(138,64,30)" stroke="rgb(138,64,30)" stroke-width="1" opacity="0.6313725490196078" d="M 248.5 110 L 250.5 113 L 248.5 110 Z " /><path fill="rgb(138,64,30)" stroke="rgb(138,64,30)" stroke-width="1" opacity="0.6313725490196078" d="M 39.5 111 L 38.5 113 L 39.5 111 Z " /><path fill="rgb(138,64,30)" stroke="rgb(138,64,30)" stroke-width="1" opacity="0.6313725490196078" d="M 56.5 111 L 56 112.5 L 51.5 120 L 50.5 118 L 52 117.5 L 51 114.5 L 52 114.5 L 52.5 116 L 56.5 111 Z " /><path fill="rgb(138,64,30)" stroke="rgb(138,64,30)" stroke-width="1" opacity="0.6313725490196078" d="M 60.5 113 L 58.5 116 L 60.5 113 Z " /><path fill="rgb(138,64,30)" stroke="rgb(138,64,30)" stroke-width="1" opacity="0.6313725490196078" d="M 36.5 114 L 35 116.5 Q 34.3 120.3 36.5 121 L 38 121.5 L 36.5 122 Q 33.3 121.3 34 116.5 L 36.5 114 Z " /><path fill="rgb(138,64,30)" stroke="rgb(138,64,30)" stroke-width="1" opacity="0.6313725490196078" d="M 251.5 114 L 252.5 116 L 251.5 114 Z " /><path fill="rgb(138,64,30)" stroke="rgb(138,64,30)" stroke-width="1" opacity="0.6313725490196078" d="M 246.5 117 L 247.5 119 L 246.5 117 Z " /><path fill="rgb(138,64,30)" stroke="rgb(138,64,30)" stroke-width="1" opacity="0.6313725490196078" d="M 253.5 117 L 255 119.5 L 253 118.5 L 253.5 117 Z " /><path fill="rgb(138,64,30)" stroke="rgb(138,64,30)" stroke-width="1" opacity="0.6313725490196078" d="M 56.5 119 L 56 120.5 L 52.5 128 L 52 126.5 L 56.5 119 Z " /><path fill="rgb(138,64,30)" stroke="rgb(138,64,30)" stroke-width="1" opacity="0.6313725490196078" d="M 255.5 121 L 257 123.5 L 255 122.5 L 255.5 121 Z " /><path fill="rgb(138,64,30)" stroke="rgb(138,64,30)" stroke-width="1" opacity="0.6313725490196078" d="M 184.5 122 L 187 122.5 L 184.5 123 L 184.5 122 Z " /><path fill="rgb(138,64,30)" stroke="rgb(138,64,30)" stroke-width="1" opacity="0.6313725490196078" d="M 47.5 123 L 48 124.5 L 42.5 132 L 40 130.5 L 40.5 129 L 41 131 L 45 128.5 L 47.5 123 Z " /><path fill="rgb(138,64,30)" stroke="rgb(138,64,30)" stroke-width="1" opacity="0.6313725490196078" d="M 249.5 123 L 253 128.5 L 251 127.5 L 249.5 123 Z " /><path fill="rgb(138,64,30)" stroke="rgb(138,64,30)" stroke-width="1" opacity="0.6313725490196078" d="M 51.5 129 L 52 130.5 L 50.5 133 L 50 131.5 L 51.5 129 Z " /><path fill="rgb(138,64,30)" stroke="rgb(138,64,30)" stroke-width="1" opacity="0.6313725490196078" d="M 177.5 129 L 179 129.5 L 175.5 131 L 175.5 130 L 177.5 129 Z " /><path fill="rgb(138,64,30)" stroke="rgb(138,64,30)" stroke-width="1" opacity="0.6313725490196078" d="M 105.5 130 L 110 130.5 L 105.5 131 L 105.5 130 Z " /><path fill="rgb(138,64,30)" stroke="rgb(138,64,30)" stroke-width="1" opacity="0.6313725490196078" d="M 111.5 131 L 114 131.5 L 111.5 132 L 111.5 131 Z " /><path fill="rgb(138,64,30)" stroke="rgb(138,64,30)" stroke-width="1" opacity="0.6313725490196078" d="M 45.5 132 L 46 133.5 L 43.5 140 L 43 136.5 L 45.5 132 Z " /><path fill="rgb(138,64,30)" stroke="rgb(138,64,30)" stroke-width="1" opacity="0.6313725490196078" d="M 104.5 132 L 106.5 135 L 104.5 132 Z " /><path fill="rgb(138,64,30)" stroke="rgb(138,64,30)" stroke-width="1" opacity="0.6313725490196078" d="M 170.5 132 L 172 132.5 L 168.5 134 L 168.5 133 L 170.5 132 Z " /><path fill="rgb(138,64,30)" stroke="rgb(138,64,30)" stroke-width="1" opacity="0.6313725490196078" d="M 109.5 135 L 112 135.5 L 109.5 136 L 109.5 135 Z " /><path fill="rgb(138,64,30)" stroke="rgb(138,64,30)" stroke-width="1" opacity="0.6313725490196078" d="M 126.5 135 L 128 138.5 L 125.5 140 L 125.5 139 Q 128.1 139.8 127 136.5 L 126.5 135 Z " /><path fill="rgb(138,64,30)" stroke="rgb(138,64,30)" stroke-width="1" opacity="0.6313725490196078" d="M 121.5 138 L 124 138.5 L 121.5 139 L 121.5 138 Z " /><path fill="rgb(138,64,30)" stroke="rgb(138,64,30)" stroke-width="1" opacity="0.6313725490196078" d="M 47.5 139 L 48 141.5 L 47 141.5 L 47.5 139 Z " /><path fill="rgb(138,64,30)" stroke="rgb(138,64,30)" stroke-width="1" opacity="0.6313725490196078" d="M 262.5 140 L 263 142.5 L 262 142.5 L 262.5 140 Z " /><path fill="rgb(138,64,30)" stroke="rgb(138,64,30)" stroke-width="1" opacity="0.6313725490196078" d="M 42.5 141 L 43 142.5 L 41.5 147 L 41 143.5 L 42.5 141 Z " /><path fill="rgb(138,64,30)" stroke="rgb(138,64,30)" stroke-width="1" opacity="0.6313725490196078" d="M 46.5 143 L 47 146.5 L 46 146.5 L 46.5 143 Z " /><path fill="rgb(138,64,30)" stroke="rgb(138,64,30)" stroke-width="1" opacity="0.6313725490196078" d="M 263.5 144 L 264 146.5 L 263 146.5 L 263.5 144 Z " /><path fill="rgb(138,64,30)" stroke="rgb(138,64,30)" stroke-width="1" opacity="0.6313725490196078" d="M 219.5 145 L 219 146.5 L 218.5 148 L 218 146.5 L 219.5 145 Z " /><path fill="rgb(138,64,30)" stroke="rgb(138,64,30)" stroke-width="1" opacity="0.6313725490196078" d="M 224.5 145 L 228.5 150 L 224.5 145 Z " /><path fill="rgb(138,64,30)" stroke="rgb(138,64,30)" stroke-width="1" opacity="0.6313725490196078" d="M 172.5 146 L 174 146.5 L 170 149.5 L 168.5 155 L 168 151.5 L 172.5 146 Z " /><path fill="rgb(138,64,30)" stroke="rgb(138,64,30)" stroke-width="1" opacity="0.6313725490196078" d="M 180.5 146 L 182.5 149 L 180.5 146 Z " /><path fill="rgb(138,64,30)" stroke="rgb(138,64,30)" stroke-width="1" opacity="0.6313725490196078" d="M 258.5 147 L 259 149.5 L 258 149.5 L 258.5 147 Z " /><path fill="rgb(138,64,30)" stroke="rgb(138,64,30)" stroke-width="1" opacity="0.6313725490196078" d="M 45.5 148 L 46 167.5 L 45 167.5 L 45.5 148 Z " /><path fill="rgb(138,64,30)" stroke="rgb(138,64,30)" stroke-width="1" opacity="0.6313725490196078" d="M 264.5 148 L 265 153.5 L 264 153.5 L 264.5 148 Z " /><path fill="rgb(138,64,30)" stroke="rgb(138,64,30)" stroke-width="1" opacity="0.6313725490196078" d="M 40.5 150 L 41 155.5 L 40 155.5 L 40.5 150 Z " /><path fill="rgb(138,64,30)" stroke="rgb(138,64,30)" stroke-width="1" opacity="0.6313725490196078" d="M 117.5 150 L 121 150.5 L 117.5 151 L 117.5 150 Z " /><path fill="rgb(138,64,30)" stroke="rgb(138,64,30)" stroke-width="1" opacity="0.6313725490196078" d="M 175.5 150 L 179 152.5 L 178.5 154 L 176.5 151 L 175.5 150 Z " /><path fill="rgb(138,64,30)" stroke="rgb(138,64,30)" stroke-width="1" opacity="0.6313725490196078" d="M 183.5 150 L 184 153.5 L 183 153.5 L 183.5 150 Z " /><path fill="rgb(138,64,30)" stroke="rgb(138,64,30)" stroke-width="1" opacity="0.6313725490196078" d="M 122.5 151 L 124.5 154 L 122.5 151 Z " /><path fill="rgb(138,64,30)" stroke="rgb(138,64,30)" stroke-width="1" opacity="0.6313725490196078" d="M 113.5 152 L 112.5 154 L 113.5 152 Z " /><path fill="rgb(138,64,30)" stroke="rgb(138,64,30)" stroke-width="1" opacity="0.6313725490196078" d="M 218.5 154 L 219 156.5 L 218 156.5 L 218.5 154 Z " /><path fill="rgb(138,64,30)" stroke="rgb(138,64,30)" stroke-width="1" opacity="0.6313725490196078" d="M 259.5 154 L 260 156.5 L 259 156.5 L 259.5 154 Z " /><path fill="rgb(138,64,30)" stroke="rgb(138,64,30)" stroke-width="1" opacity="0.6313725490196078" d="M 116.5 155 L 116 156.5 L 115.5 158 L 115 156.5 L 116.5 155 Z " /><path fill="rgb(138,64,30)" stroke="rgb(138,64,30)" stroke-width="1" opacity="0.6313725490196078" d="M 125.5 155 L 126 159.5 L 125 159.5 L 125.5 155 Z " /><path fill="rgb(138,64,30)" stroke="rgb(138,64,30)" stroke-width="1" opacity="0.6313725490196078" d="M 182.5 155 L 183 157 L 179.5 159 L 182.5 155 Z " /><path fill="rgb(138,64,30)" stroke="rgb(138,64,30)" stroke-width="1" opacity="0.6313725490196078" d="M 266.5 155 L 267.5 157 L 266.5 155 Z " /><path fill="rgb(138,64,30)" stroke="rgb(138,64,30)" stroke-width="1" opacity="0.6313725490196078" d="M 120.5 156 L 121 160 L 119 159.5 L 120.5 156 Z " /><path fill="rgb(138,64,30)" stroke="rgb(138,64,30)" stroke-width="1" opacity="0.6313725490196078" d="M 169.5 156 Q 171.3 160.3 178 159.5 L 172.5 160 L 169.5 156 Z " /><path fill="rgb(138,64,30)" stroke="rgb(138,64,30)" stroke-width="1" opacity="0.6313725490196078" d="M 219.5 158 L 220 160.5 L 218 161.5 L 219.5 158 Z " /><path fill="rgb(138,64,30)" stroke="rgb(138,64,30)" stroke-width="1" opacity="0.6313725490196078" d="M 233.5 160 L 235 163.5 L 234 163.5 L 233.5 160 Z " /><path fill="rgb(138,64,30)" stroke="rgb(138,64,30)" stroke-width="1" opacity="0.6313725490196078" d="M 265.5 160 L 265 161.5 L 264.5 177 L 264 161.5 L 265.5 160 Z " /><path fill="rgb(138,64,30)" stroke="rgb(138,64,30)" stroke-width="1" opacity="0.6313725490196078" d="M 40.5 164 L 41 168.5 L 40 168.5 L 40.5 164 Z " /><path fill="rgb(138,64,30)" stroke="rgb(138,64,30)" stroke-width="1" opacity="0.6313725490196078" d="M 115.5 164 L 119 164.5 L 115.5 165 L 115.5 164 Z " /><path fill="rgb(138,64,30)" stroke="rgb(138,64,30)" stroke-width="1" opacity="0.6313725490196078" d="M 260.5 165 L 261 169.5 L 260 169.5 L 260.5 165 Z " /><path fill="rgb(138,64,30)" stroke="rgb(138,64,30)" stroke-width="1" opacity="0.6313725490196078" d="M 160.5 166 L 163 167.5 L 161.5 167 L 160.5 166 Z " /><path fill="rgb(138,64,30)" stroke="rgb(138,64,30)" stroke-width="1" opacity="0.6313725490196078" d="M 158.5 167 L 159 168.5 L 156 170.5 L 158.5 167 Z " /><path fill="rgb(138,64,30)" stroke="rgb(138,64,30)" stroke-width="1" opacity="0.6313725490196078" d="M 208.5 167 L 207.5 169 L 208.5 167 Z " /><path fill="rgb(138,64,30)" stroke="rgb(138,64,30)" stroke-width="1" opacity="0.6313725490196078" d="M 273.5 168 L 274 173.5 L 273 173.5 L 273.5 168 Z " /><path fill="rgb(138,64,30)" stroke="rgb(138,64,30)" stroke-width="1" opacity="0.6313725490196078" d="M 46.5 169 L 47 172.5 L 46 172.5 L 46.5 169 Z " /><path fill="rgb(138,64,30)" stroke="rgb(138,64,30)" stroke-width="1" opacity="0.6313725490196078" d="M 136.5 169 L 142 173.5 L 140.5 174 L 136.5 169 Z " /><path fill="rgb(138,64,30)" stroke="rgb(138,64,30)" stroke-width="1" opacity="0.6313725490196078" d="M 41.5 171 L 42 174.5 L 41 174.5 L 41.5 171 Z " /><path fill="rgb(138,64,30)" stroke="rgb(138,64,30)" stroke-width="1" opacity="0.6313725490196078" d="M 161.5 172 L 156.5 178 L 153.5 179 L 153.5 178 Q 159.3 176.8 161.5 172 Z " /><path fill="rgb(138,64,30)" stroke="rgb(138,64,30)" stroke-width="1" opacity="0.6313725490196078" d="M 143.5 174 L 152 174.5 L 143.5 175 L 143.5 174 Z " /><path fill="rgb(138,64,30)" stroke="rgb(138,64,30)" stroke-width="1" opacity="0.6313725490196078" d="M 242.5 174 L 244.5 177 L 242.5 174 Z " /><path fill="rgb(138,64,30)" stroke="rgb(138,64,30)" stroke-width="1" opacity="0.6313725490196078" d="M 273.5 175 L 274 178.5 L 273 178.5 L 273.5 175 Z " /><path fill="rgb(138,64,30)" stroke="rgb(138,64,30)" stroke-width="1" opacity="0.6313725490196078" d="M 137.5 176 L 141 178.5 L 139.5 179 L 137.5 176 Z " /><path fill="rgb(138,64,30)" stroke="rgb(138,64,30)" stroke-width="1" opacity="0.6313725490196078" d="M 258.5 178 L 259 180.5 L 258 180.5 L 258.5 178 Z " /><path fill="rgb(138,64,30)" stroke="rgb(138,64,30)" stroke-width="1" opacity="0.6313725490196078" d="M 263.5 178 L 264 182.5 L 263 182.5 L 263.5 178 Z " /><path fill="rgb(138,64,30)" stroke="rgb(138,64,30)" stroke-width="1" opacity="0.6313725490196078" d="M 142.5 179 L 152 179.5 L 142.5 180 L 142.5 179 Z " /><path fill="rgb(138,64,30)" stroke="rgb(138,64,30)" stroke-width="1" opacity="0.6313725490196078" d="M 266.5 180 L 265.5 182 L 266.5 180 Z " /><path fill="rgb(138,64,30)" stroke="rgb(138,64,30)" stroke-width="1" opacity="0.6313725490196078" d="M 55.5 181 L 58 181.5 L 55.5 182 L 55.5 181 Z " /><path fill="rgb(138,64,30)" stroke="rgb(138,64,30)" stroke-width="1" opacity="0.6313725490196078" d="M 53.5 182 L 52.5 184 L 50.5 185 L 51.5 183 L 53.5 182 Z " /><path fill="rgb(138,64,30)" stroke="rgb(138,64,30)" stroke-width="1" opacity="0.6313725490196078" d="M 57.5 183 L 55.5 186 L 53 187.5 L 52.5 189 L 52 187.5 L 57.5 183 Z " /><path fill="rgb(138,64,30)" stroke="rgb(138,64,30)" stroke-width="1" opacity="0.6313725490196078" d="M 241.5 185 L 237.5 190 L 241.5 185 Z " /><path fill="rgb(138,64,30)" stroke="rgb(138,64,30)" stroke-width="1" opacity="0.6313725490196078" d="M 243.5 186 L 244.5 188 L 243.5 186 Z " /><path fill="rgb(138,64,30)" stroke="rgb(138,64,30)" stroke-width="1" opacity="0.6313725490196078" d="M 268.5 186 L 267.5 188 L 268.5 186 Z " /><path fill="rgb(138,64,30)" stroke="rgb(138,64,30)" stroke-width="1" opacity="0.6313725490196078" d="M 209.5 187 L 214 192.5 L 210 189.5 L 209.5 187 Z " /><path fill="rgb(138,64,30)" stroke="rgb(138,64,30)" stroke-width="1" opacity="0.6313725490196078" d="M 265.5 188 L 264.5 190 L 265.5 188 Z " /><path fill="rgb(138,64,30)" stroke="rgb(138,64,30)" stroke-width="1" opacity="0.6313725490196078" d="M 252.5 191 Q 255.2 192.3 253 193.5 L 250.5 198 L 251 196.5 L 253 192.5 L 252.5 191 Z " /><path fill="rgb(138,64,30)" stroke="rgb(138,64,30)" stroke-width="1" opacity="0.6313725490196078" d="M 259.5 191 L 258.5 193 L 259.5 191 Z " /><path fill="rgb(138,64,30)" stroke="rgb(138,64,30)" stroke-width="1" opacity="0.6313725490196078" d="M 44.5 192 L 45 193.5 L 42.5 198 L 42 196.5 L 44.5 192 Z " /><path fill="rgb(138,64,30)" stroke="rgb(138,64,30)" stroke-width="1" opacity="0.6313725490196078" d="M 54.5 192 L 59 198.5 L 56 196.5 L 54.5 192 Z " /><path fill="rgb(138,64,30)" stroke="rgb(138,64,30)" stroke-width="1" opacity="0.6313725490196078" d="M 47.5 193 L 49 193.5 L 47 194 L 46.5 196 L 46 194.5 L 47.5 193 Z " /><path fill="rgb(138,64,30)" stroke="rgb(138,64,30)" stroke-width="1" opacity="0.6313725490196078" d="M 49.5 195 L 50.5 197 L 49.5 195 Z " /><path fill="rgb(138,64,30)" stroke="rgb(138,64,30)" stroke-width="1" opacity="0.6313725490196078" d="M 45.5 197 L 46 199.5 L 45 199.5 L 45.5 197 Z " /><path fill="rgb(138,64,30)" stroke="rgb(138,64,30)" stroke-width="1" opacity="0.6313725490196078" d="M 51.5 198 L 59 208.5 L 56 206.5 L 51.5 198 Z " /><path fill="rgb(138,64,30)" stroke="rgb(138,64,30)" stroke-width="1" opacity="0.6313725490196078" d="M 254.5 200 L 253 202.5 L 251.5 205 L 252 203.5 L 254.5 200 Z " /><path fill="rgb(138,64,30)" stroke="rgb(138,64,30)" stroke-width="1" opacity="0.6313725490196078" d="M 41.5 201 L 42 209.5 L 41 209.5 L 41.5 201 Z " /><path fill="rgb(138,64,30)" stroke="rgb(138,64,30)" stroke-width="1" opacity="0.6313725490196078" d="M 247.5 202 L 245.5 205 L 247.5 202 Z " /><path fill="rgb(138,64,30)" stroke="rgb(138,64,30)" stroke-width="1" opacity="0.6313725490196078" d="M 61.5 203 L 62.5 205 L 61.5 203 Z " /><path fill="rgb(138,64,30)" stroke="rgb(138,64,30)" stroke-width="1" opacity="0.6313725490196078" d="M 45.5 206 L 46 208.5 L 45 208.5 L 45.5 206 Z " /><path fill="rgb(138,64,30)" stroke="rgb(138,64,30)" stroke-width="1" opacity="0.6313725490196078" d="M 63.5 206 L 74.5 218 L 63.5 206 Z " /><path fill="rgb(138,64,30)" stroke="rgb(138,64,30)" stroke-width="1" opacity="0.6313725490196078" d="M 244.5 206 L 241 210.5 L 236.5 216 L 240 211.5 L 244.5 206 Z " /><path fill="rgb(138,64,30)" stroke="rgb(138,64,30)" stroke-width="1" opacity="0.6313725490196078" d="M 250.5 206 L 249.5 208 L 250.5 206 Z " /><path fill="rgb(138,64,30)" stroke="rgb(138,64,30)" stroke-width="1" opacity="0.6313725490196078" d="M 46.5 210 L 47.5 212 L 46.5 210 Z " /><path fill="rgb(138,64,30)" stroke="rgb(138,64,30)" stroke-width="1" opacity="0.6313725490196078" d="M 42.5 211 L 46 216.5 L 43 214.5 L 42.5 211 Z " /><path fill="rgb(138,64,30)" stroke="rgb(138,64,30)" stroke-width="1" opacity="0.6313725490196078" d="M 60.5 211 L 66 217.5 L 65 217.5 L 60.5 211 Z " /><path fill="rgb(138,64,30)" stroke="rgb(138,64,30)" stroke-width="1" opacity="0.6313725490196078" d="M 246.5 211 L 244.5 214 L 246.5 211 Z " /><path fill="rgb(138,64,30)" stroke="rgb(138,64,30)" stroke-width="1" opacity="0.6313725490196078" d="M 48.5 213 L 53.5 219 L 48.5 213 Z " /><path fill="rgb(138,64,30)" stroke="rgb(138,64,30)" stroke-width="1" opacity="0.6313725490196078" d="M 243.5 215 L 239.5 220 L 243.5 215 Z " /><path fill="rgb(138,64,30)" stroke="rgb(138,64,30)" stroke-width="1" opacity="0.6313725490196078" d="M 233.5 217 L 235 217.5 L 224.5 226 L 227.5 222 L 233.5 217 Z " /><path fill="rgb(138,64,30)" stroke="rgb(138,64,30)" stroke-width="1" opacity="0.6313725490196078" d="M 46.5 218 L 50.5 223 L 46.5 218 Z " /><path fill="rgb(138,64,30)" stroke="rgb(138,64,30)" stroke-width="1" opacity="0.6313725490196078" d="M 67.5 218 L 69.5 221 L 67.5 218 Z " /><path fill="rgb(138,64,30)" stroke="rgb(138,64,30)" stroke-width="1" opacity="0.6313725490196078" d="M 76.5 218 L 78.5 221 L 76.5 218 Z " /><path fill="rgb(138,64,30)" stroke="rgb(138,64,30)" stroke-width="1" opacity="0.6313725490196078" d="M 80.5 221 L 82.5 224 L 80.5 221 Z " /><path fill="rgb(138,64,30)" stroke="rgb(138,64,30)" stroke-width="1" opacity="0.6313725490196078" d="M 61.5 222 L 70 222.5 L 61.5 223 L 61.5 222 Z " /><path fill="rgb(138,64,30)" stroke="rgb(138,64,30)" stroke-width="1" opacity="0.6313725490196078" d="M 234.5 223 L 231.5 227 L 234.5 223 Z " /><path fill="rgb(138,64,30)" stroke="rgb(138,64,30)" stroke-width="1" opacity="0.6313725490196078" d="M 56.5 225 L 59 226.5 L 57.5 227 L 56.5 225 Z " /><path fill="rgb(138,64,30)" stroke="rgb(138,64,30)" stroke-width="1" opacity="0.6313725490196078" d="M 86.5 225 L 87.5 227 L 86.5 225 Z " /><path fill="rgb(138,64,30)" stroke="rgb(138,64,30)" stroke-width="1" opacity="0.6313725490196078" d="M 222.5 226 L 221.5 228 L 220 227.5 L 222.5 226 Z " /><path fill="rgb(138,64,30)" stroke="rgb(138,64,30)" stroke-width="1" opacity="0.6313725490196078" d="M 67.5 228 L 69 230.5 L 68 230.5 L 67.5 228 Z " /><path fill="rgb(138,64,30)" stroke="rgb(138,64,30)" stroke-width="1" opacity="0.6313725490196078" d="M 218.5 228 L 217.5 230 L 218.5 228 Z " /><path fill="rgb(138,64,30)" stroke="rgb(138,64,30)" stroke-width="1" opacity="0.6313725490196078" d="M 228.5 228 L 227.5 230 L 228.5 228 Z " /><path fill="rgb(138,64,30)" stroke="rgb(138,64,30)" stroke-width="1" opacity="0.6313725490196078" d="M 81.5 229 L 85 231.5 L 83.5 231 L 81.5 230 L 80.5 233 L 80 230.5 L 81.5 229 Z " /><path fill="rgb(138,64,30)" stroke="rgb(138,64,30)" stroke-width="1" opacity="0.6313725490196078" d="M 93.5 229 L 100 232.5 L 98.5 233 Q 93.9 231.8 93.5 229 Z " /><path fill="rgb(138,64,30)" stroke="rgb(138,64,30)" stroke-width="1" opacity="0.6313725490196078" d="M 214.5 230 L 216 230.5 L 210.5 233 L 210.5 232 L 214.5 230 Z " /><path fill="rgb(138,64,30)" stroke="rgb(138,64,30)" stroke-width="1" opacity="0.6313725490196078" d="M 225.5 230 L 224.5 232 L 225.5 230 Z " /><path fill="rgb(138,64,30)" stroke="rgb(138,64,30)" stroke-width="1" opacity="0.6313725490196078" d="M 86.5 232 L 90 234.5 L 88.5 234 L 86.5 232 Z " /><path fill="rgb(138,64,30)" stroke="rgb(138,64,30)" stroke-width="1" opacity="0.6313725490196078" d="M 222.5 232 L 221.5 234 L 222.5 232 Z " /><path fill="rgb(138,64,30)" stroke="rgb(138,64,30)" stroke-width="1" opacity="0.6313725490196078" d="M 70.5 234 L 74 236.5 L 72.5 236 L 70.5 234 Z " /><path fill="rgb(138,64,30)" stroke="rgb(138,64,30)" stroke-width="1" opacity="0.6313725490196078" d="M 79.5 234 L 77.5 237 L 79.5 234 Z " /><path fill="rgb(138,64,30)" stroke="rgb(138,64,30)" stroke-width="1" opacity="0.6313725490196078" d="M 110.5 237 L 114 237.5 L 110.5 238 L 110.5 237 Z " /><path fill="rgb(138,64,30)" stroke="rgb(138,64,30)" stroke-width="1" opacity="0.6313725490196078" d="M 193.5 237 L 196 237.5 L 193.5 238 L 193.5 237 Z " /><path fill="rgb(138,64,30)" stroke="rgb(138,64,30)" stroke-width="1" opacity="0.6313725490196078" d="M 97.5 238 L 101 239.5 L 99.5 240 L 97.5 238 Z " /><path fill="rgb(138,64,30)" stroke="rgb(138,64,30)" stroke-width="1" opacity="0.6313725490196078" d="M 117.5 238 L 120 238.5 L 117.5 239 L 117.5 238 Z " /><path fill="rgb(138,64,30)" stroke="rgb(138,64,30)" stroke-width="1" opacity="0.6313725490196078" d="M 189.5 238 L 192 238.5 L 189.5 239 L 189.5 238 Z " /><path fill="rgb(138,64,30)" stroke="rgb(138,64,30)" stroke-width="1" opacity="0.6313725490196078" d="M 121.5 239 L 127 241.5 L 124.5 242 L 121.5 239 Z " /><path fill="rgb(138,64,30)" stroke="rgb(138,64,30)" stroke-width="1" opacity="0.6313725490196078" d="M 184.5 239 L 187 239.5 L 184.5 240 L 184.5 239 Z " /><path fill="rgb(138,64,30)" stroke="rgb(138,64,30)" stroke-width="1" opacity="0.6313725490196078" d="M 175.5 240 L 182 240.5 L 175.5 241 L 175.5 240 Z " /><path fill="rgb(138,64,30)" stroke="rgb(138,64,30)" stroke-width="1" opacity="0.6313725490196078" d="M 166.5 241 L 173 241.5 L 166.5 242 L 166.5 241 Z " /><path fill="rgb(138,64,30)" stroke="rgb(138,64,30)" stroke-width="1" opacity="0.6313725490196078" d="M 130.5 242 L 141 242.5 L 130.5 243 L 130.5 242 Z " /><path fill="rgb(138,64,30)" stroke="rgb(138,64,30)" stroke-width="1" opacity="0.6313725490196078" d="M 144.5 242 L 158 242.5 L 144.5 243 L 144.5 242 Z " /><path fill="rgb(138,64,30)" stroke="rgb(138,64,30)" stroke-width="1" opacity="0.6313725490196078" d="M 197.5 242 L 200 242.5 L 197.5 243 L 197.5 242 Z " /><path fill="rgb(138,64,30)" stroke="rgb(138,64,30)" stroke-width="1" opacity="0.6313725490196078" d="M 111.5 243 L 115 243.5 L 111.5 244 L 111.5 243 Z " /><path fill="rgb(138,64,30)" stroke="rgb(138,64,30)" stroke-width="1" opacity="0.6313725490196078" d="M 116.5 244 Q 119.8 242.9 119 245.5 L 117.5 245 L 116.5 244 Z " /><path fill="rgb(138,64,30)" stroke="rgb(138,64,30)" stroke-width="1" opacity="0.6313725490196078" d="M 166.5 247 L 173 247.5 L 166.5 248 L 166.5 247 Z " /><path fill="rgb(138,64,30)" stroke="rgb(138,64,30)" stroke-width="1" opacity="0.6313725490196078" d="M 178.5 247 L 181 252.5 L 180 252.5 L 178.5 247 Z " /><path fill="rgb(138,64,30)" stroke="rgb(138,64,30)" stroke-width="1" opacity="0.6313725490196078" d="M 120.5 248 L 121 249.5 L 119.5 252 L 119 250.5 L 120.5 248 Z " /><path fill="rgb(138,64,30)" stroke="rgb(138,64,30)" stroke-width="1" opacity="0.6313725490196078" d="M 127.5 248 L 138 248.5 L 127.5 249 L 127.5 248 Z " /><path fill="rgb(138,64,30)" stroke="rgb(138,64,30)" stroke-width="1" opacity="0.6313725490196078" d="M 151.5 248 L 159 248.5 L 151.5 249 L 151.5 248 Z " /><path fill="rgb(138,64,30)" stroke="rgb(138,64,30)" stroke-width="1" opacity="0.6313725490196078" d="M 183.5 249 L 187 254.5 L 185 253.5 L 183.5 249 Z " /><path fill="rgb(138,64,30)" stroke="rgb(138,64,30)" stroke-width="1" opacity="0.6313725490196078" d="M 118.5 253 L 119 255.5 L 116.5 260 L 116 258.5 L 118.5 253 Z " /><path fill="rgb(138,64,30)" stroke="rgb(138,64,30)" stroke-width="1" opacity="0.6313725490196078" d="M 181.5 254 L 183 256.5 L 181 255.5 L 181.5 254 Z " /><path fill="rgb(138,64,30)" stroke="rgb(138,64,30)" stroke-width="1" opacity="0.6313725490196078" d="M 189.5 260 L 194 266.5 L 192 265.5 L 189.5 260 Z " /><path fill="rgb(138,64,30)" stroke="rgb(138,64,30)" stroke-width="1" opacity="0.6313725490196078" d="M 184.5 261 L 185.5 263 L 184.5 261 Z " /><path fill="rgb(138,64,30)" stroke="rgb(138,64,30)" stroke-width="1" opacity="0.6313725490196078" d="M 118.5 263 L 119 264.5 L 116.5 270 L 116 268.5 L 118.5 263 Z " /><path fill="rgb(138,64,30)" stroke="rgb(138,64,30)" stroke-width="1" opacity="0.6313725490196078" d="M 187.5 266 L 190 270.5 L 189 270.5 L 187.5 266 Z " /><path fill="rgb(138,64,30)" stroke="rgb(138,64,30)" stroke-width="1" opacity="0.6313725490196078" d="M 196.5 268 L 206 268.5 L 196.5 269 L 196.5 268 Z " /><path fill="rgb(138,64,30)" stroke="rgb(138,64,30)" stroke-width="1" opacity="0.6313725490196078" d="M 207.5 269 L 210 270.5 L 208.5 270 L 207.5 269 Z " /><path fill="rgb(138,64,30)" stroke="rgb(138,64,30)" stroke-width="1" opacity="0.6313725490196078" d="M 211.5 271 L 213 273.5 L 212 273.5 L 211.5 271 Z " /><path fill="rgb(138,64,30)" stroke="rgb(138,64,30)" stroke-width="1" opacity="0.6313725490196078" d="M 110.5 274 L 109.5 276 L 110.5 274 Z " /><path fill="rgb(138,64,30)" stroke="rgb(138,64,30)" stroke-width="1" opacity="0.6313725490196078" d="M 186.5 274 L 187 277.5 L 186 277.5 L 186.5 274 Z " /><path fill="rgb(138,64,30)" stroke="rgb(138,64,30)" stroke-width="1" opacity="0.6313725490196078" d="M 116.5 275 Q 123.4 274.1 125 278.5 L 122.5 277 L 116.5 276 L 116.5 275 Z " /><path fill="rgb(138,64,30)" stroke="rgb(138,64,30)" stroke-width="1" opacity="0.6313725490196078" d="M 106.5 276 L 108 276.5 Q 101.8 278.3 98.5 283 L 102.5 278 L 106.5 276 Z " /><path fill="rgb(138,64,30)" stroke="rgb(138,64,30)" stroke-width="1" opacity="0.6313725490196078" d="M 187.5 279 L 188.5 281 L 187.5 279 Z " /><path fill="rgb(138,64,30)" stroke="rgb(138,64,30)" stroke-width="1" opacity="0.6313725490196078" d="M 211.5 279 L 210.5 281 L 209 280.5 L 211.5 279 Z " /><path fill="rgb(138,64,30)" stroke="rgb(138,64,30)" stroke-width="1" opacity="0.6313725490196078" d="M 125.5 280 Q 127.8 280.8 127 284.5 L 126 284.5 L 125.5 280 Z " /><path fill="rgb(138,64,30)" stroke="rgb(138,64,30)" stroke-width="1" opacity="0.6313725490196078" d="M 190.5 281 L 194 282.5 L 191.5 283 L 190.5 281 Z " /><path fill="rgb(138,64,30)" stroke="rgb(138,64,30)" stroke-width="1" opacity="0.6313725490196078" d="M 202.5 282 L 206 282.5 L 202.5 283 L 202.5 282 Z " /><path fill="rgb(138,64,30)" stroke="rgb(138,64,30)" stroke-width="1" opacity="0.6313725490196078" d="M 98.5 286 L 100 288.5 L 98 287.5 L 98.5 286 Z " /><path fill="rgb(138,64,30)" stroke="rgb(138,64,30)" stroke-width="1" opacity="0.6313725490196078" d="M 125.5 286 L 123.5 289 L 121.5 290 L 122.5 288 L 125.5 286 Z " /><path fill="rgb(138,64,30)" stroke="rgb(138,64,30)" stroke-width="1" opacity="0.6313725490196078" d="M 101.5 289 L 105 290.5 L 102.5 291 L 101.5 289 Z " /><path fill="rgb(138,64,30)" stroke="rgb(138,64,30)" stroke-width="1" opacity="0.6313725490196078" d="M 107.5 291 L 114 291.5 L 107.5 292 L 107.5 291 Z " /></svg>