<svg width="100%" height="300" viewBox="0 0 300 300" version="1.1" xmlns="http://www.w3.org/2000/svg" desc="Created with imagetracer.js version 1.2.6" ><path fill="rgb(0,0,0)" stroke="rgb(0,0,0)" stroke-width="1" opacity="0" d="M 0 0 L 300 0 L 300 300 L 0 300 L 0 0 Z M 76 37 L 71 38 L 68 41 L 67 46 L 69 52 L 68 70 L 66 80 L 63 84 Q 65 90 61 89 L 60 93 Q 61 96 58 95 L 57 100 Q 58 102 55 101 L 55 105 L 54 105 L 54 107 L 50 115 Q 51 119 48 118 L 48 122 L 42 134 Q 43 137 40 136 L 38 147 L 38 173 Q 41 174 39 180 Q 41 181 40 186 L 42 189 L 42 193 L 46 202 L 46 204 L 48 204 L 56 218 L 62 222 Q 64 221 63 224 L 66 224 L 66 226 L 82 233 L 83 235 L 83 241 L 85 244 L 86 253 L 89 258 L 88 260 Q 87 269 89 273 L 95 276 Q 101 276 103 273 Q 102 269 105 270 L 106 266 Q 104 264 105 259 Q 104 254 99 255 L 96 251 L 96 249 L 92 237 Q 100 239 113 238 Q 114 241 116 239 L 117 240 L 138 240 L 138 261 L 135 261 L 135 263 L 132 264 L 129 269 L 129 276 L 133 277 L 142 277 L 149 272 L 151 269 L 151 265 L 148 263 L 148 256 L 147 255 L 148 253 L 146 251 L 146 238 L 151 237 L 152 235 Q 151 232 154 233 L 153 232 L 154 230 L 152 227 L 151 227 Q 149 225 145 226 L 143 226 L 140 228 L 107 228 L 105 227 L 103 227 Q 101 224 95 226 L 90 224 L 92 210 Q 91 207 86 208 Q 83 209 85 211 L 83 221 L 82 219 Q 75 218 72 213 L 69 213 Q 70 210 68 211 L 64 207 Q 65 204 62 205 L 54 192 L 50 179 L 49 165 L 48 164 L 49 161 L 48 156 L 49 146 L 49 144 L 66 103 Q 69 101 67 100 L 69 100 L 72 88 L 75 83 L 75 78 L 77 76 Q 76 71 78 70 L 78 49 Q 80 45 82 49 Q 88 47 87 51 L 99 52 L 104 54 L 111 54 L 113 54 L 114 55 L 122 55 L 125 57 L 127 56 Q 132 55 134 57 L 161 57 L 163 59 L 184 60 L 186 60 L 185 62 L 197 63 L 199 63 L 213 70 Q 216 69 215 72 L 218 73 Q 221 72 220 75 L 224 76 Q 226 75 225 78 L 231 81 L 232 84 L 236 87 Q 235 89 238 88 L 243 95 L 250 112 Q 249 116 252 115 L 252 122 L 253 123 L 252 140 L 252 142 L 250 142 L 249 147 Q 250 151 247 150 L 246 157 L 242 163 L 242 165 L 239 167 Q 240 170 237 169 L 230 181 L 227 182 L 225 187 L 216 192 L 215 195 Q 212 194 213 197 L 211 198 Q 208 197 209 200 L 205 200 L 205 202 L 203 203 Q 199 202 200 205 L 197 205 L 197 207 L 189 211 Q 184 209 185 213 L 184 212 L 169 218 L 166 218 L 164 218 Q 157 219 155 225 L 158 230 L 173 229 L 180 225 L 187 224 L 196 220 L 197 249 L 199 252 L 199 264 L 202 269 L 206 270 Q 209 269 208 272 Q 216 274 219 269 L 220 269 L 220 260 L 214 255 L 210 255 L 208 254 L 207 239 L 205 236 L 204 219 L 202 217 L 214 209 Q 216 210 215 207 L 220 206 L 222 203 Q 224 204 223 201 L 230 197 L 231 194 L 235 193 L 236 190 Q 235 187 238 188 L 254 165 L 258 152 L 261 147 L 263 136 L 264 133 L 263 115 L 261 113 L 258 99 L 256 97 L 254 90 Q 251 88 253 86 Q 250 87 251 84 L 250 84 L 248 82 Q 249 79 247 80 L 244 76 Q 241 77 242 74 L 240 74 L 240 72 L 219 58 Q 211 57 208 53 L 203 53 L 201 51 L 185 50 L 182 48 L 168 48 L 167 47 L 138 47 Q 136 43 135 46 L 132 45 L 109 44 L 108 43 L 98 43 L 96 41 L 85 40 Q 83 36 76 37 Z M 201 71 L 193 77 Q 194 80 191 79 L 191 87 L 193 89 L 194 94 L 202 99 Q 206 100 208 98 L 211 98 L 216 103 Q 218 102 217 105 L 219 105 L 225 116 Q 224 120 227 119 L 229 126 L 228 128 L 231 135 L 228 145 L 228 150 Q 229 152 233 151 L 238 143 Q 236 136 239 135 L 238 133 L 238 124 L 236 123 L 235 114 L 230 105 Q 231 102 228 103 L 228 101 L 222 92 L 215 89 L 217 85 L 213 75 L 205 71 L 201 71 Z M 156 90 L 155 93 Q 156 96 153 95 L 153 99 L 148 108 Q 146 116 151 118 L 156 117 L 159 112 Q 158 108 161 109 Q 163 103 162 93 Q 161 89 156 90 Z M 169 117 L 165 120 Q 166 122 162 121 L 158 127 L 161 135 L 167 136 L 171 135 Q 178 132 177 122 Q 175 117 169 117 Z M 96 123 L 88 125 L 85 130 L 86 133 L 90 135 Q 98 134 104 136 L 106 136 Q 107 133 114 135 Q 118 134 116 127 L 113 124 Q 106 125 103 123 L 101 123 L 99 124 L 96 123 Z M 156 141 L 151 142 L 147 146 Q 148 148 146 147 L 143 151 L 144 161 L 147 162 L 149 165 Q 151 164 150 167 L 161 167 L 161 166 L 164 164 L 165 160 L 166 157 L 165 152 L 166 148 L 164 148 L 164 145 Q 161 146 162 144 L 156 141 Z M 117 142 L 115 143 L 112 146 L 112 154 L 111 155 L 112 157 L 118 160 L 124 158 Q 130 154 128 143 Q 125 141 117 142 Z " /><path fill="rgb(0,0,0)" stroke="rgb(0,0,0)" stroke-width="1" opacity="0" d="M 153.5 150 L 156 151.5 L 157 158 L 153 158 L 153 156.5 L 151 152.5 L 153.5 150 Z " /><path fill="rgb(117,36,10)" stroke="rgb(117,36,10)" stroke-width="1" opacity="0.07058823529411765" d="M 75.5 37 Q 82.6 35.9 84.5 40 L 95.5 41 L 97.5 43 L 107.5 43 L 108.5 44 L 131.5 45 L 134.5 46 Q 136 43.5 137.5 47 L 181.5 48 L 184.5 50 L 200.5 51 L 202.5 53 Q 209 52 211 55.5 L 209.5 55 Q 202.7 55.3 199.5 52 L 183.5 51 L 177.5 49 L 135.5 48 L 128.5 46 L 97.5 44 L 94.5 42 L 84.5 41 L 77.5 38 L 74.5 42 L 74 40 L 71.5 39 Q 67 41 69 49.5 L 70 50.5 L 70 62.5 L 69 63.5 L 68 75.5 L 66.5 78 L 66 75.5 L 68 69.5 L 69 51.5 L 67 45.5 L 68 40.5 L 70.5 38 L 75.5 37 Z " /><path fill="rgb(117,36,10)" stroke="rgb(117,36,10)" stroke-width="1" opacity="0.07058823529411765" d="M 76.5 44 L 80.5 47 L 95.5 51 L 109.5 52 L 123.5 55 L 150 56.5 L 133.5 57 Q 132 54.5 126.5 56 L 124.5 57 L 121.5 55 L 113.5 55 L 112.5 54 L 110.5 54 L 103.5 54 L 98.5 52 L 87 51 Q 88.4 47 81.5 49 Q 79.8 45.3 78 48.5 L 78 69.5 Q 75.7 70.8 77 75.5 L 75 77.5 L 75 82.5 L 72 87.5 L 69 99.5 L 66 102.5 L 57.5 122 L 57 120.5 L 66 100 L 68 99.5 L 67 97.5 L 70 92.5 L 73 84.5 L 74 76.5 L 76 73.5 L 77 49.5 Q 74.6 48.1 76.5 44 Z " /><path fill="rgb(117,36,10)" stroke="rgb(117,36,10)" stroke-width="1" opacity="0.07058823529411765" d="M 212.5 56 L 218.5 58 L 240 72 L 240 74 L 242 74 Q 240.9 76.7 243.5 76 L 246.5 80 Q 248.8 79.3 248 81.5 L 249.5 84 L 251 83.5 Q 249.9 86.8 252.5 86 Q 250.9 87.8 254 89.5 L 256 96.5 L 258 98.5 L 261 112.5 L 263 114.5 L 264 132.5 L 263 135.5 L 261 146.5 L 258 151.5 L 254 164.5 L 238 188 Q 235.3 186.9 236 189.5 L 235 193 L 231 194 L 229.5 197 L 223 201 Q 224.1 203.7 221.5 203 L 220 206 L 215 207 Q 216.1 209.7 213.5 209 L 202 216.5 L 204 218.5 L 205 235.5 L 207 238.5 L 208 253.5 L 209.5 255 L 213.5 255 L 220 260 L 220 268.5 L 218.5 269 Q 216.3 274 208 272 Q 209.3 269 205.5 270 L 202 269 L 199 263.5 L 199 255.5 L 200 255.5 Q 198.4 265.6 204.5 268 L 210.5 271 L 213.5 271 L 218 269 L 219 262.5 L 212.5 256 Q 208 257 207 254.5 L 206 241.5 L 203 228.5 L 203 219.5 L 201 215.5 L 225.5 199 L 234 190.5 Q 240.1 179.1 249 170.5 L 254 161.5 L 257 151.5 L 259 149.5 L 259 145.5 L 262 137.5 L 262 116.5 L 253 90.5 Q 247.8 80.8 239.5 74 L 236.5 72 L 229.5 66 L 213.5 58 L 212.5 56 Z " /><path fill="rgb(117,36,10)" stroke="rgb(117,36,10)" stroke-width="1" opacity="0.07058823529411765" d="M 161.5 57 L 180 59.5 L 170.5 60 Q 168.8 57.2 162.5 59 L 161.5 57 Z " /><path fill="rgb(117,36,10)" stroke="rgb(117,36,10)" stroke-width="1" opacity="0.07058823529411765" d="M 184.5 60 L 186.5 60 L 205.5 64 L 213.5 68 Q 229.7 76.3 241 89.5 L 247 99.5 L 253 115.5 L 254 136.5 L 253 141.5 L 251 143.5 L 250 150.5 L 243 164.5 L 228 184.5 L 218.5 194 L 209.5 200 L 209 198 L 213 197 Q 211.9 194.3 214.5 195 L 216 192 L 225 186.5 L 227 182 L 230 180.5 L 237 169 Q 240 170.3 239 166.5 L 242 165 L 242 162.5 L 246 156.5 L 247 150 Q 250.3 151.3 249 146.5 L 250 142 L 252 141.5 L 252 139.5 L 253 122.5 L 252 121.5 L 252 115 Q 248.7 116.3 250 111.5 L 243 94.5 L 237.5 88 Q 235.3 88.8 236 86.5 L 232 83.5 L 230.5 81 L 225 78 Q 226.1 75.3 223.5 76 L 220 75 Q 221.3 72 217.5 73 L 215 72 Q 216.3 69 212.5 70 L 198.5 63 L 196.5 63 L 185.5 62 L 184.5 60 Z " /><path fill="rgb(117,36,10)" stroke="rgb(117,36,10)" stroke-width="1" opacity="0.07058823529411765" d="M 200.5 71 L 204.5 71 L 213 75 L 215 79.5 L 208.5 74 L 201.5 72 L 195 75 L 192 81.5 L 192 84.5 L 193 87.5 L 191 86.5 L 191 79.5 L 193 79 L 193 76.5 L 200.5 71 Z " /><path fill="rgb(117,36,10)" stroke="rgb(117,36,10)" stroke-width="1" opacity="0.07058823529411765" d="M 65.5 80 L 65 81.5 L 63.5 88 L 63 83.5 L 65.5 80 Z " /><path fill="rgb(117,36,10)" stroke="rgb(117,36,10)" stroke-width="1" opacity="0.07058823529411765" d="M 215.5 82 L 217 84.5 L 215.5 88 L 215.5 82 Z " /><path fill="rgb(117,36,10)" stroke="rgb(117,36,10)" stroke-width="1" opacity="0.07058823529411765" d="M 61 89 L 63 89.5 L 53.5 109 L 53 107.5 L 53.5 105 L 55 105 L 55 101 Q 57.7 102.1 57 99.5 L 58 95 Q 61 96.3 60 92.5 L 61 89 Z " /><path fill="rgb(117,36,10)" stroke="rgb(117,36,10)" stroke-width="1" opacity="0.07058823529411765" d="M 193.5 89 L 199.5 97 L 204.5 98 Q 205.7 95.8 210.5 97 L 220 104.5 Q 226.6 112.4 229 124.5 L 228 124.5 L 227 119 Q 223.7 120.3 225 115.5 L 219 105 L 217 105 Q 218.1 102.3 215.5 103 L 210.5 98 L 207.5 98 Q 206.3 100.3 201.5 99 L 194 93.5 L 193.5 89 Z " /><path fill="rgb(117,36,10)" stroke="rgb(117,36,10)" stroke-width="1" opacity="0.07058823529411765" d="M 215.5 89 L 222 92 L 228 101.5 L 225 99.5 L 216.5 90 L 215.5 89 Z " /><path fill="rgb(117,36,10)" stroke="rgb(117,36,10)" stroke-width="1" opacity="0.07058823529411765" d="M 156 90 Q 160.7 89 162 92.5 Q 163 103 161 109 Q 158 107.8 159 111.5 L 156 117 L 150.5 118 Q 146 116 148 107.5 L 150 105.5 L 150 102.5 Q 153.4 100.4 153.5 95 L 154 98.5 L 149 108.5 L 149 114.5 Q 150 117 154.5 116 L 160 107.5 L 161 93.5 Q 160.3 91.3 156.5 92 L 155 92.5 L 156 90 Z " /><path fill="rgb(117,36,10)" stroke="rgb(117,36,10)" stroke-width="1" opacity="0.07058823529411765" d="M 228.5 103 Q 230.8 102.3 230 104.5 L 235 113.5 L 236 123 L 238 123.5 L 238 132.5 L 239 134.5 Q 236.2 136.3 238 142.5 L 232.5 151 Q 228.8 151.8 228 149.5 L 228 144.5 L 231 134.5 L 228 127.5 L 230 126.5 L 232 133.5 L 232 138.5 L 229 144.5 L 229 148.5 L 231.5 150 L 237 141.5 L 237 126.5 L 235 123.5 L 235 119.5 L 231 107.5 L 228.5 103 Z " /><path fill="rgb(117,36,10)" stroke="rgb(117,36,10)" stroke-width="1" opacity="0.07058823529411765" d="M 52.5 110 L 53 111.5 L 50.5 116 L 50 114.5 L 52.5 110 Z " /><path fill="rgb(117,36,10)" stroke="rgb(117,36,10)" stroke-width="1" opacity="0.07058823529411765" d="M 168.5 117 L 171 117.5 L 165.5 121 L 165 119.5 L 168.5 117 Z " /><path fill="rgb(117,36,10)" stroke="rgb(117,36,10)" stroke-width="1" opacity="0.07058823529411765" d="M 48 118 L 50 118.5 L 43 136.5 L 41 138.5 L 38.5 152 L 38 146.5 L 40 136 Q 43 137.3 42 133.5 L 48 121.5 L 48 118 Z " /><path fill="rgb(117,36,10)" stroke="rgb(117,36,10)" stroke-width="1" opacity="0.07058823529411765" d="M 172.5 118 L 177 121.5 Q 177.6 132.1 170.5 135 L 166.5 136 L 161 135 L 158 126.5 L 161.5 121 L 163 121.5 Q 158.9 123.4 160 130.5 L 161 133 Q 163.1 134.6 168.5 134 L 175 128.5 L 176 122.5 L 175 120 L 172.5 118 Z " /><path fill="rgb(117,36,10)" stroke="rgb(117,36,10)" stroke-width="1" opacity="0.07058823529411765" d="M 56.5 123 L 57 125.5 L 54.5 130 L 54 128.5 L 56.5 123 Z " /><path fill="rgb(117,36,10)" stroke="rgb(117,36,10)" stroke-width="1" opacity="0.07058823529411765" d="M 95.5 123 L 98.5 124 L 100.5 123 L 102.5 123 Q 105.7 125.3 112.5 124 L 116 126.5 L 115.5 128 Q 106.8 122.7 90.5 125 L 87 127.5 Q 86 132 88.5 133 L 91.5 134 L 112.5 134 L 115.5 130 L 116 132.5 L 113.5 135 Q 107.3 133.2 105.5 136 L 103.5 136 Q 98.4 133.6 89.5 135 L 86 132.5 L 85 129.5 L 87.5 125 L 95.5 123 Z " /><path fill="rgb(117,36,10)" stroke="rgb(117,36,10)" stroke-width="1" opacity="0.07058823529411765" d="M 166 124 L 169 125.5 Q 169.8 127.8 167.5 127 L 166 127.5 L 166 124 Z " /><path fill="rgb(117,36,10)" stroke="rgb(117,36,10)" stroke-width="1" opacity="0.07058823529411765" d="M 53.5 131 L 54 132.5 L 49 143.5 L 49 145.5 L 48 155.5 L 49 160.5 L 48 163.5 L 49 164.5 L 50 178.5 L 54 191.5 L 62 205 Q 64.7 203.9 64 206.5 L 67.5 211 Q 70.1 210.3 69 213 L 71.5 213 Q 75 218.4 82 219 L 82.5 221 L 85 210.5 Q 82.8 209.3 85.5 208 Q 90.8 206.8 92 209.5 L 90 224 L 94 225.5 L 91.5 226 Q 87.3 224.3 89 216.5 L 91 212.5 L 90 209 L 86 210.5 Q 86.8 214.8 84 215.5 L 84 222 Q 68.7 217.1 60 204.5 L 54 194.5 L 49 180.5 L 48 168.5 L 46 162.5 L 46 153.5 L 48 147.5 L 48 142.5 L 53.5 131 Z " /><path fill="rgb(117,36,10)" stroke="rgb(117,36,10)" stroke-width="1" opacity="0.07058823529411765" d="M 155.5 141 L 162 143.5 Q 161.3 146.1 164 145 L 164 148 L 165.5 148 L 165 151.5 L 166 156.5 L 165 159.5 L 164 164 L 161 165.5 L 160.5 167 L 150 167 Q 151.1 164.3 148.5 165 L 147 162 L 144 160.5 L 143 150.5 L 145.5 147 Q 147.8 147.8 147 145.5 L 150.5 142 L 155.5 141 Z M 156 142 L 152 143 L 144 152 L 146 161 L 153 166 L 161 165 L 164 160 Q 165 151 163 147 Q 161 142 156 142 Z " /><path fill="rgb(117,36,10)" stroke="rgb(117,36,10)" stroke-width="1" opacity="0.07058823529411765" d="M 116.5 142 Q 124.7 140.9 128 143 Q 129.8 154 123.5 158 L 117.5 160 L 112 156.5 L 111 154.5 L 112.5 154 L 114 157 L 119.5 158 L 126 153.5 L 127 144.5 L 125.5 143 L 117.5 143 L 114 145.5 L 112.5 148 L 112 145.5 L 116.5 142 Z " /><path fill="rgb(117,36,10)" stroke="rgb(117,36,10)" stroke-width="1" opacity="0.07058823529411765" d="M 117.5 149 L 119.5 150 L 121.5 149 L 120.5 151 Q 116.7 151.5 117.5 149 Z " /><path fill="rgb(117,36,10)" stroke="rgb(117,36,10)" stroke-width="1" opacity="0.07058823529411765" d="M 152.5 149 L 157 150 Q 158.8 152.4 158 158.5 L 155.5 160 L 150 155.5 Q 149.4 150.4 152.5 149 Z M 154 150 L 151 153 L 153 157 L 153 158 L 157 158 L 156 152 L 154 150 Z " /><path fill="rgb(117,36,10)" stroke="rgb(117,36,10)" stroke-width="1" opacity="0.07058823529411765" d="M 38.5 165 L 41 183.5 L 43 186.5 L 46 198.5 Q 52 213 63.5 222 L 84 233.5 L 84 239.5 L 86 242.5 L 86 246.5 L 90 259.5 L 89 260.5 L 89 269.5 L 92.5 274 L 96.5 275 L 102 271.5 Q 105.8 268.3 104 259.5 L 100.5 256 Q 96.8 256.8 96 254.5 L 92 244.5 L 91 236 L 102 237.5 L 96.5 238 L 92 237 L 96 248.5 L 96 250.5 L 98.5 255 Q 104.3 254.3 105 258.5 Q 103.5 264 106 265.5 L 105 270 Q 102 268.8 103 272.5 Q 100.9 276.4 94.5 276 L 89 273 Q 86.6 269.1 88 259.5 L 89 257.5 L 86 252.5 L 85 243.5 L 83 240.5 L 83 234.5 L 81.5 233 L 66 226 L 66 224 L 63 224 Q 64.1 221.3 61.5 222 L 56 218 L 48 204 L 46 203.5 L 46 201.5 L 40 185.5 L 39 173.5 L 38 172.5 L 38.5 165 Z " /><path fill="rgb(117,36,10)" stroke="rgb(117,36,10)" stroke-width="1" opacity="0.07058823529411765" d="M 205 200 L 208 200.5 L 192.5 210 L 193.5 208 L 197 207 L 197 205 L 200 205 Q 198.8 202 202.5 203 L 205 202 L 205 200 Z " /><path fill="rgb(117,36,10)" stroke="rgb(117,36,10)" stroke-width="1" opacity="0.07058823529411765" d="M 189.5 210 L 191 210.5 L 185 213 Q 183.7 209.7 188.5 211 L 189.5 210 Z " /><path fill="rgb(117,36,10)" stroke="rgb(117,36,10)" stroke-width="1" opacity="0.07058823529411765" d="M 183.5 212 L 184 214 L 169.5 219 L 162.5 220 L 157 223 L 158 228 Q 160.7 229.9 167.5 229 L 178.5 225 L 177.5 227 Q 170.1 231.4 158 230 L 155 224.5 Q 157.4 219.4 163.5 218 L 165.5 218 L 168.5 218 L 183.5 212 Z " /><path fill="rgb(117,36,10)" stroke="rgb(117,36,10)" stroke-width="1" opacity="0.07058823529411765" d="M 195.5 218 L 198 218.5 L 196.5 222 L 196 220 L 186.5 224 L 180.5 225 L 180.5 224 Q 189.5 222.5 195.5 218 Z " /><path fill="rgb(117,36,10)" stroke="rgb(117,36,10)" stroke-width="1" opacity="0.07058823529411765" d="M 95.5 226 Q 101 224.5 102.5 227 L 104.5 227 L 106.5 228 L 139.5 228 L 142.5 226 L 144.5 226 Q 149.2 224.8 150.5 227 L 152 226.5 L 154 229.5 L 153 231.5 L 153.5 233 Q 151.3 232.3 152 234.5 L 151 237 L 146 238 L 146 250.5 L 148 252.5 L 147 254.5 L 148 255.5 L 148 263 L 151 264.5 L 151 268.5 L 149 272 L 141.5 277 L 132.5 277 L 129 276 L 129 268.5 L 132 264 L 135 262.5 L 135 261 L 138 260.5 L 138 240 L 116.5 240 L 115.5 239 L 112 239.5 Q 113.3 236.8 118.5 238 L 119.5 239 L 135.5 239 L 139 238 L 139 261.5 L 137.5 262 L 132 266.5 Q 129.2 268.2 130 273.5 Q 132 277 138.5 276 Q 145.9 274.9 149 269.5 L 150 265.5 Q 142.6 256.4 145 237.5 L 151 233.5 L 152 229.5 Q 151.3 226.3 146.5 227 L 141.5 229 L 104.5 229 Q 101.6 226.4 95.5 227 L 95.5 226 Z " /><path fill="rgb(117,36,10)" stroke="rgb(117,36,10)" stroke-width="1" opacity="0.07058823529411765" d="M 196.5 227 L 199 250.5 L 198 250.5 L 196 240.5 L 196.5 227 Z " /><path fill="rgb(131,56,26)" stroke="rgb(131,56,26)" stroke-width="1" opacity="0.8196078431372549" d="M 77.5 38 L 84.5 41 L 94.5 42 L 97.5 44 Q 103.8 42.3 105.5 45 L 118.5 45 L 135.5 48 L 165.5 48 L 166.5 49 L 177.5 49 L 183.5 51 L 199.5 52 L 215.5 58 L 238 72 Q 236.9 74.7 239.5 74 L 250 85.5 L 259 105.5 Q 259 112.5 262 116.5 L 262 137.5 Q 258.8 141.8 259 149.5 L 257 151.5 L 254 161.5 L 249 170.5 Q 240.1 179.1 234 190.5 L 225.5 199 L 201 215.5 L 203 219.5 L 204 236.5 L 206 241.5 L 207 254.5 L 208.5 256 L 212.5 256 L 219 262.5 L 218 269 L 210.5 271 L 201 264.5 L 199 254.5 L 199 247.5 L 198 246.5 L 196 222.5 L 198 218.5 L 195.5 218 L 171.5 228 L 160.5 229 L 158 228 L 157 223 L 162.5 220 L 169.5 219 L 195.5 209 L 218.5 194 L 228 184.5 L 243 164.5 L 250 150.5 L 251 143.5 L 253 141.5 L 254 136.5 L 254 121.5 L 250 106.5 L 248 104.5 L 244 93.5 L 231.5 80 Q 216.7 66.8 194.5 61 L 180.5 60 L 173.5 58 L 164.5 58 L 163.5 57 L 135.5 56 L 134.5 55 L 116.5 54 L 109.5 52 L 101.5 52 L 80.5 47 L 76.5 44 L 76 48.5 L 77 49.5 L 77 66.5 L 70 92.5 L 59 114.5 L 54 130.5 L 48 142.5 L 48 147.5 L 46 153.5 L 46 162.5 L 48 168.5 L 49 180.5 L 54 194.5 Q 60.3 207.7 71.5 216 L 84 222 L 84 215.5 L 87.5 209 Q 91.3 207.8 90 211.5 L 90 213.5 L 89 223.5 L 91.5 226 L 104.5 229 L 141.5 229 L 149.5 227 Q 152.5 227.5 152 231.5 L 148.5 236 L 145 237.5 L 145 253.5 L 147 262.5 Q 150.5 263 150 267.5 L 144.5 274 L 138.5 276 L 133.5 276 L 130 273.5 L 130 269.5 L 135.5 263 L 139 262 L 139 238.5 L 136.5 238 L 135.5 239 L 119.5 239 L 118.5 238 L 102.5 238 Q 97.9 235.3 91 236 Q 91.2 248.3 97.5 256 Q 103.3 255.3 104 259.5 Q 106 270 100.5 273 L 95.5 275 L 90 271.5 Q 87.5 268 89 260.5 L 90 256.5 L 87 250.5 L 86 242.5 L 84 239.5 L 84 233.5 L 82.5 232 Q 65.8 226.8 56 214.5 L 46 198.5 L 43 186.5 L 41 183.5 L 40 171.5 L 38 164.5 L 38 152.5 L 40 147.5 L 41 138.5 L 46 129.5 L 53 109.5 L 61 95.5 L 68 75.5 L 69 63.5 L 70 62.5 L 70 50.5 L 69 49.5 L 69 41.5 Q 70.8 37.3 72.5 40 Q 74.8 39.3 74 41.5 L 75 41.5 L 77.5 38 Z " /><path fill="rgb(131,56,26)" stroke="rgb(131,56,26)" stroke-width="1" opacity="0.8196078431372549" d="M 201.5 72 Q 211.3 73.2 215 80.5 L 215 89.5 L 216.5 90 Q 225.3 97.2 231 107.5 L 234 115.5 L 235 123.5 L 237 126.5 L 237 141.5 L 231.5 150 L 229 148.5 L 229 144.5 L 232 138.5 L 232 133.5 L 226 114.5 Q 222.3 105.7 215.5 100 Q 212.9 96.1 205.5 97 L 202.5 98 L 195 92.5 Q 192 88.5 192 81.5 L 195 75 L 201.5 72 Z " /><path fill="rgb(131,56,26)" stroke="rgb(131,56,26)" stroke-width="1" opacity="0.8196078431372549" d="M 156.5 92 Q 160.3 91.3 161 93.5 L 160 107.5 L 154.5 116 Q 150 117 149 114.5 L 149 108.5 L 156.5 92 Z " /><path fill="rgb(131,56,26)" stroke="rgb(131,56,26)" stroke-width="1" opacity="0.8196078431372549" d="M 169.5 118 L 175 120 L 176 124.5 L 175 128.5 L 170.5 133 L 163.5 134 L 161 133 Q 159.4 130.9 160 125.5 L 163.5 121 L 169.5 118 Z M 166 124 L 166 128 L 168 127 Q 170 128 169 126 L 166 124 Z " /><path fill="rgb(131,56,26)" stroke="rgb(131,56,26)" stroke-width="1" opacity="0.8196078431372549" d="M 90.5 125 L 107.5 125 Q 108.7 127.3 113.5 126 L 116 128.5 L 112.5 134 L 91.5 134 L 87 131.5 Q 86 127 88.5 126 L 90.5 125 Z " /><path fill="rgb(131,56,26)" stroke="rgb(131,56,26)" stroke-width="1" opacity="0.8196078431372549" d="M 155.5 142 Q 161.1 142.5 163 146.5 Q 165.3 151.3 164 159.5 L 160.5 165 L 152.5 166 L 146 160.5 L 144 151.5 L 151.5 143 L 155.5 142 Z M 153 149 Q 149 150 150 156 L 156 160 L 158 159 Q 159 152 157 150 L 153 149 Z " /><path fill="rgb(131,56,26)" stroke="rgb(131,56,26)" stroke-width="1" opacity="0.8196078431372549" d="M 117.5 143 L 125.5 143 L 127 144.5 Q 128.6 154.6 122.5 157 L 117.5 158 L 114 157 L 112 153.5 L 112 148.5 L 115.5 144 L 117.5 143 Z M 118 149 L 119 151 L 122 150 L 118 149 Z " /></svg>