<svg width="100%" height="300"  viewBox="0 0 350 300" version="1.1" xmlns="http://www.w3.org/2000/svg" desc="Created with imagetracer.js version 1.2.6" ><path fill="rgb(0,0,0)" stroke="rgb(0,0,0)" stroke-width="1" opacity="0" d="M 0 0 L 350 0 L 350 300 L 0 300 L 0 0 Z M 124 19 L 120 21 L 118 23 L 118 31 L 112 40 L 109 42 L 107 45 L 104 46 L 103 49 Q 100 48 101 51 L 99 52 L 99 54 L 96 54 L 92 60 Q 89 59 90 62 L 83 67 L 82 71 L 80 71 Q 81 73 78 72 L 62 95 Q 63 98 61 97 L 61 99 L 58 105 L 56 115 L 55 143 L 55 145 L 58 160 L 65 174 L 59 175 Q 54 173 55 177 L 54 176 L 53 178 L 51 178 Q 48 177 49 180 L 43 185 Q 44 187 41 186 L 35 200 L 35 206 L 35 208 Q 37 217 44 223 L 47 224 L 46 227 Q 43 226 44 229 L 40 230 L 35 237 Q 32 236 33 239 L 30 240 L 24 249 L 24 253 L 27 255 L 41 260 Q 44 259 43 262 L 45 261 L 54 265 L 59 265 L 64 268 L 70 267 Q 72 266 71 262 L 59 258 Q 64 258 65 256 L 64 250 L 59 249 Q 57 245 56 248 L 50 244 L 46 244 L 45 248 L 45 249 Q 47 248 46 251 L 57 256 L 57 257 L 33 249 L 33 248 L 46 235 Q 48 236 47 234 Q 50 227 57 226 L 59 223 Q 61 224 60 222 L 66 218 L 70 213 Q 72 212 71 215 L 75 218 L 76 217 Q 79 221 85 221 L 86 223 L 88 222 L 92 224 Q 94 223 93 226 L 96 226 Q 100 227 101 224 Q 103 225 102 222 L 98 218 L 92 217 L 90 215 L 77 211 Q 74 207 72 212 L 69 207 L 57 215 L 56 218 L 51 217 Q 44 213 42 205 L 43 196 L 47 190 Q 54 181 67 179 Q 69 178 68 181 L 70 181 L 73 187 Q 77 192 85 195 L 86 198 L 97 202 L 100 202 L 102 204 L 124 209 L 122 212 L 119 214 L 114 220 Q 111 219 112 223 L 111 223 L 109 226 L 105 226 L 97 232 L 89 241 L 87 242 L 83 247 L 81 248 L 77 253 L 75 254 Q 71 255 72 261 Q 74 265 76 262 L 79 260 L 82 256 L 86 253 L 92 246 Q 94 247 93 244 L 95 244 L 95 243 L 103 236 L 102 238 Q 102 241 105 242 L 112 240 Q 115 241 114 238 L 119 236 L 121 236 L 127 241 Q 129 240 128 243 L 136 245 L 138 247 L 142 247 L 151 252 L 157 252 L 158 248 L 154 244 L 143 241 Q 141 237 140 240 L 133 236 Q 128 237 129 235 L 124 232 Q 123 229 126 230 L 130 224 L 133 223 L 144 225 L 146 224 L 148 224 L 150 223 L 152 223 L 152 221 Q 161 218 168 211 L 170 208 L 176 204 L 180 204 L 186 201 L 200 199 L 211 194 L 213 194 L 213 193 L 215 193 L 215 191 L 226 186 Q 228 187 227 185 Q 228 181 232 182 L 237 175 Q 239 176 238 173 L 240 173 L 242 170 Q 241 167 244 168 L 244 166 L 247 167 L 258 164 Q 261 165 260 162 L 264 162 Q 266 158 271 158 L 276 152 L 281 154 L 283 158 L 286 158 L 298 165 Q 302 164 301 167 L 305 167 L 315 171 L 319 170 L 321 171 L 323 168 L 323 161 L 319 156 L 318 156 L 314 154 L 312 154 L 310 151 L 304 150 L 304 148 L 296 150 L 295 154 L 289 150 Q 286 151 287 148 Q 282 149 281 146 L 287 125 L 287 123 L 296 117 L 307 117 L 308 116 L 310 117 Q 313 116 312 111 Q 308 104 298 103 L 294 101 L 289 101 L 281 104 L 278 108 Q 278 114 282 117 L 275 142 L 268 138 L 257 136 L 259 127 L 259 119 L 255 107 Q 256 102 253 103 L 253 100 L 245 85 L 232 70 Q 233 67 231 68 L 226 62 L 207 50 Q 204 51 205 49 L 204 49 L 181 38 L 156 33 L 154 33 L 152 31 L 138 27 L 129 21 Q 126 22 127 19 L 124 19 Z M 119 238 L 117 244 L 124 249 L 128 249 L 129 247 L 127 242 Q 123 243 124 240 L 119 238 Z M 62 242 L 61 248 L 73 253 L 76 248 L 71 243 L 62 242 Z M 110 244 Q 107 244 107 249 L 108 250 L 103 247 Q 98 247 98 250 L 99 253 L 112 262 Q 114 261 113 264 L 109 263 Q 104 264 105 262 L 103 262 Q 104 259 101 260 L 99 257 L 92 255 L 89 260 L 96 264 L 97 267 L 106 269 Q 107 272 109 270 L 111 271 Q 115 270 114 273 Q 117 275 124 274 Q 128 272 125 271 L 126 269 L 131 270 L 132 266 L 125 260 L 116 256 Q 113 257 114 254 L 112 254 L 110 251 L 118 254 L 132 264 L 134 264 Q 136 263 135 258 L 120 247 L 114 244 L 110 244 Z M 155 253 L 150 257 Q 147 256 148 259 L 146 259 L 136 267 Q 133 266 134 269 L 125 275 Q 122 274 123 277 L 120 279 Q 117 278 118 281 L 116 281 L 116 283 Q 112 284 113 281 L 98 273 Q 93 274 94 272 L 93 272 L 89 271 L 81 265 L 77 267 Q 75 272 79 271 L 80 274 L 87 277 L 90 277 L 113 290 Q 120 291 122 286 Q 124 287 123 284 L 146 269 Q 145 266 149 267 L 149 266 L 155 261 L 157 261 Q 156 258 159 259 L 160 257 Q 162 250 155 253 Z " /><path fill="rgb(0,0,0)" stroke="rgb(0,0,0)" stroke-width="1" opacity="0" d="M 124.5 28 L 135.5 35 L 151.5 40 L 153.5 42 L 155.5 41 L 162.5 44 L 170.5 45 L 176.5 48 L 178.5 48 L 180.5 49 Q 182 46.5 183.5 50 L 197 55 Q 195.7 58.3 200.5 57 L 216 66 L 216 68 Q 218.7 66.9 218 69.5 L 224 73.5 Q 223.3 75.8 225.5 75 L 227 78 L 229 78 Q 227.5 81.7 230.5 81 L 233 85 Q 235.7 83.9 235 86.5 Q 238.1 88.3 236.5 90 Q 238.8 89.3 238 91.5 L 242 96.5 L 242 98.5 L 248 110.5 L 249 119 L 251 119.5 L 250 122.5 L 251 126 L 249 126.5 L 250 128.5 L 248 138.5 L 244 149 L 242 149.5 Q 244.5 151 241 152.5 L 234.5 164 L 232 165.5 L 231 169 Q 228.3 167.9 229 170.5 L 225 173 Q 226.1 175.7 223.5 175 L 217.5 179 L 201.5 187 Q 195.5 187 192.5 190 L 183.5 191 L 180 193 L 182 186.5 L 182 165.5 L 181 163 L 176 163 L 176 177.5 L 177 182.5 L 175 189 Q 172.3 187.9 173 190.5 L 170.5 195 L 154.5 197 L 153 193 Q 150.3 194.1 151 191.5 Q 149.8 188.8 144.5 190 L 134.5 199 L 130 199 L 128.5 202 L 121.5 199 L 119.5 199 L 98.5 193 L 85 185 Q 86.1 182.3 83.5 183 L 76 175.5 L 76 173 Q 73.3 174.1 74 171.5 L 70 165.5 L 69 160 Q 65.7 161.3 67 156.5 L 64 149.5 Q 65.3 141.3 63 136.5 L 63 134.5 L 64 128.5 L 63 126.5 L 64 125.5 L 64 117.5 L 65 116.5 L 66 105.5 L 70 99.5 L 70 97.5 Q 74.8 86.3 83.5 79 Q 85.8 79.8 85 77.5 L 88 73 Q 90.7 74.1 90 71.5 L 96 67 Q 94.9 64.3 97.5 65 L 107.5 54 L 109 54 L 109 52 Q 111.7 53.1 111 50.5 L 116 47 L 116 44.5 L 124 33.5 L 123 31.5 L 124.5 28 Z M 106 127 L 102 131 L 103 139 Q 105 144 112 145 L 116 142 Q 117 136 114 134 L 112 131 Q 111 126 106 127 Z M 150 128 Q 151 131 148 130 L 146 130 L 145 132 L 142 134 Q 143 136 141 135 L 139 137 L 139 145 L 142 145 L 147 143 L 150 141 L 155 133 L 154 131 Q 155 126 150 128 Z M 149 149 L 146 150 L 141 157 L 140 160 L 143 167 L 149 168 L 152 164 Q 154 165 153 163 L 154 160 Q 155 153 153 150 L 149 149 Z M 103 150 L 99 156 Q 98 161 101 164 L 106 167 Q 112 168 113 164 Q 111 159 115 160 L 115 158 L 113 153 Q 111 148 103 150 Z " /><path fill="rgb(0,0,0)" stroke="rgb(0,0,0)" stroke-width="1" opacity="0" d="M 255 143 L 258.5 143 L 269 147 L 267.5 150 L 264 152.5 Q 264.9 155.5 260.5 154 L 252.5 160 L 248 160 L 250 154 L 252 153.5 L 252 151.5 L 254 148.5 L 254 146.5 L 255 143 Z " /><path fill="rgb(0,0,0)" stroke="rgb(0,0,0)" stroke-width="1" opacity="0" d="M 157.5 207 L 160 207.5 L 158 208 Q 159.3 211 155.5 210 Q 151.5 215 142.5 215 L 143.5 213 Q 146.8 214.1 146 211.5 Q 148 207.8 150 209.5 Q 149.5 206.5 156.5 208 L 157.5 207 Z " /><path fill="rgb(0,0,0)" stroke="rgb(0,0,0)" stroke-width="1" opacity="0" d="M 116.5 264 L 119 265.5 L 116 266 L 116.5 264 Z " /><path fill="rgb(131,55,24)" stroke="rgb(131,55,24)" stroke-width="1" opacity="0.9411764705882353" d="M 123 21 L 125.5 21 L 130.5 25 L 145.5 32 L 160.5 36 L 169.5 37 L 194.5 46 Q 219.9 56.1 236 75.5 L 247 91.5 L 254 106.5 L 257 118.5 L 257 126.5 L 255 138 L 267.5 140 L 274.5 144 L 280 133.5 Q 280.2 123.2 284 116.5 L 282 114.5 L 280 107.5 L 283.5 104 L 294.5 103 Q 304.1 104.9 310 110.5 Q 310.8 114.3 308.5 115 L 294.5 115 L 287 119.5 L 279 146.5 L 297 157 Q 295.8 152.4 298.5 151 L 300.5 150 L 317.5 157 L 321 160.5 L 322 165.5 L 321 168 Q 318.9 169.6 313.5 169 L 299.5 164 Q 286.8 158.7 277.5 150 L 275.5 150 Q 266 162.5 246.5 165 L 243.5 164 L 226.5 183 L 201.5 196 L 172.5 203 Q 164.1 213.1 152.5 220 L 140.5 223 L 139.5 222 L 131.5 222 L 121 230 L 118.5 235 L 108.5 240 L 105.5 240 L 104 237.5 L 111 224 L 114 222.5 L 121.5 214 L 130 206.5 L 129 203.5 Q 130.9 199.9 136.5 200 L 144.5 192 L 148.5 192 L 153.5 199 L 170.5 197 L 174 194.5 L 178 184.5 L 178 169.5 L 177 164 L 180 165.5 Q 182.5 173 181 184.5 L 178 194.5 L 179.5 194 Q 216.1 189.1 235 166.5 Q 244.2 154.7 250 139.5 L 252 129.5 L 252 117.5 Q 242.6 85.4 219.5 67 L 206.5 58 L 185.5 48 L 170.5 43 L 144.5 37 L 130.5 30 L 123.5 24 L 122 25.5 L 121 35.5 L 117 41.5 L 83 76.5 L 69 94.5 L 66 100.5 L 62 115.5 L 61 138.5 L 62 139.5 L 62 149.5 L 68 165.5 Q 72.6 175.9 80.5 183 L 83.5 185 L 97.5 194 L 112.5 198 L 118.5 201 L 122.5 201 L 127 203.5 L 125.5 207 L 118.5 207 L 96.5 200 Q 81.6 193.9 72 182.5 Q 63.1 169.9 58 153.5 L 57 148.5 L 57 119.5 L 61 101.5 L 71 83.5 L 114 39.5 L 120 29.5 L 120 23 Q 124.1 24.3 123 21 Z M 254 141 L 246 160 Q 244 161 247 162 Q 259 160 268 153 L 272 148 Q 265 141 254 141 Z M 161 205 L 154 207 L 149 207 L 140 214 Q 137 216 140 217 L 151 216 L 164 207 Q 165 203 161 205 Z M 114 228 L 111 233 L 116 231 Q 118 232 117 230 L 114 228 Z " /><path fill="rgb(131,55,24)" stroke="rgb(131,55,24)" stroke-width="1" opacity="0.9411764705882353" d="M 105.5 129 L 107.5 129 L 113 134.5 L 114 141.5 L 110.5 143 L 106 139.5 L 103 132.5 L 105.5 129 Z " /><path fill="rgb(131,55,24)" stroke="rgb(131,55,24)" stroke-width="1" opacity="0.9411764705882353" d="M 151.5 130 Q 154.9 129.1 153 134.5 Q 149.4 140.9 141.5 143 Q 139.3 142.3 140 138.5 Q 143.6 132.1 151.5 130 Z " /><path fill="rgb(131,55,24)" stroke="rgb(131,55,24)" stroke-width="1" opacity="0.9411764705882353" d="M 104.5 151 Q 111 150 112 154.5 Q 113.5 162.5 109.5 165 L 105.5 165 L 101 160.5 Q 99.5 152.5 104.5 151 Z M 105 155 Q 104 159 107 160 Q 110 161 109 158 L 105 155 Z " /><path fill="rgb(131,55,24)" stroke="rgb(131,55,24)" stroke-width="1" opacity="0.9411764705882353" d="M 147.5 151 Q 152.3 150.3 153 153.5 L 153 158.5 L 147.5 166 Q 143.5 166.5 143 163.5 L 142 159.5 L 145 152 L 147.5 151 Z M 149 156 L 145 160 L 148 160 L 149 158 L 149 156 Z " /><path fill="rgb(131,55,24)" stroke="rgb(131,55,24)" stroke-width="1" opacity="0.9411764705882353" d="M 59.5 176 Q 66.4 174 65 178 Q 50.7 179.8 44 190.5 Q 39.6 195.7 41 206.5 Q 41.9 213.1 46.5 216 L 55.5 220 L 65.5 211 L 69 210 L 64.5 216 Q 45.2 230.2 30 248.5 L 40.5 254 Q 56.3 257.2 69 263.5 L 69 266 L 62.5 266 L 29.5 254 L 25 250.5 L 39.5 234 L 50 224.5 L 48.5 222 L 41 216.5 L 38 210.5 L 37 199.5 Q 40.3 187.3 49.5 181 L 59.5 176 Z " /><path fill="rgb(131,55,24)" stroke="rgb(131,55,24)" stroke-width="1" opacity="0.9411764705882353" d="M 73 212 L 100 221 L 98.5 224 Q 83.3 221.3 73 213.5 L 73 212 Z " /><path fill="rgb(131,55,24)" stroke="rgb(131,55,24)" stroke-width="1" opacity="0.9411764705882353" d="M 104.5 228 L 107 228.5 L 96.5 239 L 95 239 L 95 240.5 L 75.5 260 Q 72.9 260.8 74 257.5 L 104.5 228 Z " /><path fill="rgb(131,55,24)" stroke="rgb(131,55,24)" stroke-width="1" opacity="0.9411764705882353" d="M 122 233 L 134.5 240 L 156 247 L 154.5 251 L 129.5 241 L 122 234.5 L 122 233 Z " /><path fill="rgb(131,55,24)" stroke="rgb(131,55,24)" stroke-width="1" opacity="0.9411764705882353" d="M 119 241 L 121.5 241 L 127 245.5 Q 127.9 248.5 123.5 247 L 119 243.5 L 119 241 Z " /><path fill="rgb(131,55,24)" stroke="rgb(131,55,24)" stroke-width="1" opacity="0.9411764705882353" d="M 63 244 Q 69.4 243.4 73 246 L 74 248.5 L 70.5 250 L 63 246.5 L 63 244 Z " /><path fill="rgb(131,55,24)" stroke="rgb(131,55,24)" stroke-width="1" opacity="0.9411764705882353" d="M 47 246 L 63 252 Q 64.8 256.5 59.5 255 L 49.5 251 L 47 248.5 L 47 246 Z " /><path fill="rgb(131,55,24)" stroke="rgb(131,55,24)" stroke-width="1" opacity="0.9411764705882353" d="M 110.5 246 Q 124.9 250.1 134 259.5 L 132.5 262 L 109 247.5 L 110.5 246 Z " /><path fill="rgb(131,55,24)" stroke="rgb(131,55,24)" stroke-width="1" opacity="0.9411764705882353" d="M 100 249 L 102.5 249 L 119.5 261 L 130 265 L 128.5 268 L 114.5 262 L 100 250.5 L 100 249 Z " /><path fill="rgb(131,55,24)" stroke="rgb(131,55,24)" stroke-width="1" opacity="0.9411764705882353" d="M 155.5 254 Q 159.3 252.8 158 256.5 L 114.5 289 L 93.5 277 L 85.5 275 L 78 268.5 L 81.5 267 L 87.5 272 L 99.5 276 L 115.5 285 L 121.5 279 L 155.5 254 Z " /><path fill="rgb(131,55,24)" stroke="rgb(131,55,24)" stroke-width="1" opacity="0.9411764705882353" d="M 92.5 257 L 94.5 257 L 104.5 264 L 111.5 265 L 124 270.5 Q 124.5 273.5 117.5 272 L 114.5 270 L 102.5 267 L 91 260 L 92.5 257 Z " /><path fill="rgb(130,54,23)" stroke="rgb(130,54,23)" stroke-width="1" opacity="0.5098039215686274" d="M 123.5 20 L 141 29.5 L 139.5 29 Q 131 26.5 125.5 21 L 123 21 Q 124.1 24.3 120 23 L 120 29.5 L 119 29.5 L 119 22.5 L 121.5 22 L 123.5 20 Z " /><path fill="rgb(130,54,23)" stroke="rgb(130,54,23)" stroke-width="1" opacity="0.5098039215686274" d="M 123.5 24 L 130 29.5 L 128.5 29 L 123 26 L 123 32.5 L 118 41.5 L 77 84.5 Q 69.5 93 65.5 105 L 65 103.5 L 75 85.5 L 117 41.5 L 121 35.5 L 122 25.5 L 123.5 24 Z " /><path fill="rgb(130,54,23)" stroke="rgb(130,54,23)" stroke-width="1" opacity="0.5098039215686274" d="M 131.5 30 L 144 36.5 L 142.5 37 L 132.5 32 L 131.5 30 Z " /><path fill="rgb(130,54,23)" stroke="rgb(130,54,23)" stroke-width="1" opacity="0.5098039215686274" d="M 145.5 31 L 162 35.5 L 160.5 36 L 145.5 32 L 145.5 31 Z " /><path fill="rgb(130,54,23)" stroke="rgb(130,54,23)" stroke-width="1" opacity="0.5098039215686274" d="M 117.5 33 L 117 34.5 L 114 39.5 L 71.5 83 L 74 79.5 L 112 40.5 L 117.5 33 Z " /><path fill="rgb(130,54,23)" stroke="rgb(130,54,23)" stroke-width="1" opacity="0.5098039215686274" d="M 145.5 37 L 174 44.5 L 171.5 45 L 151.5 40 L 145.5 38 L 145.5 37 Z " /><path fill="rgb(130,54,23)" stroke="rgb(130,54,23)" stroke-width="1" opacity="0.5098039215686274" d="M 173.5 38 Q 181.8 38.7 187 42.5 L 185.5 42 L 173.5 39 L 173.5 38 Z " /><path fill="rgb(130,54,23)" stroke="rgb(130,54,23)" stroke-width="1" opacity="0.5098039215686274" d="M 188.5 43 L 194 45.5 L 192.5 46 L 188.5 44 L 188.5 43 Z " /><path fill="rgb(130,54,23)" stroke="rgb(130,54,23)" stroke-width="1" opacity="0.5098039215686274" d="M 195.5 46 Q 222 56 238 76.5 L 247 90.5 L 245 89.5 Q 236.9 73.6 223.5 63 Q 211.5 53 195.5 47 L 195.5 46 Z " /><path fill="rgb(130,54,23)" stroke="rgb(130,54,23)" stroke-width="1" opacity="0.5098039215686274" d="M 181.5 47 L 192 51.5 L 190.5 52 L 181.5 48 L 181.5 47 Z " /><path fill="rgb(130,54,23)" stroke="rgb(130,54,23)" stroke-width="1" opacity="0.5098039215686274" d="M 197.5 54 L 211 61.5 L 209.5 61 L 197.5 55 L 197.5 54 Z " /><path fill="rgb(130,54,23)" stroke="rgb(130,54,23)" stroke-width="1" opacity="0.5098039215686274" d="M 212.5 62 L 233 80.5 L 240 90.5 L 238 89.5 Q 230.9 77.6 220.5 69 Q 214.4 66.3 212.5 62 Z " /><path fill="rgb(130,54,23)" stroke="rgb(130,54,23)" stroke-width="1" opacity="0.5098039215686274" d="M 70.5 84 L 70 85.5 L 64.5 94 L 65 92.5 L 70.5 84 Z " /><path fill="rgb(130,54,23)" stroke="rgb(130,54,23)" stroke-width="1" opacity="0.5098039215686274" d="M 240.5 92 L 247 104.5 L 246 104.5 L 240.5 92 Z " /><path fill="rgb(130,54,23)" stroke="rgb(130,54,23)" stroke-width="1" opacity="0.5098039215686274" d="M 248.5 94 L 254 105.5 L 253 105.5 L 248.5 94 Z " /><path fill="rgb(130,54,23)" stroke="rgb(130,54,23)" stroke-width="1" opacity="0.5098039215686274" d="M 63.5 95 L 63 96.5 L 58.5 112 L 58 108.5 L 63.5 95 Z " /><path fill="rgb(130,54,23)" stroke="rgb(130,54,23)" stroke-width="1" opacity="0.5098039215686274" d="M 287.5 102 L 294.5 102 L 303 105.5 L 301.5 106 Q 297.1 101.9 287.5 103 L 283.5 104 L 280 107.5 L 284 117.5 Q 280 123.5 280 133.5 L 278.5 135 L 279 133.5 Q 279.2 123.2 283 116.5 L 281 114.5 L 279 107.5 L 280 105 L 287.5 102 Z " /><path fill="rgb(130,54,23)" stroke="rgb(130,54,23)" stroke-width="1" opacity="0.5098039215686274" d="M 306.5 107 L 311 110.5 Q 311.8 115.3 308.5 116 L 294.5 116 L 287.5 120 L 288.5 118 L 294.5 115 L 308.5 115 L 310 113.5 Q 310.8 108.8 307.5 108 L 306.5 107 Z " /><path fill="rgb(130,54,23)" stroke="rgb(130,54,23)" stroke-width="1" opacity="0.5098039215686274" d="M 248.5 108 Q 253.6 115.4 252 129.5 L 248.5 142 L 248 140.5 L 251 129.5 L 251 117.5 L 248.5 108 Z " /><path fill="rgb(130,54,23)" stroke="rgb(130,54,23)" stroke-width="1" opacity="0.5098039215686274" d="M 63.5 111 L 64 114.5 L 63 115.5 L 62.5 125 L 62 115.5 L 63.5 111 Z " /><path fill="rgb(130,54,23)" stroke="rgb(130,54,23)" stroke-width="1" opacity="0.5098039215686274" d="M 256.5 114 L 257 117.5 L 256 117.5 L 256.5 114 Z " /><path fill="rgb(130,54,23)" stroke="rgb(130,54,23)" stroke-width="1" opacity="0.5098039215686274" d="M 57.5 115 L 58 118.5 L 57 118.5 L 57.5 115 Z " /><path fill="rgb(130,54,23)" stroke="rgb(130,54,23)" stroke-width="1" opacity="0.5098039215686274" d="M 257.5 120 L 258 125.5 L 257 125.5 L 257.5 120 Z " /><path fill="rgb(130,54,23)" stroke="rgb(130,54,23)" stroke-width="1" opacity="0.5098039215686274" d="M 56.5 125 L 57 142.5 L 56 142.5 L 56.5 125 Z " /><path fill="rgb(130,54,23)" stroke="rgb(130,54,23)" stroke-width="1" opacity="0.5098039215686274" d="M 61.5 126 L 64 152.5 L 63 152.5 Q 60.7 147.8 62 139.5 L 61 138.5 L 61.5 126 Z " /><path fill="rgb(130,54,23)" stroke="rgb(130,54,23)" stroke-width="1" opacity="0.5098039215686274" d="M 256.5 127 L 257 132.5 L 256 132.5 L 256.5 127 Z " /><path fill="rgb(130,54,23)" stroke="rgb(130,54,23)" stroke-width="1" opacity="0.5098039215686274" d="M 105.5 128 L 107.5 128 L 114 134.5 L 115 141.5 L 113 142.5 L 114 137.5 Q 112.6 131.4 107.5 129 L 104 130.5 L 103.5 132 L 103 130.5 L 105.5 128 Z " /><path fill="rgb(130,54,23)" stroke="rgb(130,54,23)" stroke-width="1" opacity="0.5098039215686274" d="M 284.5 128 L 285 130.5 L 280.5 143 L 280 141.5 L 284.5 128 Z " /><path fill="rgb(130,54,23)" stroke="rgb(130,54,23)" stroke-width="1" opacity="0.5098039215686274" d="M 149.5 130 L 151 130.5 Q 143.5 132 140.5 138 L 146.5 131 L 149.5 130 Z " /><path fill="rgb(130,54,23)" stroke="rgb(130,54,23)" stroke-width="1" opacity="0.5098039215686274" d="M 153.5 130 L 154 134.5 Q 150.1 141.6 141.5 144 L 140.5 142 L 142.5 143 L 153 134.5 L 153.5 130 Z " /><path fill="rgb(130,54,23)" stroke="rgb(130,54,23)" stroke-width="1" opacity="0.5098039215686274" d="M 103.5 134 L 108.5 142 L 110 142.5 L 108.5 143 Q 103.7 139.9 103.5 134 Z " /><path fill="rgb(130,54,23)" stroke="rgb(130,54,23)" stroke-width="1" opacity="0.5098039215686274" d="M 255.5 134 L 256 137 L 267.5 139 L 273 142.5 L 271.5 142 L 267.5 140 L 255 138 L 255.5 134 Z " /><path fill="rgb(130,54,23)" stroke="rgb(130,54,23)" stroke-width="1" opacity="0.5098039215686274" d="M 276.5 140 L 276 141.5 L 274.5 144 L 275 142.5 L 276.5 140 Z " /><path fill="rgb(130,54,23)" stroke="rgb(130,54,23)" stroke-width="1" opacity="0.5098039215686274" d="M 254.5 141 L 262 142.5 L 259.5 143 L 254.5 142 L 254.5 141 Z " /><path fill="rgb(130,54,23)" stroke="rgb(130,54,23)" stroke-width="1" opacity="0.5098039215686274" d="M 253.5 143 L 254 144.5 L 246.5 159 L 247 157.5 L 253.5 143 Z " /><path fill="rgb(130,54,23)" stroke="rgb(130,54,23)" stroke-width="1" opacity="0.5098039215686274" d="M 266.5 144 L 272 147.5 L 267.5 153 L 256.5 159 L 256.5 158 Q 265.6 155.1 271 148.5 Q 271.8 146.3 269.5 147 L 266.5 144 Z " /><path fill="rgb(130,54,23)" stroke="rgb(130,54,23)" stroke-width="1" opacity="0.5098039215686274" d="M 279.5 144 L 280 147 Q 288 149 293.5 155 L 296 155 Q 295.3 151.2 298.5 150 L 300 150.5 L 297 152.5 Q 298.9 157.9 295.5 157 L 279 146.5 L 279.5 144 Z " /><path fill="rgb(130,54,23)" stroke="rgb(130,54,23)" stroke-width="1" opacity="0.5098039215686274" d="M 246.5 145 L 247 146.5 L 239.5 159 L 240 157.5 L 246.5 145 Z " /><path fill="rgb(130,54,23)" stroke="rgb(130,54,23)" stroke-width="1" opacity="0.5098039215686274" d="M 57.5 149 L 58 151.5 L 57 151.5 L 57.5 149 Z " /><path fill="rgb(130,54,23)" stroke="rgb(130,54,23)" stroke-width="1" opacity="0.5098039215686274" d="M 148.5 150 Q 153.5 149.5 154 153.5 L 154 158.5 L 148.5 166 L 151 162.5 Q 153.8 159.8 153 153.5 Q 152.5 150.5 148.5 151 L 148.5 150 Z " /><path fill="rgb(130,54,23)" stroke="rgb(130,54,23)" stroke-width="1" opacity="0.5098039215686274" d="M 275.5 150 L 277.5 150 L 289.5 159 L 302 164.5 L 299.5 165 Q 286.8 159.7 277.5 151 L 275.5 151 L 264.5 160 L 265.5 158 L 275.5 150 Z " /><path fill="rgb(130,54,23)" stroke="rgb(130,54,23)" stroke-width="1" opacity="0.5098039215686274" d="M 301.5 150 L 304 150.5 L 301.5 151 L 301.5 150 Z " /><path fill="rgb(130,54,23)" stroke="rgb(130,54,23)" stroke-width="1" opacity="0.5098039215686274" d="M 103.5 151 L 101.5 154 L 103.5 151 Z " /><path fill="rgb(130,54,23)" stroke="rgb(130,54,23)" stroke-width="1" opacity="0.5098039215686274" d="M 109.5 151 Q 111.8 150.3 111 152.5 Q 114.8 154.3 113 161.5 L 111 162.5 Q 113.8 160.8 112 154.5 L 109.5 151 Z " /><path fill="rgb(130,54,23)" stroke="rgb(130,54,23)" stroke-width="1" opacity="0.5098039215686274" d="M 145.5 151 L 147 151.5 L 145 152 L 142.5 159 L 142 155.5 L 145.5 151 Z " /><path fill="rgb(130,54,23)" stroke="rgb(130,54,23)" stroke-width="1" opacity="0.5098039215686274" d="M 305.5 151 L 317.5 156 L 322 160.5 L 323 165.5 L 320.5 169 L 313.5 170 L 311 168.5 L 312.5 168 Q 313.7 170.2 318.5 169 L 321 168 L 322 162.5 L 317.5 157 Q 308.9 155.7 305.5 151 Z " /><path fill="rgb(130,54,23)" stroke="rgb(130,54,23)" stroke-width="1" opacity="0.5098039215686274" d="M 58.5 154 Q 64.4 176.6 79.5 190 Q 92.2 200.3 111 204.5 L 108.5 205 L 84.5 195 L 71 182.5 L 61 164.5 L 58 156.5 L 58.5 154 Z " /><path fill="rgb(130,54,23)" stroke="rgb(130,54,23)" stroke-width="1" opacity="0.5098039215686274" d="M 100.5 155 L 101 159.5 L 100 159.5 L 100.5 155 Z " /><path fill="rgb(130,54,23)" stroke="rgb(130,54,23)" stroke-width="1" opacity="0.5098039215686274" d="M 105 155 L 109 157.5 L 108.5 160 L 106.5 157 L 106 158.5 L 106.5 160 Q 104 158.8 105 155 Z " /><path fill="rgb(130,54,23)" stroke="rgb(130,54,23)" stroke-width="1" opacity="0.5098039215686274" d="M 148.5 156 L 149 157.5 L 148 160 L 145 159.5 L 148.5 156 Z " /><path fill="rgb(130,54,23)" stroke="rgb(130,54,23)" stroke-width="1" opacity="0.5098039215686274" d="M 66.5 159 L 71 168.5 L 69 167.5 L 66.5 159 Z " /><path fill="rgb(130,54,23)" stroke="rgb(130,54,23)" stroke-width="1" opacity="0.5098039215686274" d="M 238.5 160 L 238 161.5 Q 232.7 171.7 223.5 178 L 217.5 181 L 218.5 179 Q 228.6 175.1 234 166.5 L 238.5 160 Z " /><path fill="rgb(130,54,23)" stroke="rgb(130,54,23)" stroke-width="1" opacity="0.5098039215686274" d="M 245.5 160 L 250.5 161 L 252.5 160 L 252.5 161 L 246.5 162 L 245.5 160 Z " /><path fill="rgb(130,54,23)" stroke="rgb(130,54,23)" stroke-width="1" opacity="0.5098039215686274" d="M 261.5 160 L 263 160.5 L 251.5 165 L 251.5 164 Q 258 163.5 261.5 160 Z " /><path fill="rgb(130,54,23)" stroke="rgb(130,54,23)" stroke-width="1" opacity="0.5098039215686274" d="M 101.5 161 Q 102.5 166 109.5 165 L 111 164.5 Q 110 167 105.5 166 L 102 163.5 L 101.5 161 Z " /><path fill="rgb(130,54,23)" stroke="rgb(130,54,23)" stroke-width="1" opacity="0.5098039215686274" d="M 142.5 161 L 145 165.5 L 142 163.5 L 142.5 161 Z " /><path fill="rgb(130,54,23)" stroke="rgb(130,54,23)" stroke-width="1" opacity="0.5098039215686274" d="M 177.5 163 Q 180.8 161.9 180 164.5 L 181 168.5 L 180 168.5 Q 180.8 164.8 178.5 164 L 177.5 163 Z " /><path fill="rgb(130,54,23)" stroke="rgb(130,54,23)" stroke-width="1" opacity="0.5098039215686274" d="M 243.5 164 L 250 165.5 L 246.5 166 L 243 165 L 240 170.5 L 225.5 185 L 206.5 195 L 196.5 198 L 196.5 197 L 206.5 194 L 223.5 185 L 238 171.5 L 243.5 164 Z " /><path fill="rgb(130,54,23)" stroke="rgb(130,54,23)" stroke-width="1" opacity="0.5098039215686274" d="M 176.5 165 L 177 167.5 L 176 167.5 L 176.5 165 Z " /><path fill="rgb(130,54,23)" stroke="rgb(130,54,23)" stroke-width="1" opacity="0.5098039215686274" d="M 306.5 166 L 310 167.5 L 308.5 168 L 306.5 166 Z " /><path fill="rgb(130,54,23)" stroke="rgb(130,54,23)" stroke-width="1" opacity="0.5098039215686274" d="M 177.5 169 L 178 177.5 L 177 177.5 L 177.5 169 Z " /><path fill="rgb(130,54,23)" stroke="rgb(130,54,23)" stroke-width="1" opacity="0.5098039215686274" d="M 71.5 170 L 81 182.5 L 76 178.5 L 71.5 170 Z " /><path fill="rgb(130,54,23)" stroke="rgb(130,54,23)" stroke-width="1" opacity="0.5098039215686274" d="M 181.5 170 L 182 184.5 L 180.5 188 L 180 185.5 L 181 184.5 L 181.5 170 Z " /><path fill="rgb(130,54,23)" stroke="rgb(130,54,23)" stroke-width="1" opacity="0.5098039215686274" d="M 60.5 175 Q 65 174 66 176.5 L 64.5 179 Q 51.8 180.8 46 189.5 L 42.5 195 L 43 193.5 L 44 190.5 L 51.5 183 Q 56.6 178.2 65 178 Q 66.3 174.3 60.5 176 L 60.5 175 Z " /><path fill="rgb(130,54,23)" stroke="rgb(130,54,23)" stroke-width="1" opacity="0.5098039215686274" d="M 57.5 176 L 59 176.5 Q 48.3 179.8 42.5 188 L 49.5 180 L 57.5 176 Z " /><path fill="rgb(130,54,23)" stroke="rgb(130,54,23)" stroke-width="1" opacity="0.5098039215686274" d="M 215.5 181 L 214.5 183 L 202.5 188 L 202.5 187 L 215.5 181 Z " /><path fill="rgb(130,54,23)" stroke="rgb(130,54,23)" stroke-width="1" opacity="0.5098039215686274" d="M 82.5 183 L 89 188.5 L 87.5 188 L 82 185 L 82.5 183 Z " /><path fill="rgb(130,54,23)" stroke="rgb(130,54,23)" stroke-width="1" opacity="0.5098039215686274" d="M 177.5 183 L 178 184.5 L 172.5 196 L 168.5 197 L 168.5 196 Q 173.5 196.5 174 192.5 L 177.5 183 Z " /><path fill="rgb(130,54,23)" stroke="rgb(130,54,23)" stroke-width="1" opacity="0.5098039215686274" d="M 41.5 189 L 41 190.5 L 37 199.5 L 37 205.5 L 39 213.5 L 44.5 220 L 50 223.5 L 40.5 234 L 29 244.5 L 25.5 250 L 25 248.5 L 40.5 232 L 49 224.5 Q 49.8 222.3 47.5 223 L 40 216.5 L 37 210.5 L 36 199.5 Q 37.3 192.8 41.5 189 Z " /><path fill="rgb(130,54,23)" stroke="rgb(130,54,23)" stroke-width="1" opacity="0.5098039215686274" d="M 90.5 189 L 102 194.5 L 100.5 195 L 91.5 191 L 90.5 189 Z " /><path fill="rgb(130,54,23)" stroke="rgb(130,54,23)" stroke-width="1" opacity="0.5098039215686274" d="M 179.5 189 L 180 190.5 L 179 193 L 195.5 190 L 195.5 191 L 178.5 195 L 178 191.5 L 179.5 189 Z " /><path fill="rgb(130,54,23)" stroke="rgb(130,54,23)" stroke-width="1" opacity="0.5098039215686274" d="M 144.5 191 Q 151 190 152 194.5 L 153 198 L 157 198.5 L 153.5 199 L 148.5 192 L 144.5 192 L 136.5 200 Q 130.9 199.9 129 203.5 L 130 206.5 L 114 221.5 L 112.5 224 Q 110.3 223.3 111 225.5 L 104 238.5 Q 104.8 240.8 108.5 240 L 115.5 236 L 114.5 238 L 108.5 241 L 104 241 L 103 237.5 L 106 231.5 L 75.5 261 Q 71.3 262.3 73 257.5 L 90 240.5 L 90 239 L 91.5 239 L 101.5 229 L 74 257.5 Q 72.9 260.8 75.5 260 L 95 240.5 L 95 239 L 96.5 239 L 107 228.5 L 104.5 228 L 103 228.5 L 110 225.5 L 122.5 212 L 129 206.5 L 127.5 206 Q 125.8 209.8 118.5 208 L 115 206.5 L 117.5 206 Q 119.2 208.7 125.5 207 L 127 203.5 L 125.5 202 Q 117.8 201.8 113 198.5 L 114.5 198 L 128.5 203 Q 130.5 199 136.5 199 L 144.5 191 Z " /><path fill="rgb(130,54,23)" stroke="rgb(130,54,23)" stroke-width="1" opacity="0.5098039215686274" d="M 160.5 197 L 164 197.5 L 160.5 198 L 160.5 197 Z " /><path fill="rgb(130,54,23)" stroke="rgb(130,54,23)" stroke-width="1" opacity="0.5098039215686274" d="M 192.5 198 L 195 198.5 L 192.5 199 L 192.5 198 Z " /><path fill="rgb(130,54,23)" stroke="rgb(130,54,23)" stroke-width="1" opacity="0.5098039215686274" d="M 187.5 199 L 191 199.5 L 172.5 204 Q 164.8 213.8 153.5 220 L 154.5 218 Q 165.4 212.4 172.5 203 L 187.5 199 Z " /><path fill="rgb(130,54,23)" stroke="rgb(130,54,23)" stroke-width="1" opacity="0.5098039215686274" d="M 160.5 205 Q 164.9 203.5 164 206.5 L 158.5 211 L 160.5 208 Q 163.1 208.7 162 206 L 160.5 205 Z " /><path fill="rgb(130,54,23)" stroke="rgb(130,54,23)" stroke-width="1" opacity="0.5098039215686274" d="M 154.5 206 L 158 206.5 L 154.5 207 L 154.5 206 Z " /><path fill="rgb(130,54,23)" stroke="rgb(130,54,23)" stroke-width="1" opacity="0.5098039215686274" d="M 148.5 207 L 153 207.5 L 148.5 208 L 140 215.5 L 147.5 216 L 153.5 213 L 152.5 215 Q 148.1 218.1 139.5 217 Q 136.5 215.5 139.5 214 L 148.5 207 Z " /><path fill="rgb(130,54,23)" stroke="rgb(130,54,23)" stroke-width="1" opacity="0.5098039215686274" d="M 42.5 209 L 46.5 215 L 50 217.5 L 47.5 216 L 43 212.5 L 42.5 209 Z " /><path fill="rgb(130,54,23)" stroke="rgb(130,54,23)" stroke-width="1" opacity="0.5098039215686274" d="M 67.5 209 Q 71.3 207.8 70 211.5 L 31 248.5 L 31.5 250 L 30 248.5 L 55.5 223 L 69 211.5 Q 69.8 209.3 67.5 210 L 65.5 211 L 65.5 210 L 67.5 209 Z " /><path fill="rgb(130,54,23)" stroke="rgb(130,54,23)" stroke-width="1" opacity="0.5098039215686274" d="M 73.5 211 L 78 212.5 L 76.5 213 L 73 212 L 75.5 216 L 84 219.5 L 82.5 220 L 72 214.5 L 73.5 211 Z " /><path fill="rgb(130,54,23)" stroke="rgb(130,54,23)" stroke-width="1" opacity="0.5098039215686274" d="M 156.5 211 L 155.5 213 L 156.5 211 Z " /><path fill="rgb(130,54,23)" stroke="rgb(130,54,23)" stroke-width="1" opacity="0.5098039215686274" d="M 63.5 212 L 60.5 216 L 55.5 220 L 53.5 220 L 53.5 219 L 55.5 219 L 63.5 212 Z " /><path fill="rgb(130,54,23)" stroke="rgb(130,54,23)" stroke-width="1" opacity="0.5098039215686274" d="M 81.5 214 L 95 218.5 L 93.5 219 L 83.5 216 L 81.5 214 Z " /><path fill="rgb(130,54,23)" stroke="rgb(130,54,23)" stroke-width="1" opacity="0.5098039215686274" d="M 96.5 219 L 101 221.5 L 98.5 225 L 95.5 225 L 85 220.5 L 86.5 220 Q 91 223.5 98.5 224 L 100 221 Q 95.8 221.1 96.5 219 Z " /><path fill="rgb(130,54,23)" stroke="rgb(130,54,23)" stroke-width="1" opacity="0.5098039215686274" d="M 150.5 220 L 152 220.5 L 148.5 222 L 148.5 221 L 150.5 220 Z " /><path fill="rgb(130,54,23)" stroke="rgb(130,54,23)" stroke-width="1" opacity="0.5098039215686274" d="M 131.5 222 L 133 222.5 L 122 231.5 L 127 234.5 L 125.5 234 L 122 233 L 126.5 239 L 135 243.5 L 133.5 244 L 121 235.5 L 120.5 234 L 119 234.5 L 121 230 L 131.5 222 Z " /><path fill="rgb(130,54,23)" stroke="rgb(130,54,23)" stroke-width="1" opacity="0.5098039215686274" d="M 134.5 222 L 141.5 223 L 145.5 222 L 145.5 223 L 140.5 224 Q 139.2 221.8 134.5 223 L 134.5 222 Z " /><path fill="rgb(130,54,23)" stroke="rgb(130,54,23)" stroke-width="1" opacity="0.5098039215686274" d="M 113.5 228 L 117 229.5 Q 117.8 231.8 115.5 231 L 111 233 L 113.5 228 Z M 113 229 L 113 231 L 116 230 L 113 229 Z " /><path fill="rgb(130,54,23)" stroke="rgb(130,54,23)" stroke-width="1" opacity="0.5098039215686274" d="M 128.5 235 L 141 241.5 L 139.5 241 Q 130.2 240.2 128.5 235 Z " /><path fill="rgb(130,54,23)" stroke="rgb(130,54,23)" stroke-width="1" opacity="0.5098039215686274" d="M 118 240 Q 122.7 239 124 242.5 L 121.5 241 Q 117.8 239.8 119 243.5 L 123.5 247 L 127 247 L 125 243.5 L 128 245.5 L 126.5 248 L 123.5 248 L 118 243.5 L 118 240 Z " /><path fill="rgb(130,54,23)" stroke="rgb(130,54,23)" stroke-width="1" opacity="0.5098039215686274" d="M 63.5 243 L 67 243.5 L 63 244 L 64.5 248 L 67 248.5 L 64.5 249 L 62 248 Q 61 244.2 63.5 243 Z " /><path fill="rgb(130,54,23)" stroke="rgb(130,54,23)" stroke-width="1" opacity="0.5098039215686274" d="M 68.5 244 L 74 246.5 L 75 248.5 Q 74.5 251.5 70.5 251 L 68 249.5 L 69.5 249 L 72.5 250 Q 75.3 248.8 73 247.5 Q 73.8 245.3 71.5 246 L 68.5 245 L 68.5 244 Z " /><path fill="rgb(130,54,23)" stroke="rgb(130,54,23)" stroke-width="1" opacity="0.5098039215686274" d="M 136.5 244 L 153 250.5 L 151.5 251 L 136.5 245 L 136.5 244 Z " /><path fill="rgb(130,54,23)" stroke="rgb(130,54,23)" stroke-width="1" opacity="0.5098039215686274" d="M 148.5 244 L 157 247.5 L 155.5 251 L 156 249.5 Q 157.3 245.8 153.5 247 L 148.5 245 L 148.5 244 Z " /><path fill="rgb(130,54,23)" stroke="rgb(130,54,23)" stroke-width="1" opacity="0.5098039215686274" d="M 47.5 245 L 58 249.5 L 56.5 250 L 47 246 Q 46.3 249.8 49.5 251 L 59.5 255 L 63 255 Q 64.5 251.2 61.5 252 L 59 250.5 L 60.5 250 L 64 252.5 Q 65.8 258.2 59.5 256 Q 50.5 254.5 46 248.5 L 47.5 245 Z " /><path fill="rgb(130,54,23)" stroke="rgb(130,54,23)" stroke-width="1" opacity="0.5098039215686274" d="M 109.5 245 L 115.5 246 L 124 251.5 L 122.5 251 L 115.5 247 L 110.5 246 Q 107.5 247.5 110.5 249 Q 123.2 253.8 132.5 262 L 134 261.5 L 131.5 263 L 124.5 257 L 108 248.5 L 109.5 245 Z " /><path fill="rgb(130,54,23)" stroke="rgb(130,54,23)" stroke-width="1" opacity="0.5098039215686274" d="M 100.5 248 L 102.5 248 L 115 257.5 L 111.5 255 L 102.5 249 L 100 249 L 103.5 254 L 114.5 262 L 128.5 268 L 130.5 265 L 131 266.5 L 130 269 L 126.5 269 L 114.5 263 L 99 252 L 100.5 248 Z " /><path fill="rgb(130,54,23)" stroke="rgb(130,54,23)" stroke-width="1" opacity="0.5098039215686274" d="M 25.5 251 L 29.5 254 L 39 257.5 L 37.5 258 L 25 253 L 25.5 251 Z " /><path fill="rgb(130,54,23)" stroke="rgb(130,54,23)" stroke-width="1" opacity="0.5098039215686274" d="M 38.5 252 L 52 256.5 L 49.5 257 L 38.5 253 L 38.5 252 Z " /><path fill="rgb(130,54,23)" stroke="rgb(130,54,23)" stroke-width="1" opacity="0.5098039215686274" d="M 125.5 252 L 134 258.5 L 130.5 256 Q 125.9 254.8 125.5 252 Z " /><path fill="rgb(130,54,23)" stroke="rgb(130,54,23)" stroke-width="1" opacity="0.5098039215686274" d="M 155.5 253 Q 160.8 251.3 159 256.5 L 147.5 266 L 150.5 262 L 158 256.5 Q 159.3 252.8 155.5 254 L 141.5 265 L 143.5 262 L 155.5 253 Z " /><path fill="rgb(130,54,23)" stroke="rgb(130,54,23)" stroke-width="1" opacity="0.5098039215686274" d="M 92.5 256 L 94 256.5 L 91 258.5 Q 90.3 260.8 92.5 260 L 102.5 267 L 117 271.5 L 115.5 272 Q 99.5 269 90 259.5 Q 88.9 256.2 91.5 257 L 92.5 256 Z " /><path fill="rgb(130,54,23)" stroke="rgb(130,54,23)" stroke-width="1" opacity="0.5098039215686274" d="M 95.5 257 L 108 264.5 L 106.5 264 L 96.5 259 L 95.5 257 Z " /><path fill="rgb(130,54,23)" stroke="rgb(130,54,23)" stroke-width="1" opacity="0.5098039215686274" d="M 43.5 259 L 60 264.5 L 57.5 265 L 45.5 261 L 43.5 259 Z " /><path fill="rgb(130,54,23)" stroke="rgb(130,54,23)" stroke-width="1" opacity="0.5098039215686274" d="M 59.5 259 L 67.5 261 L 70 263.5 L 69.5 266 L 67.5 262 L 61.5 261 L 59.5 259 Z " /><path fill="rgb(130,54,23)" stroke="rgb(130,54,23)" stroke-width="1" opacity="0.5098039215686274" d="M 118.5 259 L 129 264.5 L 127.5 264 L 119.5 261 L 118.5 259 Z " /><path fill="rgb(130,54,23)" stroke="rgb(130,54,23)" stroke-width="1" opacity="0.5098039215686274" d="M 64.5 266 L 68 266.5 L 64.5 267 L 64.5 266 Z " /><path fill="rgb(130,54,23)" stroke="rgb(130,54,23)" stroke-width="1" opacity="0.5098039215686274" d="M 78 266 L 81 266.5 L 78.5 268 L 78 266 Z " /><path fill="rgb(130,54,23)" stroke="rgb(130,54,23)" stroke-width="1" opacity="0.5098039215686274" d="M 115.5 266 L 124 269.5 L 122.5 269 L 115.5 267 L 115.5 266 Z " /><path fill="rgb(130,54,23)" stroke="rgb(130,54,23)" stroke-width="1" opacity="0.5098039215686274" d="M 138.5 266 L 136.5 269 L 114.5 285 L 113.5 283 L 115.5 284 L 121.5 278 L 138.5 266 Z " /><path fill="rgb(130,54,23)" stroke="rgb(130,54,23)" stroke-width="1" opacity="0.5098039215686274" d="M 145.5 266 L 143.5 269 L 125.5 282 L 127.5 279 L 145.5 266 Z " /><path fill="rgb(130,54,23)" stroke="rgb(130,54,23)" stroke-width="1" opacity="0.5098039215686274" d="M 82.5 267 L 88 271.5 L 85.5 270 L 82.5 267 Z " /><path fill="rgb(130,54,23)" stroke="rgb(130,54,23)" stroke-width="1" opacity="0.5098039215686274" d="M 78.5 269 L 85 274.5 L 83.5 274 L 78.5 269 Z " /><path fill="rgb(130,54,23)" stroke="rgb(130,54,23)" stroke-width="1" opacity="0.5098039215686274" d="M 118.5 272 L 124 272.5 L 118.5 273 L 118.5 272 Z " /><path fill="rgb(130,54,23)" stroke="rgb(130,54,23)" stroke-width="1" opacity="0.5098039215686274" d="M 95.5 274 Q 105.3 276.7 112 282.5 L 110.5 282 L 95.5 275 L 95.5 274 Z " /><path fill="rgb(130,54,23)" stroke="rgb(130,54,23)" stroke-width="1" opacity="0.5098039215686274" d="M 86.5 275 Q 95.4 276.6 101 281.5 L 99.5 281 L 86.5 276 L 86.5 275 Z " /><path fill="rgb(130,54,23)" stroke="rgb(130,54,23)" stroke-width="1" opacity="0.5098039215686274" d="M 102.5 282 L 112 287.5 L 110.5 287 L 103.5 284 L 102.5 282 Z " /><path fill="rgb(130,54,23)" stroke="rgb(130,54,23)" stroke-width="1" opacity="0.5098039215686274" d="M 123.5 282 L 120.5 286 L 116.5 289 L 119.5 285 L 123.5 282 Z " /><path fill="rgb(128,43,12)" stroke="rgb(128,43,12)" stroke-width="1" opacity="0.11764705882352941" d="M 123.5 19 L 127 19 Q 125.9 21.7 128.5 21 L 130.5 24 L 125.5 20 L 123.5 20 Q 122.4 22.8 119 22 L 119 30.5 L 112.5 39 L 115 35.5 L 118 30.5 L 118 22.5 L 119.5 21 L 123.5 19 Z " /><path fill="rgb(128,43,12)" stroke="rgb(128,43,12)" stroke-width="1" opacity="0.11764705882352941" d="M 134.5 25 L 137 26.5 L 135.5 26 L 134.5 25 Z " /><path fill="rgb(128,43,12)" stroke="rgb(128,43,12)" stroke-width="1" opacity="0.11764705882352941" d="M 123 26 L 135.5 34 L 148 38.5 L 145.5 39 Q 133.3 35.2 124.5 28 L 123.5 31 L 123 26 Z " /><path fill="rgb(128,43,12)" stroke="rgb(128,43,12)" stroke-width="1" opacity="0.11764705882352941" d="M 138.5 27 L 153 32.5 L 151.5 32 L 141.5 30 L 138.5 27 Z " /><path fill="rgb(128,43,12)" stroke="rgb(128,43,12)" stroke-width="1" opacity="0.11764705882352941" d="M 122 33 L 124 33.5 L 116 44.5 L 116 47 L 111 50.5 L 111 52 L 109 52 Q 110.1 54.7 107.5 54 L 97.5 65 L 94.5 67 L 90 73 Q 87.3 71.9 88 74.5 L 85 79 L 78 84.5 L 69 98.5 Q 71.5 100 68 101.5 L 65 109.5 L 63 127.5 L 64 129.5 L 63 134.5 L 63 136.5 Q 65.3 141.3 64 149.5 L 67 158.5 L 66 158.5 L 63 149.5 L 62 125.5 L 63 124.5 L 63 115.5 L 65 105.5 L 70 94.5 Q 89.4 67.9 114 46.5 L 122 35.5 L 122 33 Z " /><path fill="rgb(128,43,12)" stroke="rgb(128,43,12)" stroke-width="1" opacity="0.11764705882352941" d="M 160.5 34 L 180.5 38 L 185 40.5 L 183.5 41 Q 174.9 36.5 162.5 36 L 160.5 34 Z " /><path fill="rgb(128,43,12)" stroke="rgb(128,43,12)" stroke-width="1" opacity="0.11764705882352941" d="M 110.5 40 L 112 40.5 L 98.5 53 L 98.5 52 L 101 50.5 Q 100.3 48.3 102.5 49 L 104 46 L 107 44.5 L 109 41.5 L 110.5 40 Z " /><path fill="rgb(128,43,12)" stroke="rgb(128,43,12)" stroke-width="1" opacity="0.11764705882352941" d="M 152.5 40 L 155 40.5 Q 152.9 43.8 152.5 40 Z " /><path fill="rgb(128,43,12)" stroke="rgb(128,43,12)" stroke-width="1" opacity="0.11764705882352941" d="M 186.5 41 L 200 47.5 L 198.5 47 L 187.5 43 L 186.5 41 Z " /><path fill="rgb(128,43,12)" stroke="rgb(128,43,12)" stroke-width="1" opacity="0.11764705882352941" d="M 160.5 42 L 181 47 L 180.5 49 L 177.5 47 L 175.5 47 L 162.5 44 L 160.5 42 Z " /><path fill="rgb(128,43,12)" stroke="rgb(128,43,12)" stroke-width="1" opacity="0.11764705882352941" d="M 182.5 48 L 205 58.5 L 202.5 59 Q 201.3 56 197 57 Q 198.1 54.3 195.5 55 L 183.5 50 L 182.5 48 Z " /><path fill="rgb(128,43,12)" stroke="rgb(128,43,12)" stroke-width="1" opacity="0.11764705882352941" d="M 201.5 48 L 203.5 49 L 205 48.5 Q 204.3 50.8 206.5 50 L 226 62 L 230.5 68 Q 232.8 67.3 232 69.5 L 241 78.5 L 251 96.5 L 250 96.5 Q 240.6 75.4 223.5 62 Q 214.4 53.6 201.5 49 L 201.5 48 Z " /><path fill="rgb(128,43,12)" stroke="rgb(128,43,12)" stroke-width="1" opacity="0.11764705882352941" d="M 96 54 L 98 54.5 L 82 69.5 L 83 67 L 90 61.5 Q 89.3 59.3 91.5 60 L 96 54 Z " /><path fill="rgb(128,43,12)" stroke="rgb(128,43,12)" stroke-width="1" opacity="0.11764705882352941" d="M 206.5 59 Q 220.6 67.4 231 79.5 L 242 95.5 L 240 94.5 L 238 90 L 236 89.5 Q 238.5 88 235 86.5 L 233 83.5 L 229 81 L 229 78 Q 226.3 79.1 227 76.5 L 224 75 L 222.5 72 L 218 69.5 Q 218.7 66.9 216 68 L 216 66 L 214.5 66 L 208.5 62 L 206.5 59 Z " /><path fill="rgb(128,43,12)" stroke="rgb(128,43,12)" stroke-width="1" opacity="0.11764705882352941" d="M 80.5 70 L 81 71.5 Q 69.5 81.5 62.5 96 L 62 94.5 L 78 72 Q 80.8 73 80.5 70 Z " /><path fill="rgb(128,43,12)" stroke="rgb(128,43,12)" stroke-width="1" opacity="0.11764705882352941" d="M 60.5 97 Q 62.8 96.3 62 98.5 L 60.5 101 L 60 99.5 L 60.5 97 Z " /><path fill="rgb(128,43,12)" stroke="rgb(128,43,12)" stroke-width="1" opacity="0.11764705882352941" d="M 241.5 97 Q 243.8 96.3 243 98.5 Q 249.3 107 251 119 Q 247 120.4 249 113.5 L 241.5 97 Z " /><path fill="rgb(128,43,12)" stroke="rgb(128,43,12)" stroke-width="1" opacity="0.11764705882352941" d="M 251.5 98 L 253 101.5 L 252 101.5 L 251.5 98 Z " /><path fill="rgb(128,43,12)" stroke="rgb(128,43,12)" stroke-width="1" opacity="0.11764705882352941" d="M 288.5 101 L 294 101.5 L 288.5 102 L 288.5 101 Z " /><path fill="rgb(128,43,12)" stroke="rgb(128,43,12)" stroke-width="1" opacity="0.11764705882352941" d="M 295.5 101 L 296.5 103 Q 293.7 103.7 295.5 101 Z " /><path fill="rgb(128,43,12)" stroke="rgb(128,43,12)" stroke-width="1" opacity="0.11764705882352941" d="M 59.5 102 L 60 103.5 L 57 115.5 L 56 142.5 L 57 143.5 L 58 156.5 L 61 164.5 Q 67.3 181.7 80.5 192 L 84 194.5 L 82.5 194 L 73 186.5 L 70 181 L 68 181 Q 69.1 178.3 66.5 179 Q 53.5 181 47 189.5 L 43 195.5 L 42 204.5 Q 43.6 213.4 50.5 217 L 55.5 218 L 57 215 L 68.5 207 L 71.5 212 Q 74 206.5 76.5 211 L 91 216.5 L 89.5 216 L 86.5 216 L 73.5 211 L 72 214.5 L 75 216 L 74.5 218 L 71 213 L 67 215.5 L 65.5 218 L 60 221.5 Q 60.8 223.8 58.5 223 L 57 226 Q 50.2 227.1 47 233.5 Q 47.8 235.8 45.5 235 L 33 247.5 L 33 249 L 41.5 251 L 45 253.5 L 43.5 254 L 31 248.5 L 70 211.5 Q 71.3 207.8 67.5 209 L 65 210 Q 66.1 212.7 63.5 212 L 55.5 219 L 52.5 219 L 45 213.5 Q 40.3 208.7 41 198.5 Q 44.5 189.5 51.5 184 L 66 177.5 L 64.5 175 L 60.5 175 L 55 177 Q 53.7 173.7 58.5 175 L 65 173.5 L 58 159.5 L 55 144.5 L 55 142.5 L 56 114.5 L 59.5 102 Z " /><path fill="rgb(128,43,12)" stroke="rgb(128,43,12)" stroke-width="1" opacity="0.11764705882352941" d="M 284.5 102 L 287 102.5 L 284.5 103 L 284.5 102 Z " /><path fill="rgb(128,43,12)" stroke="rgb(128,43,12)" stroke-width="1" opacity="0.11764705882352941" d="M 253.5 103 Q 256.5 102.1 255 106.5 L 259 118.5 L 259 126.5 L 257.5 132 L 257 126.5 Q 259.3 125.3 258 120.5 L 253.5 103 Z " /><path fill="rgb(128,43,12)" stroke="rgb(128,43,12)" stroke-width="1" opacity="0.11764705882352941" d="M 282.5 103 L 281.5 105 Q 279.3 104.3 280 106.5 L 279 109.5 L 283 117.5 L 282 117.5 Q 278.5 114 278 107.5 L 280.5 104 L 282.5 103 Z " /><path fill="rgb(128,43,12)" stroke="rgb(128,43,12)" stroke-width="1" opacity="0.11764705882352941" d="M 299.5 103 Q 308 104.5 312 110.5 Q 313 116 309.5 117 L 309 115.5 Q 311.8 114.8 311 110.5 L 307.5 107 L 299.5 104 L 299.5 103 Z " /><path fill="rgb(128,43,12)" stroke="rgb(128,43,12)" stroke-width="1" opacity="0.11764705882352941" d="M 294.5 116 L 307 116.5 L 293.5 118 L 294.5 116 Z " /><path fill="rgb(128,43,12)" stroke="rgb(128,43,12)" stroke-width="1" opacity="0.11764705882352941" d="M 291.5 118 L 290.5 120 L 287.5 122 L 287 120.5 L 291.5 118 Z " /><path fill="rgb(128,43,12)" stroke="rgb(128,43,12)" stroke-width="1" opacity="0.11764705882352941" d="M 250.5 120 L 251 122.5 L 250 122.5 L 250.5 120 Z " /><path fill="rgb(128,43,12)" stroke="rgb(128,43,12)" stroke-width="1" opacity="0.11764705882352941" d="M 280.5 122 L 281 123.5 L 279 133.5 L 275.5 141 L 276 139.5 L 280.5 122 Z " /><path fill="rgb(128,43,12)" stroke="rgb(128,43,12)" stroke-width="1" opacity="0.11764705882352941" d="M 286 123 L 288 123.5 L 286 126.5 Q 286 135 282.5 140 L 282 138.5 L 284 134.5 L 286 123 Z " /><path fill="rgb(128,43,12)" stroke="rgb(128,43,12)" stroke-width="1" opacity="0.11764705882352941" d="M 249.5 126 Q 252.5 125.1 251 129.5 Q 244.4 159.4 224.5 176 L 199.5 189 L 182.5 193 L 183.5 191 L 192.5 190 Q 195.5 187 201.5 187 L 203.5 185 L 214.5 181 L 219.5 177 L 220.5 178 L 223.5 175 L 226.5 173 L 229 169 Q 231.7 170.1 231 167.5 L 233.5 164 L 236 162.5 L 243 150.5 L 242.5 149 Q 244.8 149.8 244 147.5 L 248 138.5 L 250 127.5 L 249.5 126 Z " /><path fill="rgb(128,43,12)" stroke="rgb(128,43,12)" stroke-width="1" opacity="0.11764705882352941" d="M 105.5 127 Q 111.3 126.3 112 130.5 L 114 133.5 Q 116.7 135.8 116 141.5 L 111.5 145 Q 105.4 143.6 103 138.5 L 102 130.5 L 105.5 127 Z M 106 128 L 103 131 Q 102 137 105 140 L 112 144 L 115 142 L 114 135 L 108 128 L 106 128 Z " /><path fill="rgb(128,43,12)" stroke="rgb(128,43,12)" stroke-width="1" opacity="0.11764705882352941" d="M 150 128 Q 155.2 126.3 154 130 Q 148.8 131.7 150 128 Z " /><path fill="rgb(128,43,12)" stroke="rgb(128,43,12)" stroke-width="1" opacity="0.11764705882352941" d="M 145.5 130 L 146 131.5 L 140 137.5 L 140 142.5 L 142.5 144 L 152.5 136 L 152 137.5 L 149.5 141 L 146.5 143 L 141.5 145 L 139 144.5 L 139 136.5 L 140.5 135 Q 142.8 135.8 142 133.5 L 145 132 L 145.5 130 Z " /><path fill="rgb(128,43,12)" stroke="rgb(128,43,12)" stroke-width="1" opacity="0.11764705882352941" d="M 256.5 133 L 257 136 Q 259.1 137.6 264.5 137 L 270 139.5 L 268.5 140 L 256 137 L 256.5 133 Z " /><path fill="rgb(128,43,12)" stroke="rgb(128,43,12)" stroke-width="1" opacity="0.11764705882352941" d="M 271.5 140 L 275 142.5 L 273.5 143 L 271.5 140 Z " /><path fill="rgb(128,43,12)" stroke="rgb(128,43,12)" stroke-width="1" opacity="0.11764705882352941" d="M 281.5 141 L 282 142.5 L 281 145.5 L 282.5 148 L 280 147 L 281.5 141 Z " /><path fill="rgb(128,43,12)" stroke="rgb(128,43,12)" stroke-width="1" opacity="0.11764705882352941" d="M 254 142 L 262.5 143 L 271 147 L 269.5 150 L 264.5 154 L 264 152.5 L 269 148.5 Q 269.8 146.3 267.5 147 L 258.5 143 L 255 143 L 253.5 147 L 253 145.5 L 254 142 Z " /><path fill="rgb(128,43,12)" stroke="rgb(128,43,12)" stroke-width="1" opacity="0.11764705882352941" d="M 252 148 L 254 148.5 L 251 152.5 L 251.5 154 Q 249.3 153.3 250 155.5 L 248 160 L 251 160.5 L 246 161 L 252 148 Z " /><path fill="rgb(128,43,12)" stroke="rgb(128,43,12)" stroke-width="1" opacity="0.11764705882352941" d="M 284.5 148 L 287 148 Q 285.9 150.7 288.5 150 L 295 154 L 296 150 L 303.5 148 L 304 150 L 310 151 L 311 153.5 L 308.5 152 Q 305.2 149.3 298.5 150 Q 295.3 151.2 296 155 L 293.5 155 L 284.5 149 L 284.5 148 Z " /><path fill="rgb(128,43,12)" stroke="rgb(128,43,12)" stroke-width="1" opacity="0.11764705882352941" d="M 148.5 149 L 150 149.5 L 144 152.5 Q 140.4 155.4 142 163.5 L 146.5 167 L 152 162.5 Q 151.3 160.3 153.5 161 L 153 162.5 Q 153.8 164.8 151.5 164 L 148.5 168 L 143 167 L 140 159.5 L 141 156.5 L 145.5 150 L 148.5 149 Z " /><path fill="rgb(128,43,12)" stroke="rgb(128,43,12)" stroke-width="1" opacity="0.11764705882352941" d="M 102.5 150 Q 111 148 113 152.5 L 112.5 154 L 111 151 L 103.5 151 L 101 153.5 L 100 159.5 L 103 164.5 L 101 163.5 Q 98.3 161.2 99 155.5 L 102.5 150 Z " /><path fill="rgb(128,43,12)" stroke="rgb(128,43,12)" stroke-width="1" opacity="0.11764705882352941" d="M 151.5 150 Q 153.8 149.3 153 151.5 L 153.5 153 L 151.5 150 Z " /><path fill="rgb(128,43,12)" stroke="rgb(128,43,12)" stroke-width="1" opacity="0.11764705882352941" d="M 275.5 151 L 277.5 151 L 293 161.5 L 291.5 162 L 285.5 158 L 283 158 L 280.5 154 L 275.5 152 L 271 158 L 267.5 159 L 269.5 156 L 275.5 151 Z " /><path fill="rgb(128,43,12)" stroke="rgb(128,43,12)" stroke-width="1" opacity="0.11764705882352941" d="M 312.5 153 L 317 155.5 L 315.5 155 Q 311.7 155.5 312.5 153 Z " /><path fill="rgb(128,43,12)" stroke="rgb(128,43,12)" stroke-width="1" opacity="0.11764705882352941" d="M 260.5 154 L 263 154.5 L 253.5 160 L 254.5 158 L 260.5 154 Z " /><path fill="rgb(128,43,12)" stroke="rgb(128,43,12)" stroke-width="1" opacity="0.11764705882352941" d="M 113.5 155 L 115 157.5 L 114.5 160 Q 111.6 160.4 113.5 155 Z " /><path fill="rgb(128,43,12)" stroke="rgb(128,43,12)" stroke-width="1" opacity="0.11764705882352941" d="M 318.5 155 L 323 161.5 L 322 161.5 L 318 156.5 L 318.5 155 Z " /><path fill="rgb(128,43,12)" stroke="rgb(128,43,12)" stroke-width="1" opacity="0.11764705882352941" d="M 106.5 157 L 108 159.5 L 106 158.5 L 106.5 157 Z " /><path fill="rgb(128,43,12)" stroke="rgb(128,43,12)" stroke-width="1" opacity="0.11764705882352941" d="M 265.5 159 L 263.5 162 L 261 161.5 L 265.5 159 Z " /><path fill="rgb(128,43,12)" stroke="rgb(128,43,12)" stroke-width="1" opacity="0.11764705882352941" d="M 67.5 160 Q 70.1 159.2 69 162.5 L 74 173 Q 77 171.8 76 175.5 L 85 183 Q 83.9 185.7 86.5 185 L 98 192.5 L 96.5 192 L 81 183 L 71 169.5 L 67.5 160 Z " /><path fill="rgb(128,43,12)" stroke="rgb(128,43,12)" stroke-width="1" opacity="0.11764705882352941" d="M 112.5 162 L 113 163.5 Q 112 168 105.5 167 L 104.5 165 L 109.5 166 L 112.5 162 Z " /><path fill="rgb(128,43,12)" stroke="rgb(128,43,12)" stroke-width="1" opacity="0.11764705882352941" d="M 259.5 162 L 260 164 L 254.5 165 L 254.5 164 L 259.5 162 Z " /><path fill="rgb(128,43,12)" stroke="rgb(128,43,12)" stroke-width="1" opacity="0.11764705882352941" d="M 294.5 162 L 299 164.5 L 297.5 165 L 294.5 162 Z " /><path fill="rgb(128,43,12)" stroke="rgb(128,43,12)" stroke-width="1" opacity="0.11764705882352941" d="M 180.5 163 Q 182.8 164.8 182 169.5 L 181 169.5 L 180.5 163 Z " /><path fill="rgb(128,43,12)" stroke="rgb(128,43,12)" stroke-width="1" opacity="0.11764705882352941" d="M 243 165 L 249.5 166 L 251.5 165 L 251.5 166 L 246.5 167 L 244 166 L 244 168 Q 241.3 166.9 242 169.5 L 240 173 L 238 173 Q 239.1 175.7 236.5 175 L 231.5 182 Q 227.5 181.5 227 184.5 Q 227.8 186.8 225.5 186 L 215 191 L 214.5 193 L 213 192.5 L 212.5 194 L 210.5 194 L 199.5 199 L 187.5 201 L 187.5 200 L 201.5 197 L 222.5 187 L 240 170.5 L 243 165 Z " /><path fill="rgb(128,43,12)" stroke="rgb(128,43,12)" stroke-width="1" opacity="0.11764705882352941" d="M 301 165 L 313 169.5 L 311.5 170 L 301 167 L 301 165 Z " /><path fill="rgb(128,43,12)" stroke="rgb(128,43,12)" stroke-width="1" opacity="0.11764705882352941" d="M 322.5 166 L 323 167.5 L 320.5 171 L 319.5 169 L 322 167.5 L 322.5 166 Z " /><path fill="rgb(128,43,12)" stroke="rgb(128,43,12)" stroke-width="1" opacity="0.11764705882352941" d="M 176.5 168 L 178 182.5 L 176.5 185 L 176 183.5 L 177 178.5 L 176 177.5 L 176.5 168 Z " /><path fill="rgb(128,43,12)" stroke="rgb(128,43,12)" stroke-width="1" opacity="0.11764705882352941" d="M 314.5 170 L 318 170.5 L 314.5 171 L 314.5 170 Z " /><path fill="rgb(128,43,12)" stroke="rgb(128,43,12)" stroke-width="1" opacity="0.11764705882352941" d="M 51.5 177 L 52 178.5 L 42 187.5 Q 35.9 193.4 36 205.5 L 38 213.5 L 44.5 221 L 49 223 L 41.5 232 L 26 246.5 L 25 253 L 48 261.5 L 45.5 262 L 43 261.5 Q 43.8 258.9 40.5 260 L 26.5 255 L 24 252.5 L 24 248.5 L 30 240 L 33 238.5 Q 32.3 236.3 34.5 237 L 40 230 L 44 228.5 Q 43.3 226.3 45.5 227 L 47 223.5 L 44 222.5 Q 37.2 217.3 35 207.5 L 35 205.5 L 35 199.5 L 41 186 Q 43.7 187.1 43 184.5 L 49 179.5 Q 48.3 177.3 50.5 178 L 51.5 177 Z " /><path fill="rgb(128,43,12)" stroke="rgb(128,43,12)" stroke-width="1" opacity="0.11764705882352941" d="M 180.5 188 L 181 190.5 L 179.5 193 L 179 191.5 L 180.5 188 Z " /><path fill="rgb(128,43,12)" stroke="rgb(128,43,12)" stroke-width="1" opacity="0.11764705882352941" d="M 173 189 L 175 189.5 L 170.5 196 L 153 198 Q 152.6 193.3 148.5 191 L 144.5 191 L 135.5 199 L 137.5 196 L 144.5 190 L 149.5 190 L 151 193 Q 154 191.8 153 195.5 Q 154.3 198.3 159.5 197 Q 161.3 194.3 167.5 196 L 172 193.5 L 173 189 Z " /><path fill="rgb(128,43,12)" stroke="rgb(128,43,12)" stroke-width="1" opacity="0.11764705882352941" d="M 85.5 195 L 99 201.5 L 96.5 202 L 86 198 L 85.5 195 Z " /><path fill="rgb(128,43,12)" stroke="rgb(128,43,12)" stroke-width="1" opacity="0.11764705882352941" d="M 105.5 195 L 115.5 197 L 120 199.5 L 118.5 200 L 105.5 196 L 105.5 195 Z " /><path fill="rgb(128,43,12)" stroke="rgb(128,43,12)" stroke-width="1" opacity="0.11764705882352941" d="M 130 199 L 134 199.5 L 127.5 203 L 126.5 201 L 128.5 202 L 130 199 Z " /><path fill="rgb(128,43,12)" stroke="rgb(128,43,12)" stroke-width="1" opacity="0.11764705882352941" d="M 100.5 202 L 115 206.5 L 112.5 207 L 101.5 204 L 100.5 202 Z " /><path fill="rgb(128,43,12)" stroke="rgb(128,43,12)" stroke-width="1" opacity="0.11764705882352941" d="M 180.5 202 L 182 202.5 L 172.5 205 L 170 207.5 L 167.5 211 Q 161.3 218 152 221 L 151.5 223 L 149.5 223 L 147.5 224 L 145.5 224 L 143.5 225 L 142.5 223 Q 150.8 222.8 155.5 219 L 172.5 204 L 180.5 202 Z " /><path fill="rgb(128,43,12)" stroke="rgb(128,43,12)" stroke-width="1" opacity="0.11764705882352941" d="M 127.5 206 L 129 206.5 L 112.5 222 L 112 220 L 117 216.5 L 118.5 214 L 121.5 212 L 123.5 209 L 121 208.5 Q 126 209 127.5 206 Z " /><path fill="rgb(128,43,12)" stroke="rgb(128,43,12)" stroke-width="1" opacity="0.11764705882352941" d="M 158.5 206 Q 163.3 204.7 162 208 L 150.5 215 L 140.5 216 L 144.5 211 L 150 208 L 149.5 210 Q 147.7 207.3 146 211.5 Q 146.8 214.1 143.5 213 L 142.5 215 L 149.5 214 L 155.5 210 L 158 210 Q 156.9 207.3 159.5 208 L 159.5 207 L 158.5 206 Z " /><path fill="rgb(128,43,12)" stroke="rgb(128,43,12)" stroke-width="1" opacity="0.11764705882352941" d="M 153.5 207 L 157 207.5 L 153.5 208 L 153.5 207 Z " /><path fill="rgb(128,43,12)" stroke="rgb(128,43,12)" stroke-width="1" opacity="0.11764705882352941" d="M 76.5 217 L 87 221.5 L 85 222.5 Q 85.8 219.9 82.5 221 L 76.5 218 L 76.5 217 Z " /><path fill="rgb(128,43,12)" stroke="rgb(128,43,12)" stroke-width="1" opacity="0.11764705882352941" d="M 95.5 218 Q 100.3 218.3 102 221.5 Q 103.1 224.8 100.5 224 Q 99.8 226.8 95.5 226 L 93 225.5 Q 92.3 223.3 94.5 224 L 98.5 225 L 101 221.5 L 95.5 219 L 95.5 218 Z " /><path fill="rgb(128,43,12)" stroke="rgb(128,43,12)" stroke-width="1" opacity="0.11764705882352941" d="M 88.5 222 Q 90.8 221.3 90 223.5 L 88.5 222 Z " /><path fill="rgb(128,43,12)" stroke="rgb(128,43,12)" stroke-width="1" opacity="0.11764705882352941" d="M 110.5 223 L 110 224.5 L 108.5 227 L 104.5 227 L 90 239 L 90 240.5 L 73 257.5 L 73 261 L 75.5 261 L 105.5 231 L 106 232.5 L 103 238.5 L 104 241 L 108 241.5 L 104.5 242 Q 101.5 241.5 102 237.5 L 102.5 236 L 95 242.5 L 95 244 L 93 244 Q 94.1 246.7 91.5 246 L 85.5 253 L 82 255.5 L 78.5 260 L 75.5 262 Q 73.8 264.8 72 260.5 Q 71.4 255.4 74.5 254 L 77 252.5 L 80.5 248 L 83 246.5 L 86.5 242 L 89 240.5 L 96.5 232 L 104.5 226 L 109 226 L 110.5 223 Z " /><path fill="rgb(128,43,12)" stroke="rgb(128,43,12)" stroke-width="1" opacity="0.11764705882352941" d="M 136.5 223 L 140 223.5 L 136.5 224 L 136.5 223 Z " /><path fill="rgb(128,43,12)" stroke="rgb(128,43,12)" stroke-width="1" opacity="0.11764705882352941" d="M 128.5 225 L 130 225.5 L 124 230 Q 122.9 232.7 125.5 232 L 129 234.5 L 127.5 235 L 122 231.5 L 128.5 225 Z " /><path fill="rgb(128,43,12)" stroke="rgb(128,43,12)" stroke-width="1" opacity="0.11764705882352941" d="M 113 229 L 116 229.5 L 112.5 232 L 113 230.5 L 113 229 Z " /><path fill="rgb(128,43,12)" stroke="rgb(128,43,12)" stroke-width="1" opacity="0.11764705882352941" d="M 120.5 234 L 122.5 237 L 127 240.5 L 124.5 239 L 118.5 236 L 115.5 238 L 116.5 236 L 120.5 234 Z " /><path fill="rgb(128,43,12)" stroke="rgb(128,43,12)" stroke-width="1" opacity="0.11764705882352941" d="M 130.5 236 L 139 239.5 L 137.5 240 L 130.5 237 L 130.5 236 Z " /><path fill="rgb(128,43,12)" stroke="rgb(128,43,12)" stroke-width="1" opacity="0.11764705882352941" d="M 113.5 238 L 114 240 L 109.5 241 L 109.5 240 L 113.5 238 Z " /><path fill="rgb(128,43,12)" stroke="rgb(128,43,12)" stroke-width="1" opacity="0.11764705882352941" d="M 118.5 238 L 124 240 Q 122.8 243 126.5 242 L 128 242.5 L 128.5 241 L 141 246.5 L 137.5 247 L 135.5 245 L 128 243 L 129 246.5 L 128 249 L 123 249.5 L 135 257.5 Q 136.3 262.8 133.5 264 L 131 264.5 L 132 267.5 L 131 269.5 L 132.5 269 L 135.5 267 L 145.5 259 L 148 259 Q 146.9 256.3 149.5 257 L 154.5 253 L 151.5 257 L 125.5 275 L 115.5 284 L 116 282.5 L 116 281 L 118 281 Q 116.9 278.3 119.5 279 L 123 277 Q 121.9 274.3 124.5 275 L 131 270.5 L 125.5 269 L 125 270.5 Q 127.7 272.3 123.5 274 Q 116.7 274.9 114 273 L 114.5 271 Q 117.8 274 124 273 Q 125 269.2 122.5 268 L 117 266.5 L 119.5 265 L 126.5 269 L 130 269 L 131 265 L 115.5 258 L 112 254.5 L 114 254 Q 112.9 256.7 115.5 256 L 130.5 264 L 128.5 261 L 118 254.5 L 119.5 255 L 132.5 263 Q 134.8 262.3 134 258.5 L 118 247.5 L 120 246.5 Q 116.2 245.8 117 240.5 L 118.5 238 Z M 118 240 L 118 244 L 124 248 L 127 248 L 128 246 L 122 240 L 118 240 Z M 121 247 L 122 249 L 123 249 L 121 247 Z " /><path fill="rgb(128,43,12)" stroke="rgb(128,43,12)" stroke-width="1" opacity="0.11764705882352941" d="M 140.5 239 L 142.5 241 L 153.5 244 L 158 247.5 L 157 252 Q 146.8 253.2 142 247.5 L 143.5 248 L 151.5 251 L 155.5 251 L 157 247.5 L 140 240.5 L 140.5 239 Z " /><path fill="rgb(128,43,12)" stroke="rgb(128,43,12)" stroke-width="1" opacity="0.11764705882352941" d="M 62 242 L 70.5 243 L 76 247.5 L 72.5 253 L 64 250 L 65 255.5 Q 63.6 258.1 59 257.5 L 64 259.5 L 61.5 260 L 52 256.5 L 55 255.5 L 54.5 254 L 64 256 Q 65 252.2 62.5 251 L 56 249 L 56.5 247 Q 58.3 250.2 63.5 250 L 63.5 249 L 61 247.5 L 62 242 Z M 64 243 Q 61 244 62 248 L 71 251 Q 75 251 75 249 L 74 247 Q 71 243 64 243 Z " /><path fill="rgb(128,43,12)" stroke="rgb(128,43,12)" stroke-width="1" opacity="0.11764705882352941" d="M 46 244 Q 51 243.2 53 246.5 L 51.5 246 L 47.5 245 L 46 248.5 L 51 252.5 L 49.5 253 L 46 250.5 Q 46.8 248.3 44.5 249 L 45 247.5 L 46 244 Z " /><path fill="rgb(128,43,12)" stroke="rgb(128,43,12)" stroke-width="1" opacity="0.11764705882352941" d="M 109.5 244 Q 115.3 243.2 117 246.5 L 115.5 246 L 109.5 245 L 108 248.5 L 117 253.5 L 115.5 253 L 109.5 251 L 110.5 254 L 102.5 248 L 100.5 248 L 98.5 251 L 98 249.5 Q 98.5 246.5 102.5 247 L 107.5 250 L 107 248.5 Q 106.5 244.5 109.5 244 Z " /><path fill="rgb(128,43,12)" stroke="rgb(128,43,12)" stroke-width="1" opacity="0.11764705882352941" d="M 99.5 252 L 116 263 Q 117.7 267.1 113.5 266 L 107 263.5 L 108.5 263 L 113 264 Q 114.1 261.3 111.5 262 L 100.5 254 L 99.5 252 Z " /><path fill="rgb(128,43,12)" stroke="rgb(128,43,12)" stroke-width="1" opacity="0.11764705882352941" d="M 159.5 253 L 160 256.5 L 159 259 L 157 259 Q 158.1 261.7 155.5 261 L 159 256.5 L 159.5 253 Z " /><path fill="rgb(128,43,12)" stroke="rgb(128,43,12)" stroke-width="1" opacity="0.11764705882352941" d="M 46.5 254 L 51 255.5 L 49.5 256 L 46.5 255 L 46.5 254 Z " /><path fill="rgb(128,43,12)" stroke="rgb(128,43,12)" stroke-width="1" opacity="0.11764705882352941" d="M 91.5 255 L 93 255.5 L 90.5 257 L 91.5 255 Z " /><path fill="rgb(128,43,12)" stroke="rgb(128,43,12)" stroke-width="1" opacity="0.11764705882352941" d="M 94.5 256 L 99 257 L 100 259.5 L 97.5 258 Q 93.7 257.7 94.5 256 Z " /><path fill="rgb(128,43,12)" stroke="rgb(128,43,12)" stroke-width="1" opacity="0.11764705882352941" d="M 89.5 258 L 91.5 261 L 105 268.5 L 102.5 269 L 97 267 L 95.5 264 L 89 259.5 L 89.5 258 Z " /><path fill="rgb(128,43,12)" stroke="rgb(128,43,12)" stroke-width="1" opacity="0.11764705882352941" d="M 65.5 260 L 71 262 Q 72 265.8 69.5 267 L 63.5 268 L 59 265.5 L 60.5 265 L 67.5 267 L 70 266 Q 70.8 262.2 67.5 261 Q 64.5 261.5 65.5 260 Z " /><path fill="rgb(128,43,12)" stroke="rgb(128,43,12)" stroke-width="1" opacity="0.11764705882352941" d="M 101.5 260 Q 103.8 259.3 103 261.5 L 101.5 260 Z " /><path fill="rgb(128,43,12)" stroke="rgb(128,43,12)" stroke-width="1" opacity="0.11764705882352941" d="M 153.5 261 L 151.5 264 L 153.5 261 Z " /><path fill="rgb(128,43,12)" stroke="rgb(128,43,12)" stroke-width="1" opacity="0.11764705882352941" d="M 49.5 262 L 57 264.5 L 53.5 265 L 49.5 263 L 49.5 262 Z " /><path fill="rgb(128,43,12)" stroke="rgb(128,43,12)" stroke-width="1" opacity="0.11764705882352941" d="M 149.5 264 L 149 265.5 L 149 267 Q 145.3 265.5 146 268.5 L 123 284 Q 124.1 286.7 121.5 286 Q 120.3 291.3 112.5 290 L 90 277.5 L 91.5 278 L 113.5 289 L 116.5 289 L 149.5 264 Z " /><path fill="rgb(128,43,12)" stroke="rgb(128,43,12)" stroke-width="1" opacity="0.11764705882352941" d="M 78.5 265 L 92.5 272 L 94 271.5 Q 93.1 274.5 97.5 273 L 103 276.5 L 101.5 276 L 88.5 272 Q 85 266.6 78 266 Q 77 272.4 82.5 274 L 88 276.5 L 86.5 277 L 80 274 L 78.5 271 Q 75.1 271.9 77 266.5 L 78.5 265 Z " /><path fill="rgb(128,43,12)" stroke="rgb(128,43,12)" stroke-width="1" opacity="0.11764705882352941" d="M 106.5 269 Q 108.8 268.3 108 270.5 L 106.5 269 Z " /><path fill="rgb(128,43,12)" stroke="rgb(128,43,12)" stroke-width="1" opacity="0.11764705882352941" d="M 104.5 277 L 113 281 L 112.5 283 L 105.5 279 L 104.5 277 Z " /></svg>